<svg version="1.1" xmlns="http://www.w3.org/2000/svg" xmlns:xlink="http://www.w3.org/1999/xlink" width="588" height="532"><defs/><g><g transform="translate(-14,-94) scale(1,1)"><rect fill="#C0C0C0" stroke="none" x="191" y="111" width="328" height="80" opacity="0.2"/></g><g transform="translate(-14,-94) scale(1,1)"><rect fill="#ffffff" stroke="none" x="184" y="104" width="328" height="80"/></g><g transform="translate(-14,-94) scale(1,1)"><path fill="none" stroke="#000000" d="M 184 104 L 512 104 L 512 184 L 184 184 L 184 104 Z Z" stroke-miterlimit="10"/></g><g transform="translate(-14,-94) scale(1,1)"><path fill="none" stroke="#000000" d="M 184 129 L 512 129" stroke-miterlimit="10"/></g><g transform="translate(-14,-94) scale(1,1)"><path fill="none" stroke="#000000" d="M 184 152 L 512 152" stroke-miterlimit="10"/></g><g transform="translate(-14,-94) scale(1,1)"><g><path fill="none" stroke="none"/><text fill="#000000" stroke="none" font-family="Arial" font-size="13px" font-style="normal" font-weight="bold" text-decoration="none" x="294.171875" y="123.5">StockApiController</text></g></g><g transform="translate(-14,-94) scale(1,1)"><g><path fill="none" stroke="none"/><text fill="#000000" stroke="none" font-family="Arial" font-size="13px" font-style="normal" font-weight="normal" text-decoration="none" x="189" y="146.5">-StockGenerator stockGenerator</text></g></g><g transform="translate(-14,-94) scale(1,1)"><g><path fill="none" stroke="none"/><text fill="#000000" stroke="none" font-family="Arial" font-size="13px" font-style="normal" font-weight="normal" text-decoration="none" x="189" y="169.5">+ResponseEntity&lt;StockPriceDTO&gt; stock()</text></g></g><g transform="translate(-14,-94) scale(1,1)"><rect fill="#C0C0C0" stroke="none" x="479" y="279" width="120" height="96" opacity="0.2"/></g><g transform="translate(-14,-94) scale(1,1)"><rect fill="#ffffff" stroke="none" x="472" y="272" width="120" height="96"/></g><g transform="translate(-14,-94) scale(1,1)"><path fill="none" stroke="#000000" d="M 472 272 L 592 272 L 592 368 L 472 368 L 472 272 Z Z" stroke-miterlimit="10"/></g><g transform="translate(-14,-94) scale(1,1)"><path fill="none" stroke="#000000" d="M 472 297 L 592 297" stroke-miterlimit="10"/></g><g transform="translate(-14,-94) scale(1,1)"><path fill="none" stroke="#000000" d="M 472 307 L 592 307" stroke-miterlimit="10"/></g><g transform="translate(-14,-94) scale(1,1)"><g><path fill="none" stroke="none"/><text fill="#000000" stroke="none" font-family="Arial" font-size="13px" font-style="normal" font-weight="bold" text-decoration="none" x="486.477783203125" y="291.5">StockGenerator</text></g></g><g transform="translate(-14,-94) scale(1,1)"><g><path fill="none" stroke="none"/><text fill="#000000" stroke="none" font-family="Arial" font-size="13px" font-style="normal" font-weight="normal" text-decoration="none" x="477" y="324.5">+GenerateStock()</text></g></g><g transform="translate(-14,-94) scale(1,1)"><path fill="none" stroke="#000000" d="M 391 185 L 481 271" stroke-miterlimit="10"/></g><g transform="translate(-14,-94) scale(1,1)"><path fill="none" stroke="#000000" d="M 470.7443026245161 267.0224792467554 L 481 271 L 476.56065873692773 260.93559494306874" stroke-miterlimit="10"/></g><g transform="translate(-14,-94) scale(1,1)"><path fill="none" stroke="#000000" d="M 306 185 L 243 247" stroke-miterlimit="10" stroke-dasharray="3"/></g><g transform="translate(-14,-94) scale(1,1)"><rect fill="#C0C0C0" stroke="none" x="399" y="455" width="200" height="168" opacity="0.2"/></g><g transform="translate(-14,-94) scale(1,1)"><rect fill="#ffffff" stroke="none" x="392" y="448" width="200" height="168"/></g><g transform="translate(-14,-94) scale(1,1)"><path fill="none" stroke="#000000" d="M 392 448 L 592 448 L 592 616 L 392 616 L 392 448 Z Z" stroke-miterlimit="10"/></g><g transform="translate(-14,-94) scale(1,1)"><path fill="none" stroke="#000000" d="M 392 473 L 592 473" stroke-miterlimit="10"/></g><g transform="translate(-14,-94) scale(1,1)"><path fill="none" stroke="#000000" d="M 392 601 L 592 601" stroke-miterlimit="10"/></g><g transform="translate(-14,-94) scale(1,1)"><g><path fill="none" stroke="none"/><text fill="#000000" stroke="none" font-family="Arial" font-size="13px" font-style="normal" font-weight="bold" text-decoration="none" x="447.214111328125" y="467.5">StockPriceDTO</text></g></g><g transform="translate(-14,-94) scale(1,1)"><g><path fill="none" stroke="none"/><text fill="#000000" stroke="none" font-family="Arial" font-size="13px" font-style="normal" font-weight="normal" text-decoration="none" x="397" y="490.5">-String stockId</text></g></g><g transform="translate(-14,-94) scale(1,1)"><g><path fill="none" stroke="none"/><text fill="#000000" stroke="none" font-family="Arial" font-size="13px" font-style="normal" font-weight="normal" text-decoration="none" x="397" y="505.5">-String stockDescription</text></g></g><g transform="translate(-14,-94) scale(1,1)"><g><path fill="none" stroke="none"/><text fill="#000000" stroke="none" font-family="Arial" font-size="13px" font-style="normal" font-weight="normal" text-decoration="none" x="397" y="520.5">-BingDecimal stockPrice</text></g></g><g transform="translate(-14,-94) scale(1,1)"><g><path fill="none" stroke="none"/><text fill="#000000" stroke="none" font-family="Arial" font-size="13px" font-style="normal" font-weight="normal" text-decoration="none" x="397" y="535.5">-BingDecimal stockPriceChange</text></g></g><g transform="translate(-14,-94) scale(1,1)"><g><path fill="none" stroke="none"/><text fill="#000000" stroke="none" font-family="Arial" font-size="13px" font-style="normal" font-weight="normal" text-decoration="none" x="397" y="550.5">-BigDecimal stockOpenPrice</text></g></g><g transform="translate(-14,-94) scale(1,1)"><g><path fill="none" stroke="none"/><text fill="#000000" stroke="none" font-family="Arial" font-size="13px" font-style="normal" font-weight="normal" text-decoration="none" x="397" y="565.5">-BigDecimal stockMaxPrice</text></g></g><g transform="translate(-14,-94) scale(1,1)"><g><path fill="none" stroke="none"/><text fill="#000000" stroke="none" font-family="Arial" font-size="13px" font-style="normal" font-weight="normal" text-decoration="none" x="397" y="580.5">-BigDecimal stockMinPrice</text></g></g><g transform="translate(-14,-94) scale(1,1)"><g><path fill="none" stroke="none"/><text fill="#000000" stroke="none" font-family="Arial" font-size="13px" font-style="normal" font-weight="normal" text-decoration="none" x="397" y="595.5">-BigDecimal stockExchange</text></g></g><g transform="translate(-14,-94) scale(1,1)"><path fill="none" stroke="#000000" d="M 523 369 L 508 447" stroke-miterlimit="10"/></g><g transform="translate(-14,-94) scale(1,1)"><path fill="none" stroke="#000000" d="M 505.78542108428877 436.2252313144974 L 508 447 L 514.0529682344632 437.8151442279925" stroke-miterlimit="10"/></g><g transform="translate(-14,-94) scale(1,1)"><rect fill="#C0C0C0" stroke="none" x="175" y="255" width="50.919921875" height="44" opacity="0.2"/></g><g transform="translate(-14,-94) scale(1,1)"><rect fill="#ffffff" stroke="none" x="168" y="248" width="50.919921875" height="44"/></g><g transform="translate(-14,-94) scale(1,1)"><path fill="none" stroke="#000000" d="M 168 248 L 218.919921875 248 L 218.919921875 292 L 168 292 L 168 248 Z Z" stroke-miterlimit="10"/></g><g transform="translate(-14,-94) scale(1,1)"><path fill="none" stroke="#000000" d="M 168 273 L 218.919921875 273" stroke-miterlimit="10"/></g><g transform="translate(-14,-94) scale(1,1)"><path fill="none" stroke="#000000" d="M 168 283 L 218.919921875 283" stroke-miterlimit="10"/></g><g transform="translate(-14,-94) scale(1,1)"><g><path fill="none" stroke="none"/><text fill="#000000" stroke="none" font-family="Arial" font-size="13px" font-style="normal" font-weight="bold" text-decoration="none" x="173.591796875" y="267.5">Class1</text></g></g><g transform="translate(-14,-94) scale(1,1)"><rect fill="#C0C0C0" stroke="none" x="231" y="375" width="50.919921875" height="44" opacity="0.2"/></g><g transform="translate(-14,-94) scale(1,1)"><rect fill="#ffffff" stroke="none" x="224" y="368" width="50.919921875" height="44"/></g><g transform="translate(-14,-94) scale(1,1)"><path fill="none" stroke="#000000" d="M 224 368 L 274.919921875 368 L 274.919921875 412 L 224 412 L 224 368 Z Z" stroke-miterlimit="10"/></g><g transform="translate(-14,-94) scale(1,1)"><path fill="none" stroke="#000000" d="M 224 393 L 274.919921875 393" stroke-miterlimit="10"/></g><g transform="translate(-14,-94) scale(1,1)"><path fill="none" stroke="#000000" d="M 224 403 L 274.919921875 403" stroke-miterlimit="10"/></g><g transform="translate(-14,-94) scale(1,1)"><g><path fill="none" stroke="none"/><text fill="#000000" stroke="none" font-family="Arial" font-size="13px" font-style="normal" font-weight="bold" text-decoration="none" x="229.591796875" y="387.5">Class2</text></g></g><g transform="translate(-14,-94) scale(1,1)"><rect fill="#C0C0C0" stroke="none" x="87" y="375" width="50.919921875" height="44" opacity="0.2"/></g><g transform="translate(-14,-94) scale(1,1)"><rect fill="#ffffff" stroke="none" x="80" y="368" width="50.919921875" height="44"/></g><g transform="translate(-14,-94) scale(1,1)"><path fill="none" stroke="#000000" d="M 80 368 L 130.919921875 368 L 130.919921875 412 L 80 412 L 80 368 Z Z" stroke-miterlimit="10"/></g><g transform="translate(-14,-94) scale(1,1)"><path fill="none" stroke="#000000" d="M 80 393 L 130.919921875 393" stroke-miterlimit="10"/></g><g transform="translate(-14,-94) scale(1,1)"><path fill="none" stroke="#000000" d="M 80 403 L 130.919921875 403" stroke-miterlimit="10"/></g><g transform="translate(-14,-94) scale(1,1)"><g><path fill="none" stroke="none"/><text fill="#000000" stroke="none" font-family="Arial" font-size="13px" font-style="normal" font-weight="bold" text-decoration="none" x="85.591796875" y="387.5">Class3</text></g></g><g transform="translate(-14,-94) scale(1,1)"><path fill="#ffffff" stroke="none" d="M 224 368 L 312 368 L 322 378 L 322 416 L 224 416 L 224 368"/></g><g transform="translate(-14,-94) scale(1,1)"><path fill="none" stroke="#000000" d="M 224 368 L 312 368 L 322 378 L 322 416 L 224 416 L 224 368 L 224 368" stroke-miterlimit="10"/></g><g transform="translate(-14,-94) scale(1,1)"><path fill="none" stroke="#000000" d="M 312 368 L 312 378 L 322 378 L 312 368" stroke-miterlimit="10"/></g><g transform="translate(-14,-94) scale(1,1)"><g><path fill="none" stroke="none"/><text fill="#000000" stroke="none" font-family="Arial" font-size="13px" font-style="normal" font-weight="normal" text-decoration="none" x="229" y="386">URL request</text></g></g><g transform="translate(-14,-94) scale(1,1)"><path fill="none" stroke="#000000" d="M 336 185 L 281 367" stroke-miterlimit="10" stroke-dasharray="3"/></g><g transform="translate(-14,-94) scale(1,1)"><path fill="none" stroke="#000000" d="M 122 367 L 176 293" stroke-miterlimit="10"/></g><g transform="translate(-14,-94) scale(1,1)"><path fill="none" stroke="#000000" d="M 173.40982784052233 303.69069727306254 L 176 293 L 166.6090071641977 298.7279362389878" stroke-miterlimit="10"/></g><g transform="translate(-14,-94) scale(1,1)"><path fill="none" stroke="#000000" d="M 223 390 L 132 390" stroke-miterlimit="10"/></g><g transform="translate(-14,-94) scale(1,1)"><path fill="none" stroke="#000000" d="M 142.16267485762415 385.790482243984 L 132 390 L 142.16267485762415 394.209517756016" stroke-miterlimit="10"/></g><g transform="translate(-14,-94) scale(1,1)"><rect fill="#C0C0C0" stroke="none" x="41" y="375" width="102" height="64" opacity="0.2"/></g><g transform="translate(-14,-94) scale(1,1)"><rect fill="#ffffff" stroke="none" x="34" y="368" width="102" height="64"/></g><g transform="translate(-14,-94) scale(1,1)"><path fill="none" stroke="#000000" d="M 34 368 L 136 368 L 136 432 L 34 432 L 34 368 Z Z" stroke-miterlimit="10"/></g><g transform="translate(-14,-94) scale(1,1)"><rect fill="#ffffff" stroke="none" x="24" y="375" width="20" height="10"/></g><g transform="translate(-14,-94) scale(1,1)"><path fill="none" stroke="#000000" d="M 24 375 L 44 375 L 44 385 L 24 385 L 24 375 Z Z" stroke-miterlimit="10"/></g><g transform="translate(-14,-94) scale(1,1)"><rect fill="#ffffff" stroke="none" x="24" y="395" width="20" height="10"/></g><g transform="translate(-14,-94) scale(1,1)"><path fill="none" stroke="#000000" d="M 24 395 L 44 395 L 44 405 L 24 405 L 24 395 Z Z" stroke-miterlimit="10"/></g><g transform="translate(-14,-94) scale(1,1)"><g><path fill="none" stroke="none"/><text fill="#000000" stroke="none" font-family="Arial" font-size="13px" font-style="normal" font-weight="bold" text-decoration="none" x="65.069580078125" y="387.5">WebApp</text><path fill="none" stroke="#000000" d="M 116.35546875 387.5 L 63.64453125 387.5" stroke-miterlimit="10"/></g></g><g transform="translate(-14,-94) scale(1,1)"><path fill="#ffffff" stroke="none" d="M 168 248 L 256 248 L 266 258 L 266 296 L 168 296 L 168 248"/></g><g transform="translate(-14,-94) scale(1,1)"><path fill="none" stroke="#000000" d="M 168 248 L 256 248 L 266 258 L 266 296 L 168 296 L 168 248 L 168 248" stroke-miterlimit="10"/></g><g transform="translate(-14,-94) scale(1,1)"><path fill="none" stroke="#000000" d="M 256 248 L 256 258 L 266 258 L 256 248" stroke-miterlimit="10"/></g><g transform="translate(-14,-94) scale(1,1)"><g><path fill="none" stroke="none"/><text fill="#000000" stroke="none" font-family="Arial" font-size="13px" font-style="normal" font-weight="normal" text-decoration="none" x="173" y="266">Json</text><text fill="#000000" stroke="none" font-family="Arial" font-size="13px" font-style="normal" font-weight="normal" text-decoration="none" x="173" y="279">Response</text></g></g></g></svg>