<svg version="1.1" xmlns="http://www.w3.org/2000/svg" xmlns:xlink="http://www.w3.org/1999/xlink" width="460" height="204"><defs/><g><g transform="translate(-294,-102) scale(1,1)"><rect fill="#C0C0C0" stroke="none" x="311" y="127" width="142" height="160" opacity="0.2"/></g><g transform="translate(-294,-102) scale(1,1)"><rect fill="#ffffff" stroke="none" x="304" y="120" width="142" height="160"/></g><g transform="translate(-294,-102) scale(1,1)"><path fill="none" stroke="#000000" d="M 304 120 L 446 120 L 446 280 L 304 280 L 304 120 Z Z" stroke-miterlimit="10"/></g><g transform="translate(-294,-102) scale(1,1)"><path fill="none" stroke="#000000" d="M 304 145 L 446 145" stroke-miterlimit="10"/></g><g transform="translate(-294,-102) scale(1,1)"><path fill="none" stroke="#000000" d="M 304 183 L 446 183" stroke-miterlimit="10"/></g><g transform="translate(-294,-102) scale(1,1)"><g><path fill="none" stroke="none"/><text fill="#000000" stroke="none" font-family="Arial" font-size="13px" font-style="normal" font-weight="bold" text-decoration="none" x="358.74365234375" y="139.5">Stock</text></g></g><g transform="translate(-294,-102) scale(1,1)"><g><path fill="none" stroke="none"/><text fill="#000000" stroke="none" font-family="Arial" font-size="13px" font-style="normal" font-weight="normal" text-decoration="none" x="309" y="162.5">-stockId</text></g></g><g transform="translate(-294,-102) scale(1,1)"><g><path fill="none" stroke="none"/><text fill="#000000" stroke="none" font-family="Arial" font-size="13px" font-style="normal" font-weight="normal" text-decoration="none" x="309" y="177.5">-StockDescription</text></g></g><g transform="translate(-294,-102) scale(1,1)"><g><path fill="none" stroke="none"/><text fill="#000000" stroke="none" font-family="Arial" font-size="13px" font-style="normal" font-weight="normal" text-decoration="none" x="309" y="200.5">+getStockId()</text></g></g><g transform="translate(-294,-102) scale(1,1)"><g><path fill="none" stroke="none"/><text fill="#000000" stroke="none" font-family="Arial" font-size="13px" font-style="normal" font-weight="normal" text-decoration="none" x="309" y="215.5">+setStockId()</text></g></g><g transform="translate(-294,-102) scale(1,1)"><g><path fill="none" stroke="none"/><text fill="#000000" stroke="none" font-family="Arial" font-size="13px" font-style="normal" font-weight="normal" text-decoration="none" x="309" y="230.5">+getStockDescription()</text></g></g><g transform="translate(-294,-102) scale(1,1)"><g><path fill="none" stroke="none"/><text fill="#000000" stroke="none" font-family="Arial" font-size="13px" font-style="normal" font-weight="normal" text-decoration="none" x="309" y="245.5">+setSotckDescription()</text></g></g><g transform="translate(-294,-102) scale(1,1)"><rect fill="#C0C0C0" stroke="none" x="599" y="119" width="152" height="184" opacity="0.2"/></g><g transform="translate(-294,-102) scale(1,1)"><rect fill="#ffffff" stroke="none" x="592" y="112" width="152" height="184"/></g><g transform="translate(-294,-102) scale(1,1)"><path fill="none" stroke="#000000" d="M 592 112 L 744 112 L 744 296 L 592 296 L 592 112 Z Z" stroke-miterlimit="10"/></g><g transform="translate(-294,-102) scale(1,1)"><path fill="none" stroke="#000000" d="M 592 137 L 744 137" stroke-miterlimit="10"/></g><g transform="translate(-294,-102) scale(1,1)"><path fill="none" stroke="#000000" d="M 592 250 L 744 250" stroke-miterlimit="10"/></g><g transform="translate(-294,-102) scale(1,1)"><g><path fill="none" stroke="none"/><text fill="#000000" stroke="none" font-family="Arial" font-size="13px" font-style="normal" font-weight="bold" text-decoration="none" x="636.9345703125" y="131.5">StockPrice</text></g></g><g transform="translate(-294,-102) scale(1,1)"><g><path fill="none" stroke="none"/><text fill="#000000" stroke="none" font-family="Arial" font-size="13px" font-style="normal" font-weight="normal" text-decoration="none" x="597" y="154.5">+stockDescription</text></g></g><g transform="translate(-294,-102) scale(1,1)"><g><path fill="none" stroke="none"/><text fill="#000000" stroke="none" font-family="Arial" font-size="13px" font-style="normal" font-weight="normal" text-decoration="none" x="597" y="169.5">+stockPrice</text></g></g><g transform="translate(-294,-102) scale(1,1)"><g><path fill="none" stroke="none"/><text fill="#000000" stroke="none" font-family="Arial" font-size="13px" font-style="normal" font-weight="normal" text-decoration="none" x="597" y="184.5">+stockPriceChange</text></g></g><g transform="translate(-294,-102) scale(1,1)"><g><path fill="none" stroke="none"/><text fill="#000000" stroke="none" font-family="Arial" font-size="13px" font-style="normal" font-weight="normal" text-decoration="none" x="597" y="199.5">+stockOpenPrice</text></g></g><g transform="translate(-294,-102) scale(1,1)"><g><path fill="none" stroke="none"/><text fill="#000000" stroke="none" font-family="Arial" font-size="13px" font-style="normal" font-weight="normal" text-decoration="none" x="597" y="214.5">+stockMaxPrice</text></g></g><g transform="translate(-294,-102) scale(1,1)"><g><path fill="none" stroke="none"/><text fill="#000000" stroke="none" font-family="Arial" font-size="13px" font-style="normal" font-weight="normal" text-decoration="none" x="597" y="229.5">+stockMinPrice</text></g></g><g transform="translate(-294,-102) scale(1,1)"><g><path fill="none" stroke="none"/><text fill="#000000" stroke="none" font-family="Arial" font-size="13px" font-style="normal" font-weight="normal" text-decoration="none" x="597" y="244.5">+stockExchange</text></g></g><g transform="translate(-294,-102) scale(1,1)"><path fill="none" stroke="#000000" d="M 447 201 L 591 203" stroke-miterlimit="10"/></g><g transform="translate(-294,-102) scale(1,1)"><g><path fill="none" stroke="none"/><text fill="#000000" stroke="none" font-family="Arial" font-size="13px" font-style="normal" font-weight="normal" text-decoration="none" x="464.5" y="219.5">1</text></g></g><g transform="translate(-294,-102) scale(1,1)"><g><path fill="none" stroke="none"/><text fill="#000000" stroke="none" font-family="Arial" font-size="13px" font-style="normal" font-weight="normal" text-decoration="none" x="559.5" y="221.5">1..*</text></g></g></g></svg>