<svg version="1.1" xmlns="http://www.w3.org/2000/svg" xmlns:xlink="http://www.w3.org/1999/xlink" width="824" height="502"><defs/><g><g transform="translate(-6,-150) scale(1,1)"><rect fill="#C0C0C0" stroke="none" x="415" y="167" width="107" height="57" opacity="0.2"/></g><g transform="translate(-6,-150) scale(1,1)"><rect fill="#ffffff" stroke="none" x="408" y="160" width="107" height="57"/></g><g transform="translate(-6,-150) scale(1,1)"><path fill="none" stroke="#000000" d="M 408 160 L 515 160 L 515 217 L 408 217 L 408 160 Z Z" stroke-miterlimit="10"/></g><g transform="translate(-6,-150) scale(1,1)"><path fill="none" stroke="#000000" d="M 408 185 L 515 185" stroke-miterlimit="10"/></g><g transform="translate(-6,-150) scale(1,1)"><path fill="none" stroke="#000000" d="M 408 195 L 515 195" stroke-miterlimit="10"/></g><g transform="translate(-6,-150) scale(1,1)"><g><path fill="none" stroke="none"/><text fill="#000000" stroke="none" font-family="Arial" font-size="13px" font-style="normal" font-weight="bold" text-decoration="none" x="417.06640625" y="179.5">StockController</text></g></g><g transform="translate(-6,-150) scale(1,1)"><g><path fill="none" stroke="none"/><text fill="#000000" stroke="none" font-family="Arial" font-size="13px" font-style="normal" font-weight="normal" text-decoration="none" x="413" y="212.5">+getAllStocks()</text></g></g><g transform="translate(-6,-150) scale(1,1)"><rect fill="#C0C0C0" stroke="none" x="359" y="287" width="211" height="70" opacity="0.2"/></g><g transform="translate(-6,-150) scale(1,1)"><rect fill="#ffffff" stroke="none" x="352" y="280" width="211" height="70"/></g><g transform="translate(-6,-150) scale(1,1)"><path fill="none" stroke="#000000" d="M 352 280 L 563 280 L 563 350 L 352 350 L 352 280 Z Z" stroke-miterlimit="10"/></g><g transform="translate(-6,-150) scale(1,1)"><path fill="none" stroke="#000000" d="M 352 305 L 563 305" stroke-miterlimit="10"/></g><g transform="translate(-6,-150) scale(1,1)"><path fill="none" stroke="#000000" d="M 352 328 L 563 328" stroke-miterlimit="10"/></g><g transform="translate(-6,-150) scale(1,1)"><g><path fill="none" stroke="none"/><text fill="#000000" stroke="none" font-family="Arial" font-size="13px" font-style="normal" font-weight="bold" text-decoration="none" x="419.569580078125" y="299.5">StockService</text></g></g><g transform="translate(-6,-150) scale(1,1)"><g><path fill="none" stroke="none"/><text fill="#000000" stroke="none" font-family="Arial" font-size="13px" font-style="normal" font-weight="normal" text-decoration="none" x="357" y="322.5">-StockRepository stockRepository</text></g></g><g transform="translate(-6,-150) scale(1,1)"><g><path fill="none" stroke="none"/><text fill="#000000" stroke="none" font-family="Arial" font-size="13px" font-style="normal" font-weight="normal" text-decoration="none" x="357" y="345.5">+getAllStocks()</text></g></g><g transform="translate(-6,-150) scale(1,1)"><path fill="none" stroke="#000000" d="M 460 218 L 458 279" stroke-miterlimit="10"/></g><g transform="translate(-6,-150) scale(1,1)"><path fill="none" stroke="#000000" d="M 454.1257665004705 268.7048402250804 L 458 279 L 462.54028051082724 268.98072593033794" stroke-miterlimit="10"/></g><g transform="translate(-6,-150) scale(1,1)"><rect fill="#C0C0C0" stroke="none" x="407" y="407" width="112.3017578125" height="57" opacity="0.2"/></g><g transform="translate(-6,-150) scale(1,1)"><rect fill="#ffffff" stroke="none" x="400" y="400" width="112.3017578125" height="57"/></g><g transform="translate(-6,-150) scale(1,1)"><path fill="none" stroke="#000000" d="M 400 400 L 512.3017578125 400 L 512.3017578125 457 L 400 457 L 400 400 Z Z" stroke-miterlimit="10"/></g><g transform="translate(-6,-150) scale(1,1)"><path fill="none" stroke="#000000" d="M 400 425 L 512.3017578125 425" stroke-miterlimit="10"/></g><g transform="translate(-6,-150) scale(1,1)"><path fill="none" stroke="#000000" d="M 400 435 L 512.3017578125 435" stroke-miterlimit="10"/></g><g transform="translate(-6,-150) scale(1,1)"><g><path fill="none" stroke="none"/><text fill="#000000" stroke="none" font-family="Arial" font-size="13px" font-style="normal" font-weight="bold" text-decoration="none" x="408.825927734375" y="419.5">StockRepository</text></g></g><g transform="translate(-6,-150) scale(1,1)"><g><path fill="none" stroke="none"/><text fill="#000000" stroke="none" font-family="Arial" font-size="13px" font-style="normal" font-weight="normal" text-decoration="none" x="405" y="452.5">+findAll()</text></g></g><g transform="translate(-6,-150) scale(1,1)"><path fill="none" stroke="#000000" d="M 457 351 L 456 399" stroke-miterlimit="10"/></g><g transform="translate(-6,-150) scale(1,1)"><path fill="none" stroke="#000000" d="M 452.0030719316576 388.75185060528014 L 456 399 L 460.42028099057944 388.92720912734103" stroke-miterlimit="10"/></g><g transform="translate(-6,-150) scale(1,1)"><rect fill="#C0C0C0" stroke="none" x="375" y="519" width="180" height="130" opacity="0.2"/></g><g transform="translate(-6,-150) scale(1,1)"><rect fill="#ffffff" stroke="none" x="368" y="512" width="180" height="130"/></g><g transform="translate(-6,-150) scale(1,1)"><path fill="none" stroke="#000000" d="M 368 512 L 548 512 L 548 642 L 368 642 L 368 512 Z Z" stroke-miterlimit="10"/></g><g transform="translate(-6,-150) scale(1,1)"><path fill="none" stroke="#000000" d="M 368 537 L 548 537" stroke-miterlimit="10"/></g><g transform="translate(-6,-150) scale(1,1)"><path fill="none" stroke="#000000" d="M 368 575 L 548 575" stroke-miterlimit="10"/></g><g transform="translate(-6,-150) scale(1,1)"><g><path fill="none" stroke="none"/><text fill="#000000" stroke="none" font-family="Arial" font-size="13px" font-style="normal" font-weight="bold" text-decoration="none" x="425.4873046875" y="531.5">StockEntity</text></g></g><g transform="translate(-6,-150) scale(1,1)"><g><path fill="none" stroke="none"/><text fill="#000000" stroke="none" font-family="Arial" font-size="13px" font-style="normal" font-weight="normal" text-decoration="none" x="373" y="554.5">-String  stockId</text></g></g><g transform="translate(-6,-150) scale(1,1)"><g><path fill="none" stroke="none"/><text fill="#000000" stroke="none" font-family="Arial" font-size="13px" font-style="normal" font-weight="normal" text-decoration="none" x="373" y="569.5">-String stockDescription</text></g></g><g transform="translate(-6,-150) scale(1,1)"><g><path fill="none" stroke="none"/><text fill="#000000" stroke="none" font-family="Arial" font-size="13px" font-style="normal" font-weight="normal" text-decoration="none" x="373" y="592.5">+String getStockId()</text></g></g><g transform="translate(-6,-150) scale(1,1)"><g><path fill="none" stroke="none"/><text fill="#000000" stroke="none" font-family="Arial" font-size="13px" font-style="normal" font-weight="normal" text-decoration="none" x="373" y="607.5">+void setStockId()</text></g></g><g transform="translate(-6,-150) scale(1,1)"><g><path fill="none" stroke="none"/><text fill="#000000" stroke="none" font-family="Arial" font-size="13px" font-style="normal" font-weight="normal" text-decoration="none" x="373" y="622.5">+String getStockDescription()</text></g></g><g transform="translate(-6,-150) scale(1,1)"><g><path fill="none" stroke="none"/><text fill="#000000" stroke="none" font-family="Arial" font-size="13px" font-style="normal" font-weight="normal" text-decoration="none" x="373" y="637.5">+void setStockDescription()</text></g></g><g transform="translate(-6,-150) scale(1,1)"><path fill="none" stroke="#000000" d="M 456 458 L 457 511" stroke-miterlimit="10"/></g><g transform="translate(-6,-150) scale(1,1)"><path fill="none" stroke="#000000" d="M 452.5995168749283 500.91854433794606 L 457 511 L 461.0170542046347 500.759722878895" stroke-miterlimit="10"/></g><g transform="translate(-6,-150) scale(1,1)"><rect fill="#C0C0C0" stroke="none" x="647" y="255" width="180" height="130" opacity="0.2"/></g><g transform="translate(-6,-150) scale(1,1)"><rect fill="#ffffff" stroke="none" x="640" y="248" width="180" height="130"/></g><g transform="translate(-6,-150) scale(1,1)"><path fill="none" stroke="#000000" d="M 640 248 L 820 248 L 820 378 L 640 378 L 640 248 Z Z" stroke-miterlimit="10"/></g><g transform="translate(-6,-150) scale(1,1)"><path fill="none" stroke="#000000" d="M 640 273 L 820 273" stroke-miterlimit="10"/></g><g transform="translate(-6,-150) scale(1,1)"><path fill="none" stroke="#000000" d="M 640 311 L 820 311" stroke-miterlimit="10"/></g><g transform="translate(-6,-150) scale(1,1)"><g><path fill="none" stroke="none"/><text fill="#000000" stroke="none" font-family="Arial" font-size="13px" font-style="normal" font-weight="bold" text-decoration="none" x="703.628662109375" y="267.5">StockDto</text></g></g><g transform="translate(-6,-150) scale(1,1)"><g><path fill="none" stroke="none"/><text fill="#000000" stroke="none" font-family="Arial" font-size="13px" font-style="normal" font-weight="normal" text-decoration="none" x="645" y="290.5">-String  stockId</text></g></g><g transform="translate(-6,-150) scale(1,1)"><g><path fill="none" stroke="none"/><text fill="#000000" stroke="none" font-family="Arial" font-size="13px" font-style="normal" font-weight="normal" text-decoration="none" x="645" y="305.5">-String stockDescription</text></g></g><g transform="translate(-6,-150) scale(1,1)"><g><path fill="none" stroke="none"/><text fill="#000000" stroke="none" font-family="Arial" font-size="13px" font-style="normal" font-weight="normal" text-decoration="none" x="645" y="328.5">+String getStockId()</text></g></g><g transform="translate(-6,-150) scale(1,1)"><g><path fill="none" stroke="none"/><text fill="#000000" stroke="none" font-family="Arial" font-size="13px" font-style="normal" font-weight="normal" text-decoration="none" x="645" y="343.5">+void setStockId()</text></g></g><g transform="translate(-6,-150) scale(1,1)"><g><path fill="none" stroke="none"/><text fill="#000000" stroke="none" font-family="Arial" font-size="13px" font-style="normal" font-weight="normal" text-decoration="none" x="645" y="358.5">+String getStockDescription()</text></g></g><g transform="translate(-6,-150) scale(1,1)"><g><path fill="none" stroke="none"/><text fill="#000000" stroke="none" font-family="Arial" font-size="13px" font-style="normal" font-weight="normal" text-decoration="none" x="645" y="373.5">+void setStockDescription()</text></g></g><g transform="translate(-6,-150) scale(1,1)"><path fill="none" stroke="#000000" d="M 564 314 L 639 314" stroke-miterlimit="10"/></g><g transform="translate(-6,-150) scale(1,1)"><path fill="none" stroke="#000000" d="M 628.8373251423759 318.209517756016 L 639 314 L 628.8373251423758 309.790482243984" stroke-miterlimit="10"/></g><g transform="translate(-6,-150) scale(1,1)"><path fill="none" stroke="#000000" d="M 407 218 L 310 271" stroke-miterlimit="10" stroke-dasharray="3"/></g><g transform="translate(-6,-150) scale(1,1)"><path fill="none" stroke="#000000" d="M 407 191 L 292 197" stroke-miterlimit="10" stroke-dasharray="3"/></g><g transform="translate(-6,-150) scale(1,1)"><rect fill="#C0C0C0" stroke="none" x="103" y="263" width="50.919921875" height="44" opacity="0.2"/></g><g transform="translate(-6,-150) scale(1,1)"><rect fill="#ffffff" stroke="none" x="96" y="256" width="50.919921875" height="44"/></g><g transform="translate(-6,-150) scale(1,1)"><path fill="none" stroke="#000000" d="M 96 256 L 146.919921875 256 L 146.919921875 300 L 96 300 L 96 256 Z Z" stroke-miterlimit="10"/></g><g transform="translate(-6,-150) scale(1,1)"><path fill="none" stroke="#000000" d="M 96 281 L 146.919921875 281" stroke-miterlimit="10"/></g><g transform="translate(-6,-150) scale(1,1)"><path fill="none" stroke="#000000" d="M 96 291 L 146.919921875 291" stroke-miterlimit="10"/></g><g transform="translate(-6,-150) scale(1,1)"><g><path fill="none" stroke="none"/><text fill="#000000" stroke="none" font-family="Arial" font-size="13px" font-style="normal" font-weight="bold" text-decoration="none" x="101.591796875" y="275.5">Class2</text></g></g><g transform="translate(-6,-150) scale(1,1)"><rect fill="#C0C0C0" stroke="none" x="199" y="183" width="50.919921875" height="44" opacity="0.2"/></g><g transform="translate(-6,-150) scale(1,1)"><rect fill="#ffffff" stroke="none" x="192" y="176" width="50.919921875" height="44"/></g><g transform="translate(-6,-150) scale(1,1)"><path fill="none" stroke="#000000" d="M 192 176 L 242.919921875 176 L 242.919921875 220 L 192 220 L 192 176 Z Z" stroke-miterlimit="10"/></g><g transform="translate(-6,-150) scale(1,1)"><path fill="none" stroke="#000000" d="M 192 201 L 242.919921875 201" stroke-miterlimit="10"/></g><g transform="translate(-6,-150) scale(1,1)"><path fill="none" stroke="#000000" d="M 192 211 L 242.919921875 211" stroke-miterlimit="10"/></g><g transform="translate(-6,-150) scale(1,1)"><g><path fill="none" stroke="none"/><text fill="#000000" stroke="none" font-family="Arial" font-size="13px" font-style="normal" font-weight="bold" text-decoration="none" x="197.591796875" y="195.5">Class3</text></g></g><g transform="translate(-6,-150) scale(1,1)"><path fill="none" stroke="#000000" d="M 148 256 L 191 220" stroke-miterlimit="10"/></g><g transform="translate(-6,-150) scale(1,1)"><path fill="none" stroke="#000000" d="M 185.90993482838573 229.75147355781266 L 191 220 L 180.50544732117945 223.2961134797607" stroke-miterlimit="10"/></g><g transform="translate(-6,-150) scale(1,1)"><path fill="#ffffff" stroke="none" d="M 192 176 L 280 176 L 290 186 L 290 224 L 192 224 L 192 176"/></g><g transform="translate(-6,-150) scale(1,1)"><path fill="none" stroke="#000000" d="M 192 176 L 280 176 L 290 186 L 290 224 L 192 224 L 192 176 L 192 176" stroke-miterlimit="10"/></g><g transform="translate(-6,-150) scale(1,1)"><path fill="none" stroke="#000000" d="M 280 176 L 280 186 L 290 186 L 280 176" stroke-miterlimit="10"/></g><g transform="translate(-6,-150) scale(1,1)"><g><path fill="none" stroke="none"/><text fill="#000000" stroke="none" font-family="Arial" font-size="13px" font-style="normal" font-weight="normal" text-decoration="none" x="197" y="194">URL request</text></g></g><g transform="translate(-6,-150) scale(1,1)"><rect fill="#C0C0C0" stroke="none" x="223" y="279" width="50.919921875" height="44" opacity="0.2"/></g><g transform="translate(-6,-150) scale(1,1)"><rect fill="#ffffff" stroke="none" x="216" y="272" width="50.919921875" height="44"/></g><g transform="translate(-6,-150) scale(1,1)"><path fill="none" stroke="#000000" d="M 216 272 L 266.919921875 272 L 266.919921875 316 L 216 316 L 216 272 Z Z" stroke-miterlimit="10"/></g><g transform="translate(-6,-150) scale(1,1)"><path fill="none" stroke="#000000" d="M 216 297 L 266.919921875 297" stroke-miterlimit="10"/></g><g transform="translate(-6,-150) scale(1,1)"><path fill="none" stroke="#000000" d="M 216 307 L 266.919921875 307" stroke-miterlimit="10"/></g><g transform="translate(-6,-150) scale(1,1)"><g><path fill="none" stroke="none"/><text fill="#000000" stroke="none" font-family="Arial" font-size="13px" font-style="normal" font-weight="bold" text-decoration="none" x="221.591796875" y="291.5">Class4</text></g></g><g transform="translate(-6,-150) scale(1,1)"><path fill="none" stroke="#000000" d="M 215 291 L 148 282" stroke-miterlimit="10"/></g><g transform="translate(-6,-150) scale(1,1)"><path fill="none" stroke="#000000" d="M 158.63263315112508 279.18093769604224 L 148 282 L 157.51178507474538 287.5250289313135" stroke-miterlimit="10"/></g><g transform="translate(-6,-150) scale(1,1)"><path fill="#ffffff" stroke="none" d="M 216 272 L 304 272 L 314 282 L 314 320 L 216 320 L 216 272"/></g><g transform="translate(-6,-150) scale(1,1)"><path fill="none" stroke="#000000" d="M 216 272 L 304 272 L 314 282 L 314 320 L 216 320 L 216 272 L 216 272" stroke-miterlimit="10"/></g><g transform="translate(-6,-150) scale(1,1)"><path fill="none" stroke="#000000" d="M 304 272 L 304 282 L 314 282 L 304 272" stroke-miterlimit="10"/></g><g transform="translate(-6,-150) scale(1,1)"><g><path fill="none" stroke="none"/><text fill="#000000" stroke="none" font-family="Arial" font-size="13px" font-style="normal" font-weight="normal" text-decoration="none" x="221" y="290">Json</text><text fill="#000000" stroke="none" font-family="Arial" font-size="13px" font-style="normal" font-weight="normal" text-decoration="none" x="221" y="303">Response</text></g></g><g transform="translate(-6,-150) scale(1,1)"><rect fill="#C0C0C0" stroke="none" x="33" y="263" width="118" height="44" opacity="0.2"/></g><g transform="translate(-6,-150) scale(1,1)"><rect fill="#ffffff" stroke="none" x="26" y="256" width="118" height="44"/></g><g transform="translate(-6,-150) scale(1,1)"><path fill="none" stroke="#000000" d="M 26 256 L 144 256 L 144 300 L 26 300 L 26 256 Z Z" stroke-miterlimit="10"/></g><g transform="translate(-6,-150) scale(1,1)"><rect fill="#ffffff" stroke="none" x="16" y="263" width="20" height="10"/></g><g transform="translate(-6,-150) scale(1,1)"><path fill="none" stroke="#000000" d="M 16 263 L 36 263 L 36 273 L 16 273 L 16 263 Z Z" stroke-miterlimit="10"/></g><g transform="translate(-6,-150) scale(1,1)"><rect fill="#ffffff" stroke="none" x="16" y="283" width="20" height="10"/></g><g transform="translate(-6,-150) scale(1,1)"><path fill="none" stroke="#000000" d="M 16 283 L 36 283 L 36 293 L 16 293 L 16 283 Z Z" stroke-miterlimit="10"/></g><g transform="translate(-6,-150) scale(1,1)"><g><path fill="none" stroke="none"/><text fill="#000000" stroke="none" font-family="Arial" font-size="13px" font-style="normal" font-weight="bold" text-decoration="none" x="65.069580078125" y="275.5">WebApp</text><path fill="none" stroke="#000000" d="M 116.35546875 275.5 L 63.64453125 275.5" stroke-miterlimit="10"/></g></g></g></svg>