<svg version="1.1" xmlns="http://www.w3.org/2000/svg" xmlns:xlink="http://www.w3.org/1999/xlink" width="784.3515625" height="475"><defs/><g><g transform="translate(-86,-54) scale(1,1)"><rect fill="#C0C0C0" stroke="none" x="103" y="231" width="117.7734375" height="147" opacity="0.2"/></g><g transform="translate(-86,-54) scale(1,1)"><rect fill="#ffffff" stroke="none" x="96" y="224" width="117.7734375" height="147"/></g><g transform="translate(-86,-54) scale(1,1)"><path fill="none" stroke="#000000" d="M 96 224 L 213.7734375 224 L 213.7734375 371 L 96 371 L 96 224 Z Z" stroke-miterlimit="10"/></g><g transform="translate(-86,-54) scale(1,1)"><path fill="none" stroke="#000000" d="M 96 249 L 213.7734375 249" stroke-miterlimit="10"/></g><g transform="translate(-86,-54) scale(1,1)"><path fill="none" stroke="#000000" d="M 96 362 L 213.7734375 362" stroke-miterlimit="10"/></g><g transform="translate(-86,-54) scale(1,1)"><g><path fill="none" stroke="none"/><text fill="#000000" stroke="none" font-family="Arial" font-size="13px" font-style="normal" font-weight="bold" text-decoration="none" x="126.712646484375" y="243.5">Customer</text></g></g><g transform="translate(-86,-54) scale(1,1)"><g><path fill="none" stroke="none"/><text fill="#000000" stroke="none" font-family="Arial" font-size="13px" font-style="normal" font-weight="normal" text-decoration="none" x="101" y="266.5">+idCustomer: int</text></g></g><g transform="translate(-86,-54) scale(1,1)"><g><path fill="none" stroke="none"/><text fill="#000000" stroke="none" font-family="Arial" font-size="13px" font-style="normal" font-weight="normal" text-decoration="none" x="101" y="281.5">+lastname: string</text></g></g><g transform="translate(-86,-54) scale(1,1)"><g><path fill="none" stroke="none"/><text fill="#000000" stroke="none" font-family="Arial" font-size="13px" font-style="normal" font-weight="normal" text-decoration="none" x="101" y="296.5">+firstname: string</text></g></g><g transform="translate(-86,-54) scale(1,1)"><g><path fill="none" stroke="none"/><text fill="#000000" stroke="none" font-family="Arial" font-size="13px" font-style="normal" font-weight="normal" text-decoration="none" x="101" y="311.5">+birthdayDate: int</text></g></g><g transform="translate(-86,-54) scale(1,1)"><g><path fill="none" stroke="none"/><text fill="#000000" stroke="none" font-family="Arial" font-size="13px" font-style="normal" font-weight="normal" text-decoration="none" x="101" y="326.5">+email: string</text></g></g><g transform="translate(-86,-54) scale(1,1)"><g><path fill="none" stroke="none"/><text fill="#000000" stroke="none" font-family="Arial" font-size="13px" font-style="normal" font-weight="normal" text-decoration="none" x="101" y="341.5">+phonenumber: int</text></g></g><g transform="translate(-86,-54) scale(1,1)"><g><path fill="none" stroke="none"/><text fill="#000000" stroke="none" font-family="Arial" font-size="13px" font-style="normal" font-weight="normal" text-decoration="none" x="101" y="356.5">+address: string</text></g></g><g transform="translate(-86,-54) scale(1,1)"><rect fill="#C0C0C0" stroke="none" x="420" y="241" width="130.037109375" height="102" opacity="0.2"/></g><g transform="translate(-86,-54) scale(1,1)"><rect fill="#ffffff" stroke="none" x="413" y="234" width="130.037109375" height="102"/></g><g transform="translate(-86,-54) scale(1,1)"><path fill="none" stroke="#000000" d="M 413 234 L 543.037109375 234 L 543.037109375 336 L 413 336 L 413 234 Z Z" stroke-miterlimit="10"/></g><g transform="translate(-86,-54) scale(1,1)"><path fill="none" stroke="#000000" d="M 413 259 L 543.037109375 259" stroke-miterlimit="10"/></g><g transform="translate(-86,-54) scale(1,1)"><path fill="none" stroke="#000000" d="M 413 327 L 543.037109375 327" stroke-miterlimit="10"/></g><g transform="translate(-86,-54) scale(1,1)"><g><path fill="none" stroke="none"/><text fill="#000000" stroke="none" font-family="Arial" font-size="13px" font-style="normal" font-weight="bold" text-decoration="none" x="454.5322265625" y="253.5">Account</text></g></g><g transform="translate(-86,-54) scale(1,1)"><g><path fill="none" stroke="none"/><text fill="#000000" stroke="none" font-family="Arial" font-size="13px" font-style="normal" font-weight="normal" text-decoration="none" x="418" y="276.5">+idAccount: int</text></g></g><g transform="translate(-86,-54) scale(1,1)"><g><path fill="none" stroke="none"/><text fill="#000000" stroke="none" font-family="Arial" font-size="13px" font-style="normal" font-weight="normal" text-decoration="none" x="418" y="291.5">+accountNumber: int</text></g></g><g transform="translate(-86,-54) scale(1,1)"><g><path fill="none" stroke="none"/><text fill="#000000" stroke="none" font-family="Arial" font-size="13px" font-style="normal" font-weight="normal" text-decoration="none" x="418" y="306.5">+accountType: string</text></g></g><g transform="translate(-86,-54) scale(1,1)"><g><path fill="none" stroke="none"/><text fill="#000000" stroke="none" font-family="Arial" font-size="13px" font-style="normal" font-weight="normal" text-decoration="none" x="418" y="321.5">+creationDate: date</text></g></g><g transform="translate(-86,-54) scale(1,1)"><rect fill="#C0C0C0" stroke="none" x="263" y="439" width="116.3388671875" height="87" opacity="0.2"/></g><g transform="translate(-86,-54) scale(1,1)"><rect fill="#ffffff" stroke="none" x="256" y="432" width="116.3388671875" height="87"/></g><g transform="translate(-86,-54) scale(1,1)"><path fill="none" stroke="#000000" d="M 256 432 L 372.3388671875 432 L 372.3388671875 519 L 256 519 L 256 432 Z Z" stroke-miterlimit="10"/></g><g transform="translate(-86,-54) scale(1,1)"><path fill="none" stroke="#000000" d="M 256 457 L 372.3388671875 457" stroke-miterlimit="10"/></g><g transform="translate(-86,-54) scale(1,1)"><path fill="none" stroke="#000000" d="M 256 510 L 372.3388671875 510" stroke-miterlimit="10"/></g><g transform="translate(-86,-54) scale(1,1)"><g><path fill="none" stroke="none"/><text fill="#000000" stroke="none" font-family="Arial" font-size="13px" font-style="normal" font-weight="bold" text-decoration="none" x="290.679931640625" y="451.5">Balance</text></g></g><g transform="translate(-86,-54) scale(1,1)"><g><path fill="none" stroke="none"/><text fill="#000000" stroke="none" font-family="Arial" font-size="13px" font-style="normal" font-weight="normal" text-decoration="none" x="261" y="474.5">+idBalance: int</text></g></g><g transform="translate(-86,-54) scale(1,1)"><g><path fill="none" stroke="none"/><text fill="#000000" stroke="none" font-family="Arial" font-size="13px" font-style="normal" font-weight="normal" text-decoration="none" x="261" y="489.5">+updateDate: date</text></g></g><g transform="translate(-86,-54) scale(1,1)"><g><path fill="none" stroke="none"/><text fill="#000000" stroke="none" font-family="Arial" font-size="13px" font-style="normal" font-weight="normal" text-decoration="none" x="261" y="504.5">+balance: int</text></g></g><g transform="translate(-86,-54) scale(1,1)"><path fill="none" stroke="#000000" d="M 215 295 L 412 287" stroke-miterlimit="10"/></g><g transform="translate(-86,-54) scale(1,1)"><path fill="none" stroke="#000000" d="M 433 337 L 352 431" stroke-miterlimit="10"/></g><g transform="translate(-86,-54) scale(1,1)"><g><path fill="none" stroke="none"/><text fill="#000000" stroke="none" font-family="Arial" font-size="13px" font-style="normal" font-weight="normal" text-decoration="none" x="221" y="282">1</text></g></g><g transform="translate(-86,-54) scale(1,1)"><g><path fill="none" stroke="none"/><text fill="#000000" stroke="none" font-family="Arial" font-size="13px" font-style="normal" font-weight="normal" text-decoration="none" x="429" y="362">1</text></g></g><g transform="translate(-86,-54) scale(1,1)"><g><path fill="none" stroke="none"/><text fill="#000000" stroke="none" font-family="Arial" font-size="13px" font-style="normal" font-weight="normal" text-decoration="none" x="389" y="426">1..*</text></g></g><g transform="translate(-86,-54) scale(1,1)"><g><path fill="none" stroke="none"/><text fill="#000000" stroke="none" font-family="Arial" font-size="13px" font-style="normal" font-weight="normal" text-decoration="none" x="386" y="284">1..*</text></g></g><g transform="translate(-86,-54) scale(1,1)"><rect fill="#C0C0C0" stroke="none" x="655" y="319" width="174.83251953125" height="72" opacity="0.2"/></g><g transform="translate(-86,-54) scale(1,1)"><rect fill="#ffffff" stroke="none" x="648" y="312" width="174.83251953125" height="72"/></g><g transform="translate(-86,-54) scale(1,1)"><path fill="none" stroke="#000000" d="M 648 312 L 822.83251953125 312 L 822.83251953125 384 L 648 384 L 648 312 Z Z" stroke-miterlimit="10"/></g><g transform="translate(-86,-54) scale(1,1)"><path fill="none" stroke="#000000" d="M 648 337 L 822.83251953125 337" stroke-miterlimit="10"/></g><g transform="translate(-86,-54) scale(1,1)"><path fill="none" stroke="#000000" d="M 648 347 L 822.83251953125 347" stroke-miterlimit="10"/></g><g transform="translate(-86,-54) scale(1,1)"><g><path fill="none" stroke="none"/><text fill="#000000" stroke="none" font-family="Arial" font-size="13px" font-style="normal" font-weight="bold" text-decoration="none" x="690.255859375" y="331.5">AccountService</text></g></g><g transform="translate(-86,-54) scale(1,1)"><g><path fill="none" stroke="none"/><text fill="#000000" stroke="none" font-family="Arial" font-size="13px" font-style="normal" font-weight="normal" text-decoration="none" x="653" y="364.5">+GetAccountById(): Optional</text></g></g><g transform="translate(-86,-54) scale(1,1)"><g><path fill="none" stroke="none"/><text fill="#000000" stroke="none" font-family="Arial" font-size="13px" font-style="normal" font-weight="normal" text-decoration="none" x="653" y="379.5">+GetAll(): List</text></g></g><g transform="translate(-86,-54) scale(1,1)"><rect fill="#C0C0C0" stroke="none" x="647" y="191" width="220.3515625" height="72" opacity="0.2"/></g><g transform="translate(-86,-54) scale(1,1)"><rect fill="#ffffff" stroke="none" x="640" y="184" width="220.3515625" height="72"/></g><g transform="translate(-86,-54) scale(1,1)"><path fill="none" stroke="#000000" d="M 640 184 L 860.3515625 184 L 860.3515625 256 L 640 256 L 640 184 Z Z" stroke-miterlimit="10"/></g><g transform="translate(-86,-54) scale(1,1)"><path fill="none" stroke="#000000" d="M 640 209 L 860.3515625 209" stroke-miterlimit="10"/></g><g transform="translate(-86,-54) scale(1,1)"><path fill="none" stroke="#000000" d="M 640 219 L 860.3515625 219" stroke-miterlimit="10"/></g><g transform="translate(-86,-54) scale(1,1)"><g><path fill="none" stroke="none"/><text fill="#000000" stroke="none" font-family="Arial" font-size="13px" font-style="normal" font-weight="bold" text-decoration="none" x="698.51220703125" y="203.5">AccountController</text></g></g><g transform="translate(-86,-54) scale(1,1)"><g><path fill="none" stroke="none"/><text fill="#000000" stroke="none" font-family="Arial" font-size="13px" font-style="normal" font-weight="normal" text-decoration="none" x="645" y="236.5">+GetAccountById(): ResponseEntitiy</text></g></g><g transform="translate(-86,-54) scale(1,1)"><g><path fill="none" stroke="none"/><text fill="#000000" stroke="none" font-family="Arial" font-size="13px" font-style="normal" font-weight="normal" text-decoration="none" x="645" y="251.5">+GetAll(): ResponseEntitiy</text></g></g><g transform="translate(-86,-54) scale(1,1)"><rect fill="#C0C0C0" stroke="none" x="647" y="455" width="128.90087890625" height="57" opacity="0.2"/></g><g transform="translate(-86,-54) scale(1,1)"><rect fill="#ffffff" stroke="none" x="640" y="448" width="128.90087890625" height="57"/></g><g transform="translate(-86,-54) scale(1,1)"><path fill="none" stroke="#000000" d="M 640 448 L 768.90087890625 448 L 768.90087890625 505 L 640 505 L 640 448 Z Z" stroke-miterlimit="10"/></g><g transform="translate(-86,-54) scale(1,1)"><path fill="none" stroke="#000000" d="M 640 473 L 768.90087890625 473" stroke-miterlimit="10"/></g><g transform="translate(-86,-54) scale(1,1)"><path fill="none" stroke="#000000" d="M 640 483 L 768.90087890625 483" stroke-miterlimit="10"/></g><g transform="translate(-86,-54) scale(1,1)"><g><path fill="none" stroke="none"/><text fill="#000000" stroke="none" font-family="Arial" font-size="13px" font-style="normal" font-weight="bold" text-decoration="none" x="649.8955078125" y="467.5">AccountRepository</text></g></g><g transform="translate(-86,-54) scale(1,1)"><g><path fill="none" stroke="none"/><text fill="#000000" stroke="none" font-family="Arial" font-size="13px" font-style="normal" font-weight="normal" text-decoration="none" x="645" y="500.5">+FindAll(): List</text></g></g><g transform="translate(-86,-54) scale(1,1)"><rect fill="#C0C0C0" stroke="none" x="631" y="71" width="187.115234375" height="57" opacity="0.2"/></g><g transform="translate(-86,-54) scale(1,1)"><rect fill="#ffffff" stroke="none" x="624" y="64" width="187.115234375" height="57"/></g><g transform="translate(-86,-54) scale(1,1)"><path fill="none" stroke="#000000" d="M 624 64 L 811.115234375 64 L 811.115234375 121 L 624 121 L 624 64 Z Z" stroke-miterlimit="10"/></g><g transform="translate(-86,-54) scale(1,1)"><path fill="none" stroke="#000000" d="M 624 89 L 811.115234375 89" stroke-miterlimit="10"/></g><g transform="translate(-86,-54) scale(1,1)"><path fill="none" stroke="#000000" d="M 624 99 L 811.115234375 99" stroke-miterlimit="10"/></g><g transform="translate(-86,-54) scale(1,1)"><g><path fill="none" stroke="none"/><text fill="#000000" stroke="none" font-family="Arial" font-size="13px" font-style="normal" font-weight="bold" text-decoration="none" x="639.15771484375" y="83.5">AccountController WebApp</text></g></g><g transform="translate(-86,-54) scale(1,1)"><g><path fill="none" stroke="none"/><text fill="#000000" stroke="none" font-family="Arial" font-size="13px" font-style="normal" font-weight="normal" text-decoration="none" x="629" y="116.5">+GetAccount(): ModelAndView</text></g></g><g transform="translate(-86,-54) scale(1,1)"><path fill="none" stroke="#000000" d="M 740 183 L 725 122" stroke-miterlimit="10"/></g><g transform="translate(-86,-54) scale(1,1)"><path fill="#FFFFFF" stroke="none" d="M 731.5144695706629 130.8635030441078 L 725 122 L 723.3389825016928 132.87386871680533 L 730.2533386676107 143.36357724828372"/></g><g transform="translate(-86,-54) scale(1,1)"><path fill="none" stroke="#000000" d="M 731.5144695706629 130.8635030441078 L 725 122 L 723.3389825016928 132.87386871680533 L 730.2533386676107 143.36357724828372 L 731.5144695706629 130.8635030441078" stroke-miterlimit="10"/></g><g transform="translate(-86,-54) scale(1,1)"><path fill="none" stroke="#000000" d="M 540 337 L 670 447" stroke-miterlimit="10"/></g><g transform="translate(-86,-54) scale(1,1)"><path fill="none" stroke="#000000" d="M 711 447 L 726 385" stroke-miterlimit="10"/></g><g transform="translate(-86,-54) scale(1,1)"><path fill="#FFFFFF" stroke="none" d="M 727.7017113475454 395.867574636948 L 726 385 L 719.5187559126346 393.8878273543083 L 720.8266710413766 406.38309302897665"/></g><g transform="translate(-86,-54) scale(1,1)"><path fill="none" stroke="#000000" d="M 727.7017113475454 395.867574636948 L 726 385 L 719.5187559126346 393.8878273543083 L 720.8266710413766 406.38309302897665 L 727.7017113475454 395.867574636948" stroke-miterlimit="10"/></g><g transform="translate(-86,-54) scale(1,1)"><path fill="none" stroke="#000000" d="M 739 311 L 746 257" stroke-miterlimit="10"/></g><g transform="translate(-86,-54) scale(1,1)"><path fill="#FFFFFF" stroke="none" d="M 748.8681365157598 267.619500596872 L 746 257 L 740.5189578947998 266.53719966452536 L 743.1718113698893 278.81745514656814"/></g><g transform="translate(-86,-54) scale(1,1)"><path fill="none" stroke="#000000" d="M 748.8681365157598 267.619500596872 L 746 257 L 740.5189578947998 266.53719966452536 L 743.1718113698893 278.81745514656814 L 748.8681365157598 267.619500596872" stroke-miterlimit="10"/></g><g transform="translate(-86,-54) scale(1,1)"><g><path fill="none" stroke="none"/><text fill="#000000" stroke="none" font-family="Arial" font-size="13px" font-style="normal" font-weight="normal" text-decoration="none" x="549" y="332">1..*</text></g></g></g></svg>