<svg version="1.1" xmlns="http://www.w3.org/2000/svg" xmlns:xlink="http://www.w3.org/1999/xlink" width="608.44091796875" height="575"><defs/><g><g transform="translate(-238,-70) scale(1,1)"><rect fill="#C0C0C0" stroke="none" x="265" y="87" width="123.0126953125" height="44" opacity="0.2"/></g><g transform="translate(-238,-70) scale(1,1)"><rect fill="#ffffff" stroke="none" x="258" y="80" width="123.0126953125" height="44"/></g><g transform="translate(-238,-70) scale(1,1)"><path fill="none" stroke="#000000" d="M 258 80 L 381.0126953125 80 L 381.0126953125 124 L 258 124 L 258 80 Z Z" stroke-miterlimit="10"/></g><g transform="translate(-238,-70) scale(1,1)"><rect fill="#ffffff" stroke="none" x="248" y="87" width="20" height="10"/></g><g transform="translate(-238,-70) scale(1,1)"><path fill="none" stroke="#000000" d="M 248 87 L 268 87 L 268 97 L 248 97 L 248 87 Z Z" stroke-miterlimit="10"/></g><g transform="translate(-238,-70) scale(1,1)"><rect fill="#ffffff" stroke="none" x="248" y="107" width="20" height="10"/></g><g transform="translate(-238,-70) scale(1,1)"><path fill="none" stroke="#000000" d="M 248 107 L 268 107 L 268 117 L 248 117 L 248 107 Z Z" stroke-miterlimit="10"/></g><g transform="translate(-238,-70) scale(1,1)"><g><path fill="none" stroke="none"/><text fill="#000000" stroke="none" font-family="Arial" font-size="13px" font-style="normal" font-weight="bold" text-decoration="none" x="276.44189453125" y="99.5">AlphAvanageApi</text></g></g><g transform="translate(-238,-70) scale(1,1)"><rect fill="#C0C0C0" stroke="none" x="529" y="95" width="103.50634765625" height="44" opacity="0.2"/></g><g transform="translate(-238,-70) scale(1,1)"><rect fill="#ffffff" stroke="none" x="522" y="88" width="103.50634765625" height="44"/></g><g transform="translate(-238,-70) scale(1,1)"><path fill="none" stroke="#000000" d="M 522 88 L 625.50634765625 88 L 625.50634765625 132 L 522 132 L 522 88 Z Z" stroke-miterlimit="10"/></g><g transform="translate(-238,-70) scale(1,1)"><rect fill="#ffffff" stroke="none" x="512" y="95" width="20" height="10"/></g><g transform="translate(-238,-70) scale(1,1)"><path fill="none" stroke="#000000" d="M 512 95 L 532 95 L 532 105 L 512 105 L 512 95 Z Z" stroke-miterlimit="10"/></g><g transform="translate(-238,-70) scale(1,1)"><rect fill="#ffffff" stroke="none" x="512" y="115" width="20" height="10"/></g><g transform="translate(-238,-70) scale(1,1)"><path fill="none" stroke="#000000" d="M 512 115 L 532 115 L 532 125 L 512 125 L 512 115 Z Z" stroke-miterlimit="10"/></g><g transform="translate(-238,-70) scale(1,1)"><g><path fill="none" stroke="none"/><text fill="#000000" stroke="none" font-family="Arial" font-size="13px" font-style="normal" font-weight="bold" text-decoration="none" x="540.0927734375" y="107.5">IExtradingApi</text></g></g><g transform="translate(-238,-70) scale(1,1)"><rect fill="#C0C0C0" stroke="none" x="369" y="319" width="142.5888671875" height="44" opacity="0.2"/></g><g transform="translate(-238,-70) scale(1,1)"><rect fill="#ffffff" stroke="none" x="362" y="312" width="142.5888671875" height="44"/></g><g transform="translate(-238,-70) scale(1,1)"><path fill="none" stroke="#000000" d="M 362 312 L 504.5888671875 312 L 504.5888671875 356 L 362 356 L 362 312 Z Z" stroke-miterlimit="10"/></g><g transform="translate(-238,-70) scale(1,1)"><rect fill="#ffffff" stroke="none" x="352" y="319" width="20" height="10"/></g><g transform="translate(-238,-70) scale(1,1)"><path fill="none" stroke="#000000" d="M 352 319 L 372 319 L 372 329 L 352 329 L 352 319 Z Z" stroke-miterlimit="10"/></g><g transform="translate(-238,-70) scale(1,1)"><rect fill="#ffffff" stroke="none" x="352" y="339" width="20" height="10"/></g><g transform="translate(-238,-70) scale(1,1)"><path fill="none" stroke="#000000" d="M 352 339 L 372 339 L 372 349 L 352 349 L 352 339 Z Z" stroke-miterlimit="10"/></g><g transform="translate(-238,-70) scale(1,1)"><g><path fill="none" stroke="none"/><text fill="#000000" stroke="none" font-family="Arial" font-size="13px" font-style="normal" font-weight="bold" text-decoration="none" x="380.495849609375" y="331.5">data-access-service</text></g></g><g transform="translate(-238,-70) scale(1,1)"><path fill="none" stroke="#000000" d="M 415 311 L 367.42105263157896 215" stroke-miterlimit="10"/></g><g transform="translate(-238,-70) scale(1,1)"><path fill="#C0C0C0" stroke="none" d="M 358.7099609375 210.5 C 358.7099609375 204.1487248 363.8586857375 199 370.2099609375 199 C 376.5612361375 199 381.7099609375 204.1487248 381.7099609375 210.5 C 381.7099609375 216.8512752 376.5612361375 222 370.2099609375 222 C 363.8586857375 222 358.7099609375 216.8512752 358.7099609375 210.5 Z" opacity="0.2"/></g><g transform="translate(-238,-70) scale(1,1)"><path fill="none" stroke="#000000" d="M 373.79094584339674 199.02438837348538 A 11.5 11.5 0 0 1 352.20905415660326 206.97561162651462" stroke-miterlimit="10"/></g><g transform="translate(-238,-70) scale(1,1)"><path fill="#ffffff" stroke="none" d="M 354.7099609375 203.5 C 354.7099609375 198.8055792 358.5155401375 195 363.2099609375 195 C 367.9043817375 195 371.7099609375 198.8055792 371.7099609375 203.5 C 371.7099609375 208.1944208 367.9043817375 212 363.2099609375 212 C 358.5155401375 212 354.7099609375 208.1944208 354.7099609375 203.5 Z"/></g><g transform="translate(-238,-70) scale(1,1)"><path fill="none" stroke="#000000" d="M 354.7099609375 203.5 C 354.7099609375 198.8055792 358.5155401375 195 363.2099609375 195 C 367.9043817375 195 371.7099609375 198.8055792 371.7099609375 203.5 C 371.7099609375 208.1944208 367.9043817375 212 363.2099609375 212 C 358.5155401375 212 354.7099609375 208.1944208 354.7099609375 203.5 Z" stroke-miterlimit="10"/></g><g transform="translate(-238,-70) scale(1,1)"><g><path fill="none" stroke="none"/><text fill="#000000" stroke="none" font-family="Arial" font-size="13px" font-style="normal" font-weight="bold" text-decoration="none" x="345.87451171875" y="234.5">REST</text></g></g><g transform="translate(-238,-70) scale(1,1)"><path fill="none" stroke="#000000" d="M 324 125 L 352.9166666666667 192" stroke-miterlimit="10"/></g><g transform="translate(-238,-70) scale(1,1)"><path fill="none" stroke="#000000" d="M 447 311 L 519.3684210526316 215" stroke-miterlimit="10"/></g><g transform="translate(-238,-70) scale(1,1)"><path fill="#C0C0C0" stroke="none" d="M 522.324951171875 210.5 C 522.324951171875 204.1487248 527.473675971875 199 533.824951171875 199 C 540.176226371875 199 545.324951171875 204.1487248 545.324951171875 210.5 C 545.324951171875 216.8512752 540.176226371875 222 533.824951171875 222 C 527.473675971875 222 522.324951171875 216.8512752 522.324951171875 210.5 Z" opacity="0.2"/></g><g transform="translate(-238,-70) scale(1,1)"><path fill="none" stroke="#000000" d="M 536.0652776575516 208.56239028443642 A 11.5 11.5 0 0 1 515.9347223424484 197.43760971556358" stroke-miterlimit="10"/></g><g transform="translate(-238,-70) scale(1,1)"><path fill="#ffffff" stroke="none" d="M 518.324951171875 203.5 C 518.324951171875 198.8055792 522.130530371875 195 526.824951171875 195 C 531.519371971875 195 535.324951171875 198.8055792 535.324951171875 203.5 C 535.324951171875 208.1944208 531.519371971875 212 526.824951171875 212 C 522.130530371875 212 518.324951171875 208.1944208 518.324951171875 203.5 Z"/></g><g transform="translate(-238,-70) scale(1,1)"><path fill="none" stroke="#000000" d="M 518.324951171875 203.5 C 518.324951171875 198.8055792 522.130530371875 195 526.824951171875 195 C 531.519371971875 195 535.324951171875 198.8055792 535.324951171875 203.5 C 535.324951171875 208.1944208 531.519371971875 212 526.824951171875 212 C 522.130530371875 212 518.324951171875 208.1944208 518.324951171875 203.5 Z" stroke-miterlimit="10"/></g><g transform="translate(-238,-70) scale(1,1)"><g><path fill="none" stroke="none"/><text fill="#000000" stroke="none" font-family="Arial" font-size="13px" font-style="normal" font-weight="bold" text-decoration="none" x="509.489501953125" y="234.5">REST</text></g></g><g transform="translate(-238,-70) scale(1,1)"><path fill="none" stroke="#000000" d="M 559 133 L 535.1666666666666 192" stroke-miterlimit="10"/></g><g transform="translate(-238,-70) scale(1,1)"><rect fill="#C0C0C0" stroke="none" x="745" y="319" width="98.44091796875" height="44" opacity="0.2"/></g><g transform="translate(-238,-70) scale(1,1)"><rect fill="#ffffff" stroke="none" x="738" y="312" width="98.44091796875" height="44"/></g><g transform="translate(-238,-70) scale(1,1)"><path fill="none" stroke="#000000" d="M 738 312 L 836.44091796875 312 L 836.44091796875 356 L 738 356 L 738 312 Z Z" stroke-miterlimit="10"/></g><g transform="translate(-238,-70) scale(1,1)"><rect fill="#ffffff" stroke="none" x="728" y="319" width="20" height="10"/></g><g transform="translate(-238,-70) scale(1,1)"><path fill="none" stroke="#000000" d="M 728 319 L 748 319 L 748 329 L 728 329 L 728 319 Z Z" stroke-miterlimit="10"/></g><g transform="translate(-238,-70) scale(1,1)"><rect fill="#ffffff" stroke="none" x="728" y="339" width="20" height="10"/></g><g transform="translate(-238,-70) scale(1,1)"><path fill="none" stroke="#000000" d="M 728 339 L 748 339 L 748 349 L 728 349 L 728 339 Z Z" stroke-miterlimit="10"/></g><g transform="translate(-238,-70) scale(1,1)"><g><path fill="none" stroke="none"/><text fill="#000000" stroke="none" font-family="Arial" font-size="13px" font-style="normal" font-weight="bold" text-decoration="none" x="767.2900390625" y="331.5">postgres</text></g></g><g transform="translate(-238,-70) scale(1,1)"><path fill="none" stroke="#000000" d="M 506 332 L 619.324951171875 318.83206881009613" stroke-miterlimit="10"/></g><g transform="translate(-238,-70) scale(1,1)"><path fill="#C0C0C0" stroke="none" d="M 626.324951171875 322.5 C 626.324951171875 316.1487248 631.473675971875 311 637.824951171875 311 C 644.176226371875 311 649.324951171875 316.1487248 649.324951171875 322.5 C 649.324951171875 328.8512752 644.176226371875 334 637.824951171875 334 C 631.473675971875 334 626.324951171875 328.8512752 626.324951171875 322.5 Z" opacity="0.2"/></g><g transform="translate(-238,-70) scale(1,1)"><path fill="none" stroke="#000000" d="M 633.8854446664778 325.82373871375967 A 11.5 11.5 0 0 1 626.1145553335222 304.17626128624033" stroke-miterlimit="10"/></g><g transform="translate(-238,-70) scale(1,1)"><path fill="#ffffff" stroke="none" d="M 622.324951171875 315.5 C 622.324951171875 310.8055792 626.130530371875 307 630.824951171875 307 C 635.519371971875 307 639.324951171875 310.8055792 639.324951171875 315.5 C 639.324951171875 320.1944208 635.519371971875 324 630.824951171875 324 C 626.130530371875 324 622.324951171875 320.1944208 622.324951171875 315.5 Z"/></g><g transform="translate(-238,-70) scale(1,1)"><path fill="none" stroke="#000000" d="M 622.324951171875 315.5 C 622.324951171875 310.8055792 626.130530371875 307 630.824951171875 307 C 635.519371971875 307 639.324951171875 310.8055792 639.324951171875 315.5 C 639.324951171875 320.1944208 635.519371971875 324 630.824951171875 324 C 626.130530371875 324 622.324951171875 320.1944208 622.324951171875 315.5 Z" stroke-miterlimit="10"/></g><g transform="translate(-238,-70) scale(1,1)"><g><path fill="none" stroke="none"/><text fill="#000000" stroke="none" font-family="Arial" font-size="13px" font-style="normal" font-weight="bold" text-decoration="none" x="609.877685546875" y="346.5">TCP/IP</text></g></g><g transform="translate(-238,-70) scale(1,1)"><path fill="none" stroke="#000000" d="M 727 332 L 642.324951171875 319.5091284775152" stroke-miterlimit="10"/></g><g transform="translate(-238,-70) scale(1,1)"><rect fill="#C0C0C0" stroke="none" x="433" y="487" width="98.44091796875" height="44" opacity="0.2"/></g><g transform="translate(-238,-70) scale(1,1)"><rect fill="#ffffff" stroke="none" x="426" y="480" width="98.44091796875" height="44"/></g><g transform="translate(-238,-70) scale(1,1)"><path fill="none" stroke="#000000" d="M 426 480 L 524.44091796875 480 L 524.44091796875 524 L 426 524 L 426 480 Z Z" stroke-miterlimit="10"/></g><g transform="translate(-238,-70) scale(1,1)"><rect fill="#ffffff" stroke="none" x="416" y="487" width="20" height="10"/></g><g transform="translate(-238,-70) scale(1,1)"><path fill="none" stroke="#000000" d="M 416 487 L 436 487 L 436 497 L 416 497 L 416 487 Z Z" stroke-miterlimit="10"/></g><g transform="translate(-238,-70) scale(1,1)"><rect fill="#ffffff" stroke="none" x="416" y="507" width="20" height="10"/></g><g transform="translate(-238,-70) scale(1,1)"><path fill="none" stroke="#000000" d="M 416 507 L 436 507 L 436 517 L 416 517 L 416 507 Z Z" stroke-miterlimit="10"/></g><g transform="translate(-238,-70) scale(1,1)"><g><path fill="none" stroke="none"/><text fill="#000000" stroke="none" font-family="Arial" font-size="13px" font-style="normal" font-weight="bold" text-decoration="none" x="444.457763671875" y="499.5">fail-over-soa</text></g></g><g transform="translate(-238,-70) scale(1,1)"><path fill="#C0C0C0" stroke="none" d="M 442.324951171875 410.5 C 442.324951171875 404.1487248 447.473675971875 399 453.824951171875 399 C 460.176226371875 399 465.324951171875 404.1487248 465.324951171875 410.5 C 465.324951171875 416.8512752 460.176226371875 422 453.824951171875 422 C 447.473675971875 422 442.324951171875 416.8512752 442.324951171875 410.5 Z" opacity="0.2"/></g><g transform="translate(-238,-70) scale(1,1)"><path fill="none" stroke="#000000" d="M 457.30971166877436 400.91663206101526 A 11.5 11.5 0 0 1 434.69028833122564 405.08336793898474" stroke-miterlimit="10"/></g><g transform="translate(-238,-70) scale(1,1)"><path fill="#ffffff" stroke="none" d="M 438.324951171875 403.5 C 438.324951171875 398.8055792 442.130530371875 395 446.824951171875 395 C 451.519371971875 395 455.324951171875 398.8055792 455.324951171875 403.5 C 455.324951171875 408.1944208 451.519371971875 412 446.824951171875 412 C 442.130530371875 412 438.324951171875 408.1944208 438.324951171875 403.5 Z"/></g><g transform="translate(-238,-70) scale(1,1)"><path fill="none" stroke="#000000" d="M 438.324951171875 403.5 C 438.324951171875 398.8055792 442.130530371875 395 446.824951171875 395 C 451.519371971875 395 455.324951171875 398.8055792 455.324951171875 403.5 C 455.324951171875 408.1944208 451.519371971875 412 446.824951171875 412 C 442.130530371875 412 438.324951171875 408.1944208 438.324951171875 403.5 Z" stroke-miterlimit="10"/></g><g transform="translate(-238,-70) scale(1,1)"><g><path fill="none" stroke="none"/><text fill="#000000" stroke="none" font-family="Arial" font-size="13px" font-style="normal" font-weight="bold" text-decoration="none" x="429.489501953125" y="434.5">REST</text></g></g><g transform="translate(-238,-70) scale(1,1)"><path fill="none" stroke="#000000" d="M 433 357 L 441.4166666666667 392" stroke-miterlimit="10"/></g><g transform="translate(-238,-70) scale(1,1)"><path fill="none" stroke="#000000" d="M 464 479 L 448.2105263157895 415" stroke-miterlimit="10"/></g><g transform="translate(-238,-70) scale(1,1)"><rect fill="#C0C0C0" stroke="none" x="713" y="591" width="98.44091796875" height="44" opacity="0.2"/></g><g transform="translate(-238,-70) scale(1,1)"><rect fill="#ffffff" stroke="none" x="706" y="584" width="98.44091796875" height="44"/></g><g transform="translate(-238,-70) scale(1,1)"><path fill="none" stroke="#000000" d="M 706 584 L 804.44091796875 584 L 804.44091796875 628 L 706 628 L 706 584 Z Z" stroke-miterlimit="10"/></g><g transform="translate(-238,-70) scale(1,1)"><rect fill="#ffffff" stroke="none" x="696" y="591" width="20" height="10"/></g><g transform="translate(-238,-70) scale(1,1)"><path fill="none" stroke="#000000" d="M 696 591 L 716 591 L 716 601 L 696 601 L 696 591 Z Z" stroke-miterlimit="10"/></g><g transform="translate(-238,-70) scale(1,1)"><rect fill="#ffffff" stroke="none" x="696" y="611" width="20" height="10"/></g><g transform="translate(-238,-70) scale(1,1)"><path fill="none" stroke="#000000" d="M 696 611 L 716 611 L 716 621 L 696 621 L 696 611 Z Z" stroke-miterlimit="10"/></g><g transform="translate(-238,-70) scale(1,1)"><g><path fill="none" stroke="none"/><text fill="#000000" stroke="none" font-family="Arial" font-size="13px" font-style="normal" font-weight="bold" text-decoration="none" x="735.286865234375" y="603.5">web-app</text></g></g><g transform="translate(-238,-70) scale(1,1)"><path fill="none" stroke="#000000" d="M 695 601 L 538.324951171875 576.1103456078506" stroke-miterlimit="10"/></g><g transform="translate(-238,-70) scale(1,1)"><path fill="#C0C0C0" stroke="none" d="M 522.324951171875 578.5 C 522.324951171875 572.1487248 527.473675971875 567 533.824951171875 567 C 540.176226371875 567 545.324951171875 572.1487248 545.324951171875 578.5 C 545.324951171875 584.8512752 540.176226371875 590 533.824951171875 590 C 527.473675971875 590 522.324951171875 584.8512752 522.324951171875 578.5 Z" opacity="0.2"/></g><g transform="translate(-238,-70) scale(1,1)"><path fill="none" stroke="#000000" d="M 530.4046727610549 560.3769656939262 A 11.5 11.5 0 0 1 521.5953272389451 581.6230343060738" stroke-miterlimit="10"/></g><g transform="translate(-238,-70) scale(1,1)"><path fill="#ffffff" stroke="none" d="M 518.324951171875 571.5 C 518.324951171875 566.8055792 522.130530371875 563 526.824951171875 563 C 531.519371971875 563 535.324951171875 566.8055792 535.324951171875 571.5 C 535.324951171875 576.1944208 531.519371971875 580 526.824951171875 580 C 522.130530371875 580 518.324951171875 576.1944208 518.324951171875 571.5 Z"/></g><g transform="translate(-238,-70) scale(1,1)"><path fill="none" stroke="#000000" d="M 518.324951171875 571.5 C 518.324951171875 566.8055792 522.130530371875 563 526.824951171875 563 C 531.519371971875 563 535.324951171875 566.8055792 535.324951171875 571.5 C 535.324951171875 576.1944208 531.519371971875 580 526.824951171875 580 C 522.130530371875 580 518.324951171875 576.1944208 518.324951171875 571.5 Z" stroke-miterlimit="10"/></g><g transform="translate(-238,-70) scale(1,1)"><g><path fill="none" stroke="none"/><text fill="#000000" stroke="none" font-family="Arial" font-size="13px" font-style="normal" font-weight="bold" text-decoration="none" x="509.489501953125" y="602.5">REST</text></g></g><g transform="translate(-238,-70) scale(1,1)"><path fill="none" stroke="#000000" d="M 486 525 L 515.324951171875 563.4646714154412" stroke-miterlimit="10"/></g><g transform="translate(-238,-70) scale(1,1)"><rect fill="#ffffff" stroke="none" x="765" y="621" width="14" height="14"/></g><g transform="translate(-238,-70) scale(1,1)"><path fill="none" stroke="#000000" d="M 765 621 L 779 621 L 779 635 L 765 635 L 765 621 Z Z" stroke-miterlimit="10"/></g><g transform="translate(-238,-70) scale(1,1)"><g><path fill="none" stroke="none"/><text fill="#000000" stroke="none" font-family="Arial" font-size="13px" font-style="normal" font-weight="normal" text-decoration="none" x="742.0400390625" y="619">8080</text></g></g><g transform="translate(-238,-70) scale(1,1)"><rect fill="#ffffff" stroke="none" x="487" y="473" width="14" height="14"/></g><g transform="translate(-238,-70) scale(1,1)"><path fill="none" stroke="#000000" d="M 487 473 L 501 473 L 501 487 L 487 487 L 487 473 Z Z" stroke-miterlimit="10"/></g><g transform="translate(-238,-70) scale(1,1)"><g><path fill="none" stroke="none"/><text fill="#000000" stroke="none" font-family="Arial" font-size="13px" font-style="normal" font-weight="normal" text-decoration="none" x="486.425048828125" y="468">25030</text></g></g><g transform="translate(-238,-70) scale(1,1)"><rect fill="#ffffff" stroke="none" x="388" y="349" width="14" height="14"/></g><g transform="translate(-238,-70) scale(1,1)"><path fill="none" stroke="#000000" d="M 388 349 L 402 349 L 402 363 L 388 363 L 388 349 Z Z" stroke-miterlimit="10"/></g><g transform="translate(-238,-70) scale(1,1)"><g><path fill="none" stroke="none"/><text fill="#000000" stroke="none" font-family="Arial" font-size="13px" font-style="normal" font-weight="normal" text-decoration="none" x="348.425048828125" y="380">25000</text></g></g><g transform="translate(-238,-70) scale(1,1)"><rect fill="#ffffff" stroke="none" x="466" y="349" width="14" height="14"/></g><g transform="translate(-238,-70) scale(1,1)"><path fill="none" stroke="#000000" d="M 466 349 L 480 349 L 480 363 L 466 363 L 466 349 Z Z" stroke-miterlimit="10"/></g><g transform="translate(-238,-70) scale(1,1)"><g><path fill="none" stroke="none"/><text fill="#000000" stroke="none" font-family="Arial" font-size="13px" font-style="normal" font-weight="normal" text-decoration="none" x="468.425048828125" y="379">25010</text></g></g><g transform="translate(-238,-70) scale(1,1)"><rect fill="#ffffff" stroke="none" x="742" y="305" width="14" height="14"/></g><g transform="translate(-238,-70) scale(1,1)"><path fill="none" stroke="#000000" d="M 742 305 L 756 305 L 756 319 L 742 319 L 742 305 Z Z" stroke-miterlimit="10"/></g><g transform="translate(-238,-70) scale(1,1)"><g><path fill="none" stroke="none"/><text fill="#000000" stroke="none" font-family="Arial" font-size="13px" font-style="normal" font-weight="normal" text-decoration="none" x="719.0400390625" y="303">5432</text></g></g></g></svg>