<svg version="1.1" xmlns="http://www.w3.org/2000/svg" xmlns:xlink="http://www.w3.org/1999/xlink" width="588" height="340"><defs/><g><g transform="translate(-294,-142) scale(1,1)"><path fill="#C0C0C0" stroke="none" d="M 311 169 L 868 169 L 868 478 L 311 478" opacity="0.2"/></g><g transform="translate(-294,-142) scale(1,1)"><path fill="#C0C0C0" stroke="none" d="M 311 169 L 321 159 L 878 159 L 868 169" opacity="0.2"/></g><g transform="translate(-294,-142) scale(1,1)"><path fill="#C0C0C0" stroke="none" d="M 878 159 L 868 169 L 868 478 L 878 468" opacity="0.2"/></g><g transform="translate(-294,-142) scale(1,1)"><path fill="#ffffff" stroke="none" d="M 304 162 L 861 162 L 861 471 L 304 471"/></g><g transform="translate(-294,-142) scale(1,1)"><path fill="#ffffff" stroke="none" d="M 304 162 L 314 152 L 871 152 L 861 162"/></g><g transform="translate(-294,-142) scale(1,1)"><path fill="#ffffff" stroke="none" d="M 871 152 L 861 162 L 861 471 L 871 461"/></g><g transform="translate(-294,-142) scale(1,1)"><path fill="none" stroke="#000000" d="M 304 162 L 861 162 L 861 471 L 304 471 L 304 162" stroke-miterlimit="10"/></g><g transform="translate(-294,-142) scale(1,1)"><path fill="none" stroke="#000000" d="M 304 162 L 314 152 L 871 152 L 861 162 L 304 162" stroke-miterlimit="10"/></g><g transform="translate(-294,-142) scale(1,1)"><path fill="none" stroke="#000000" d="M 871 152 L 861 162 L 861 471 L 871 461 L 871 152" stroke-miterlimit="10"/></g><g transform="translate(-294,-142) scale(1,1)"><g><path fill="none" stroke="none"/><text fill="#000000" stroke="none" font-family="Arial" font-size="13px" font-style="normal" font-weight="bold" text-decoration="none" x="547.583251953125" y="181.5">Ubuntu 16.4</text></g></g><g transform="translate(-294,-142) scale(1,1)"><path fill="#C0C0C0" stroke="none" d="M 405.69443359375 231 L 433.13443359375 231 L 444.89443359374997 242.76 L 444.89443359374997 280 L 405.69443359375 280" opacity="0.2"/></g><g transform="translate(-294,-142) scale(1,1)"><path fill="#ffffff" stroke="none" d="M 398.69443359375 224 L 426.13443359375003 224 L 437.89443359375 235.76000000000002 L 437.89443359375 273 L 398.69443359375 273"/></g><g transform="translate(-294,-142) scale(1,1)"><path fill="none" stroke="#000000" d="M 398.69443359375 224 L 426.13443359375003 224 L 437.89443359375 235.76000000000002 L 437.89443359375 273 L 398.69443359375 273 L 398.69443359375 224" stroke-miterlimit="10"/></g><g transform="translate(-294,-142) scale(1,1)"><path fill="none" stroke="#000000" d="M 426.13443359375003 224 L 426.13443359375003 235.76000000000002 L 437.89443359375 235.76000000000002 L 426.13443359375003 224" stroke-miterlimit="10"/></g><g transform="translate(-294,-142) scale(1,1)"><g><path fill="none" stroke="none"/><text fill="#000000" stroke="none" font-family="Arial" font-size="13px" font-style="normal" font-weight="bold" text-decoration="none" x="360.495849609375" y="292.5">data-access-service</text></g></g><g transform="translate(-294,-142) scale(1,1)"><path fill="#C0C0C0" stroke="none" d="M 422.55087890625 391 L 449.99087890625 391 L 461.75087890624997 402.76 L 461.75087890624997 440 L 422.55087890625 440" opacity="0.2"/></g><g transform="translate(-294,-142) scale(1,1)"><path fill="#ffffff" stroke="none" d="M 415.55087890625 384 L 442.99087890625003 384 L 454.75087890625 395.76 L 454.75087890625 433 L 415.55087890625 433"/></g><g transform="translate(-294,-142) scale(1,1)"><path fill="none" stroke="#000000" d="M 415.55087890625 384 L 442.99087890625003 384 L 454.75087890625 395.76 L 454.75087890625 433 L 415.55087890625 433 L 415.55087890625 384" stroke-miterlimit="10"/></g><g transform="translate(-294,-142) scale(1,1)"><path fill="none" stroke="#000000" d="M 442.99087890625003 384 L 442.99087890625003 395.76 L 454.75087890625 395.76 L 442.99087890625003 384" stroke-miterlimit="10"/></g><g transform="translate(-294,-142) scale(1,1)"><g><path fill="none" stroke="none"/><text fill="#000000" stroke="none" font-family="Arial" font-size="13px" font-style="normal" font-weight="bold" text-decoration="none" x="399.38818359375" y="452.5">fail-over-soa</text></g></g><g transform="translate(-294,-142) scale(1,1)"><path fill="#C0C0C0" stroke="none" d="M 738.2681640625 375 L 765.7081640625 375 L 777.4681640625 386.76 L 777.4681640625 424 L 738.2681640625 424" opacity="0.2"/></g><g transform="translate(-294,-142) scale(1,1)"><path fill="#ffffff" stroke="none" d="M 731.2681640625 368 L 758.7081640625 368 L 770.4681640625 379.76 L 770.4681640625 417 L 731.2681640625 417"/></g><g transform="translate(-294,-142) scale(1,1)"><path fill="none" stroke="#000000" d="M 731.2681640625 368 L 758.7081640625 368 L 770.4681640625 379.76 L 770.4681640625 417 L 731.2681640625 417 L 731.2681640625 368" stroke-miterlimit="10"/></g><g transform="translate(-294,-142) scale(1,1)"><path fill="none" stroke="#000000" d="M 758.7081640625 368 L 758.7081640625 379.76 L 770.4681640625 379.76 L 758.7081640625 368" stroke-miterlimit="10"/></g><g transform="translate(-294,-142) scale(1,1)"><g><path fill="none" stroke="none"/><text fill="#000000" stroke="none" font-family="Arial" font-size="13px" font-style="normal" font-weight="bold" text-decoration="none" x="725.9345703125" y="436.5">web-app</text></g></g><g transform="translate(-294,-142) scale(1,1)"><rect fill="#C0C0C0" stroke="none" x="721" y="239" width="98.44091796875" height="44" opacity="0.2"/></g><g transform="translate(-294,-142) scale(1,1)"><rect fill="#ffffff" stroke="none" x="714" y="232" width="98.44091796875" height="44"/></g><g transform="translate(-294,-142) scale(1,1)"><path fill="none" stroke="#000000" d="M 714 232 L 812.44091796875 232 L 812.44091796875 276 L 714 276 L 714 232 Z Z" stroke-miterlimit="10"/></g><g transform="translate(-294,-142) scale(1,1)"><rect fill="#ffffff" stroke="none" x="704" y="239" width="20" height="10"/></g><g transform="translate(-294,-142) scale(1,1)"><path fill="none" stroke="#000000" d="M 704 239 L 724 239 L 724 249 L 704 249 L 704 239 Z Z" stroke-miterlimit="10"/></g><g transform="translate(-294,-142) scale(1,1)"><rect fill="#ffffff" stroke="none" x="704" y="259" width="20" height="10"/></g><g transform="translate(-294,-142) scale(1,1)"><path fill="none" stroke="#000000" d="M 704 259 L 724 259 L 724 269 L 704 269 L 704 259 Z Z" stroke-miterlimit="10"/></g><g transform="translate(-294,-142) scale(1,1)"><g><path fill="none" stroke="none"/><text fill="#000000" stroke="none" font-family="Arial" font-size="13px" font-style="normal" font-weight="bold" text-decoration="none" x="743.2900390625" y="251.5">postgres</text></g></g><g transform="translate(-294,-142) scale(1,1)"><rect fill="#C0C0C0" stroke="none" x="529" y="319" width="151.18359375" height="44" opacity="0.2"/></g><g transform="translate(-294,-142) scale(1,1)"><rect fill="#ffffff" stroke="none" x="522" y="312" width="151.18359375" height="44"/></g><g transform="translate(-294,-142) scale(1,1)"><path fill="none" stroke="#000000" d="M 522 312 L 673.18359375 312 L 673.18359375 356 L 522 356 L 522 312 Z Z" stroke-miterlimit="10"/></g><g transform="translate(-294,-142) scale(1,1)"><rect fill="#ffffff" stroke="none" x="512" y="319" width="20" height="10"/></g><g transform="translate(-294,-142) scale(1,1)"><path fill="none" stroke="#000000" d="M 512 319 L 532 319 L 532 329 L 512 329 L 512 319 Z Z" stroke-miterlimit="10"/></g><g transform="translate(-294,-142) scale(1,1)"><rect fill="#ffffff" stroke="none" x="512" y="339" width="20" height="10"/></g><g transform="translate(-294,-142) scale(1,1)"><path fill="none" stroke="#000000" d="M 512 339 L 532 339 L 532 349 L 512 349 L 512 339 Z Z" stroke-miterlimit="10"/></g><g transform="translate(-294,-142) scale(1,1)"><g><path fill="none" stroke="none"/><text fill="#000000" stroke="none" font-family="Arial" font-size="13px" font-style="normal" font-weight="bold" text-decoration="none" x="579.470458984375" y="331.5">JRE 1.8</text><path fill="none" stroke="#000000" d="M 626.078125 331.5 L 579.10546875 331.5" stroke-miterlimit="10"/></g></g><g transform="translate(-294,-142) scale(1,1)"><path fill="none" stroke="#000000" d="M 486 289 L 537 311" stroke-miterlimit="10" stroke-dasharray="3"/></g><g transform="translate(-294,-142) scale(1,1)"><path fill="none" stroke="#000000" d="M 526.0011654263807 310.83988122484914 L 537 311 L 529.3358705595492 303.10942841614025" stroke-miterlimit="10"/></g><g transform="translate(-294,-142) scale(1,1)"><path fill="none" stroke="#000000" d="M 479 396 L 550 357" stroke-miterlimit="10" stroke-dasharray="3"/></g><g transform="translate(-294,-142) scale(1,1)"><path fill="none" stroke="#000000" d="M 543.1193055481182 365.5823099372979 L 550 357 L 539.0660047388936 358.20322384870974" stroke-miterlimit="10"/></g><g transform="translate(-294,-142) scale(1,1)"><path fill="none" stroke="#000000" d="M 719 391 L 643 357" stroke-miterlimit="10" stroke-dasharray="3"/></g><g transform="translate(-294,-142) scale(1,1)"><path fill="none" stroke="#000000" d="M 653.9956992788824 357.3075668518939 L 643 357 L 650.5576509173434 364.9926161306282" stroke-miterlimit="10"/></g><g transform="translate(-294,-142) scale(1,1)"><path fill="#C0C0C0" stroke="none" d="M 571.473974609375 199 L 598.913974609375 199 L 610.673974609375 210.76000000000002 L 610.673974609375 248 L 571.473974609375 248" opacity="0.2"/></g><g transform="translate(-294,-142) scale(1,1)"><path fill="#ffffff" stroke="none" d="M 564.473974609375 192 L 591.913974609375 192 L 603.673974609375 203.76000000000002 L 603.673974609375 241 L 564.473974609375 241"/></g><g transform="translate(-294,-142) scale(1,1)"><path fill="none" stroke="#000000" d="M 564.473974609375 192 L 591.913974609375 192 L 603.673974609375 203.76000000000002 L 603.673974609375 241 L 564.473974609375 241 L 564.473974609375 192" stroke-miterlimit="10"/></g><g transform="translate(-294,-142) scale(1,1)"><path fill="none" stroke="#000000" d="M 591.913974609375 192 L 591.913974609375 203.76000000000002 L 603.673974609375 203.76000000000002 L 591.913974609375 192" stroke-miterlimit="10"/></g><g transform="translate(-294,-142) scale(1,1)"><g><path fill="none" stroke="none"/><text fill="#000000" stroke="none" font-family="Arial" font-size="13px" font-style="normal" font-weight="bold" text-decoration="none" x="520.495849609375" y="260.5">data-access-service-2</text></g></g><g transform="translate(-294,-142) scale(1,1)"><path fill="none" stroke="#000000" d="M 587 267 L 590 311" stroke-miterlimit="10" stroke-dasharray="3"/></g><g transform="translate(-294,-142) scale(1,1)"><path fill="none" stroke="#000000" d="M 585.1089281230779 301.1472127854712 L 590 311 L 593.508462561539 300.57451725557615" stroke-miterlimit="10"/></g></g></svg>