<svg version="1.1" xmlns="http://www.w3.org/2000/svg" xmlns:xlink="http://www.w3.org/1999/xlink" width="656.44091796875" height="527"><defs/><g><g transform="translate(-190,-118) scale(1,1)"><rect fill="#C0C0C0" stroke="none" x="369" y="319" width="142.5888671875" height="44" opacity="0.2"/></g><g transform="translate(-190,-118) scale(1,1)"><rect fill="#ffffff" stroke="none" x="362" y="312" width="142.5888671875" height="44"/></g><g transform="translate(-190,-118) scale(1,1)"><path fill="none" stroke="#000000" d="M 362 312 L 504.5888671875 312 L 504.5888671875 356 L 362 356 L 362 312 Z Z" stroke-miterlimit="10"/></g><g transform="translate(-190,-118) scale(1,1)"><rect fill="#ffffff" stroke="none" x="352" y="319" width="20" height="10"/></g><g transform="translate(-190,-118) scale(1,1)"><path fill="none" stroke="#000000" d="M 352 319 L 372 319 L 372 329 L 352 329 L 352 319 Z Z" stroke-miterlimit="10"/></g><g transform="translate(-190,-118) scale(1,1)"><rect fill="#ffffff" stroke="none" x="352" y="339" width="20" height="10"/></g><g transform="translate(-190,-118) scale(1,1)"><path fill="none" stroke="#000000" d="M 352 339 L 372 339 L 372 349 L 352 349 L 352 339 Z Z" stroke-miterlimit="10"/></g><g transform="translate(-190,-118) scale(1,1)"><g><path fill="none" stroke="none"/><text fill="#000000" stroke="none" font-family="Arial" font-size="13px" font-style="normal" font-weight="bold" text-decoration="none" x="380.495849609375" y="331.5">data-access-service</text></g></g><g transform="translate(-190,-118) scale(1,1)"><path fill="none" stroke="#000000" d="M 407 311 L 364.94736842105266 255" stroke-miterlimit="10"/></g><g transform="translate(-190,-118) scale(1,1)"><rect fill="#C0C0C0" stroke="none" x="745" y="319" width="98.44091796875" height="44" opacity="0.2"/></g><g transform="translate(-190,-118) scale(1,1)"><rect fill="#ffffff" stroke="none" x="738" y="312" width="98.44091796875" height="44"/></g><g transform="translate(-190,-118) scale(1,1)"><path fill="none" stroke="#000000" d="M 738 312 L 836.44091796875 312 L 836.44091796875 356 L 738 356 L 738 312 Z Z" stroke-miterlimit="10"/></g><g transform="translate(-190,-118) scale(1,1)"><rect fill="#ffffff" stroke="none" x="728" y="319" width="20" height="10"/></g><g transform="translate(-190,-118) scale(1,1)"><path fill="none" stroke="#000000" d="M 728 319 L 748 319 L 748 329 L 728 329 L 728 319 Z Z" stroke-miterlimit="10"/></g><g transform="translate(-190,-118) scale(1,1)"><rect fill="#ffffff" stroke="none" x="728" y="339" width="20" height="10"/></g><g transform="translate(-190,-118) scale(1,1)"><path fill="none" stroke="#000000" d="M 728 339 L 748 339 L 748 349 L 728 349 L 728 339 Z Z" stroke-miterlimit="10"/></g><g transform="translate(-190,-118) scale(1,1)"><g><path fill="none" stroke="none"/><text fill="#000000" stroke="none" font-family="Arial" font-size="13px" font-style="normal" font-weight="bold" text-decoration="none" x="767.2900390625" y="331.5">postgres</text></g></g><g transform="translate(-190,-118) scale(1,1)"><path fill="none" stroke="#000000" d="M 506 332 L 619.324951171875 318.83206881009613" stroke-miterlimit="10"/></g><g transform="translate(-190,-118) scale(1,1)"><path fill="#C0C0C0" stroke="none" d="M 626.324951171875 322.5 C 626.324951171875 316.1487248 631.473675971875 311 637.824951171875 311 C 644.176226371875 311 649.324951171875 316.1487248 649.324951171875 322.5 C 649.324951171875 328.8512752 644.176226371875 334 637.824951171875 334 C 631.473675971875 334 626.324951171875 328.8512752 626.324951171875 322.5 Z" opacity="0.2"/></g><g transform="translate(-190,-118) scale(1,1)"><path fill="none" stroke="#000000" d="M 633.8854446664778 325.82373871375967 A 11.5 11.5 0 0 1 626.1145553335222 304.17626128624033" stroke-miterlimit="10"/></g><g transform="translate(-190,-118) scale(1,1)"><path fill="#ffffff" stroke="none" d="M 622.324951171875 315.5 C 622.324951171875 310.8055792 626.130530371875 307 630.824951171875 307 C 635.519371971875 307 639.324951171875 310.8055792 639.324951171875 315.5 C 639.324951171875 320.1944208 635.519371971875 324 630.824951171875 324 C 626.130530371875 324 622.324951171875 320.1944208 622.324951171875 315.5 Z"/></g><g transform="translate(-190,-118) scale(1,1)"><path fill="none" stroke="#000000" d="M 622.324951171875 315.5 C 622.324951171875 310.8055792 626.130530371875 307 630.824951171875 307 C 635.519371971875 307 639.324951171875 310.8055792 639.324951171875 315.5 C 639.324951171875 320.1944208 635.519371971875 324 630.824951171875 324 C 626.130530371875 324 622.324951171875 320.1944208 622.324951171875 315.5 Z" stroke-miterlimit="10"/></g><g transform="translate(-190,-118) scale(1,1)"><g><path fill="none" stroke="none"/><text fill="#000000" stroke="none" font-family="Arial" font-size="13px" font-style="normal" font-weight="bold" text-decoration="none" x="609.877685546875" y="346.5">TCP/IP</text></g></g><g transform="translate(-190,-118) scale(1,1)"><path fill="none" stroke="#000000" d="M 727 332 L 642.324951171875 319.5091284775152" stroke-miterlimit="10"/></g><g transform="translate(-190,-118) scale(1,1)"><path fill="#C0C0C0" stroke="none" d="M 442.324951171875 410.5 C 442.324951171875 404.1487248 447.473675971875 399 453.824951171875 399 C 460.176226371875 399 465.324951171875 404.1487248 465.324951171875 410.5 C 465.324951171875 416.8512752 460.176226371875 422 453.824951171875 422 C 447.473675971875 422 442.324951171875 416.8512752 442.324951171875 410.5 Z" opacity="0.2"/></g><g transform="translate(-190,-118) scale(1,1)"><path fill="none" stroke="#000000" d="M 453.920618812019 394.66250651366425 A 11.5 11.5 0 0 1 438.079381187981 411.33749348633575" stroke-miterlimit="10"/></g><g transform="translate(-190,-118) scale(1,1)"><path fill="#ffffff" stroke="none" d="M 438.324951171875 403.5 C 438.324951171875 398.8055792 442.130530371875 395 446.824951171875 395 C 451.519371971875 395 455.324951171875 398.8055792 455.324951171875 403.5 C 455.324951171875 408.1944208 451.519371971875 412 446.824951171875 412 C 442.130530371875 412 438.324951171875 408.1944208 438.324951171875 403.5 Z"/></g><g transform="translate(-190,-118) scale(1,1)"><path fill="none" stroke="#000000" d="M 438.324951171875 403.5 C 438.324951171875 398.8055792 442.130530371875 395 446.824951171875 395 C 451.519371971875 395 455.324951171875 398.8055792 455.324951171875 403.5 C 455.324951171875 408.1944208 451.519371971875 412 446.824951171875 412 C 442.130530371875 412 438.324951171875 408.1944208 438.324951171875 403.5 Z" stroke-miterlimit="10"/></g><g transform="translate(-190,-118) scale(1,1)"><g><path fill="none" stroke="none"/><text fill="#000000" stroke="none" font-family="Arial" font-size="13px" font-style="normal" font-weight="bold" text-decoration="none" x="429.489501953125" y="434.5">REST</text></g></g><g transform="translate(-190,-118) scale(1,1)"><path fill="none" stroke="#000000" d="M 433 357 L 441.4166666666667 392" stroke-miterlimit="10"/></g><g transform="translate(-190,-118) scale(1,1)"><rect fill="#C0C0C0" stroke="none" x="713" y="591" width="98.44091796875" height="44" opacity="0.2"/></g><g transform="translate(-190,-118) scale(1,1)"><rect fill="#ffffff" stroke="none" x="706" y="584" width="98.44091796875" height="44"/></g><g transform="translate(-190,-118) scale(1,1)"><path fill="none" stroke="#000000" d="M 706 584 L 804.44091796875 584 L 804.44091796875 628 L 706 628 L 706 584 Z Z" stroke-miterlimit="10"/></g><g transform="translate(-190,-118) scale(1,1)"><rect fill="#ffffff" stroke="none" x="696" y="591" width="20" height="10"/></g><g transform="translate(-190,-118) scale(1,1)"><path fill="none" stroke="#000000" d="M 696 591 L 716 591 L 716 601 L 696 601 L 696 591 Z Z" stroke-miterlimit="10"/></g><g transform="translate(-190,-118) scale(1,1)"><rect fill="#ffffff" stroke="none" x="696" y="611" width="20" height="10"/></g><g transform="translate(-190,-118) scale(1,1)"><path fill="none" stroke="#000000" d="M 696 611 L 716 611 L 716 621 L 696 621 L 696 611 Z Z" stroke-miterlimit="10"/></g><g transform="translate(-190,-118) scale(1,1)"><g><path fill="none" stroke="none"/><text fill="#000000" stroke="none" font-family="Arial" font-size="13px" font-style="normal" font-weight="bold" text-decoration="none" x="735.286865234375" y="603.5">web-app</text></g></g><g transform="translate(-190,-118) scale(1,1)"><path fill="none" stroke="#000000" d="M 713 583 L 458.324951171875 414.7087036132813" stroke-miterlimit="10"/></g><g transform="translate(-190,-118) scale(1,1)"><rect fill="#ffffff" stroke="none" x="765" y="621" width="14" height="14"/></g><g transform="translate(-190,-118) scale(1,1)"><path fill="none" stroke="#000000" d="M 765 621 L 779 621 L 779 635 L 765 635 L 765 621 Z Z" stroke-miterlimit="10"/></g><g transform="translate(-190,-118) scale(1,1)"><g><path fill="none" stroke="none"/><text fill="#000000" stroke="none" font-family="Arial" font-size="13px" font-style="normal" font-weight="normal" text-decoration="none" x="742.0400390625" y="619">8080</text></g></g><g transform="translate(-190,-118) scale(1,1)"><rect fill="#ffffff" stroke="none" x="388" y="349" width="14" height="14"/></g><g transform="translate(-190,-118) scale(1,1)"><path fill="none" stroke="#000000" d="M 388 349 L 402 349 L 402 363 L 388 363 L 388 349 Z Z" stroke-miterlimit="10"/></g><g transform="translate(-190,-118) scale(1,1)"><g><path fill="none" stroke="none"/><text fill="#000000" stroke="none" font-family="Arial" font-size="13px" font-style="normal" font-weight="normal" text-decoration="none" x="348.425048828125" y="380">25000</text></g></g><g transform="translate(-190,-118) scale(1,1)"><rect fill="#ffffff" stroke="none" x="742" y="305" width="14" height="14"/></g><g transform="translate(-190,-118) scale(1,1)"><path fill="none" stroke="#000000" d="M 742 305 L 756 305 L 756 319 L 742 319 L 742 305 Z Z" stroke-miterlimit="10"/></g><g transform="translate(-190,-118) scale(1,1)"><g><path fill="none" stroke="none"/><text fill="#000000" stroke="none" font-family="Arial" font-size="13px" font-style="normal" font-weight="normal" text-decoration="none" x="719.0400390625" y="303">5432</text></g></g><g transform="translate(-190,-118) scale(1,1)"><rect fill="#C0C0C0" stroke="none" x="217" y="135" width="98.44091796875" height="44" opacity="0.2"/></g><g transform="translate(-190,-118) scale(1,1)"><rect fill="#ffffff" stroke="none" x="210" y="128" width="98.44091796875" height="44"/></g><g transform="translate(-190,-118) scale(1,1)"><path fill="none" stroke="#000000" d="M 210 128 L 308.44091796875 128 L 308.44091796875 172 L 210 172 L 210 128 Z Z" stroke-miterlimit="10"/></g><g transform="translate(-190,-118) scale(1,1)"><rect fill="#ffffff" stroke="none" x="200" y="135" width="20" height="10"/></g><g transform="translate(-190,-118) scale(1,1)"><path fill="none" stroke="#000000" d="M 200 135 L 220 135 L 220 145 L 200 145 L 200 135 Z Z" stroke-miterlimit="10"/></g><g transform="translate(-190,-118) scale(1,1)"><rect fill="#ffffff" stroke="none" x="200" y="155" width="20" height="10"/></g><g transform="translate(-190,-118) scale(1,1)"><path fill="none" stroke="#000000" d="M 200 155 L 220 155 L 220 165 L 200 165 L 200 155 Z Z" stroke-miterlimit="10"/></g><g transform="translate(-190,-118) scale(1,1)"><g><path fill="none" stroke="none"/><text fill="#000000" stroke="none" font-family="Arial" font-size="13px" font-style="normal" font-weight="bold" text-decoration="none" x="259.5263671875" y="147.5">R</text></g></g><g transform="translate(-190,-118) scale(1,1)"><path fill="#C0C0C0" stroke="none" d="M 354.324951171875 250.5 C 354.324951171875 244.1487248 359.473675971875 239 365.824951171875 239 C 372.176226371875 239 377.324951171875 244.1487248 377.324951171875 250.5 C 377.324951171875 256.8512752 372.176226371875 262 365.824951171875 262 C 359.473675971875 262 354.324951171875 256.8512752 354.324951171875 250.5 Z" opacity="0.2"/></g><g transform="translate(-190,-118) scale(1,1)"><path fill="none" stroke="#000000" d="M 367.95240228303294 237.23808288877038 A 11.5 11.5 0 0 1 348.04759771696706 248.76191711122962" stroke-miterlimit="10"/></g><g transform="translate(-190,-118) scale(1,1)"><path fill="#ffffff" stroke="none" d="M 350.324951171875 243.5 C 350.324951171875 238.8055792 354.130530371875 235 358.824951171875 235 C 363.519371971875 235 367.324951171875 238.8055792 367.324951171875 243.5 C 367.324951171875 248.1944208 363.519371971875 252 358.824951171875 252 C 354.130530371875 252 350.324951171875 248.1944208 350.324951171875 243.5 Z"/></g><g transform="translate(-190,-118) scale(1,1)"><path fill="none" stroke="#000000" d="M 350.324951171875 243.5 C 350.324951171875 238.8055792 354.130530371875 235 358.824951171875 235 C 363.519371971875 235 367.324951171875 238.8055792 367.324951171875 243.5 C 367.324951171875 248.1944208 363.519371971875 252 358.824951171875 252 C 354.130530371875 252 350.324951171875 248.1944208 350.324951171875 243.5 Z" stroke-miterlimit="10"/></g><g transform="translate(-190,-118) scale(1,1)"><g><path fill="none" stroke="none"/><text fill="#000000" stroke="none" font-family="Arial" font-size="13px" font-style="normal" font-weight="bold" text-decoration="none" x="346.54541015625" y="274.5">cmd</text></g></g><g transform="translate(-190,-118) scale(1,1)"><path fill="none" stroke="#000000" d="M 277 173 L 347.324951171875 237.8759765625" stroke-miterlimit="10"/></g></g></svg>