<svg version="1.1" xmlns="http://www.w3.org/2000/svg" xmlns:xlink="http://www.w3.org/1999/xlink" width="1233" height="576"><defs/><g><g transform="translate(10,-6) scale(1,1)"><rect fill="#C0C0C0" stroke="none" x="337" y="23" width="134" height="64" opacity="0.2"/></g><g transform="translate(10,-6) scale(1,1)"><rect fill="#ffffff" stroke="none" x="330" y="16" width="134" height="64"/></g><g transform="translate(10,-6) scale(1,1)"><path fill="none" stroke="#000000" d="M 330 16 L 464 16 L 464 80 L 330 80 L 330 16 Z Z" stroke-miterlimit="10"/></g><g transform="translate(10,-6) scale(1,1)"><rect fill="#ffffff" stroke="none" x="320" y="23" width="20" height="10"/></g><g transform="translate(10,-6) scale(1,1)"><path fill="none" stroke="#000000" d="M 320 23 L 340 23 L 340 33 L 320 33 L 320 23 Z Z" stroke-miterlimit="10"/></g><g transform="translate(10,-6) scale(1,1)"><rect fill="#ffffff" stroke="none" x="320" y="43" width="20" height="10"/></g><g transform="translate(10,-6) scale(1,1)"><path fill="none" stroke="#000000" d="M 320 43 L 340 43 L 340 53 L 320 53 L 320 43 Z Z" stroke-miterlimit="10"/></g><g transform="translate(10,-6) scale(1,1)"><g><path fill="none" stroke="none"/><text fill="#000000" stroke="none" font-family="Arial" font-size="13px" font-style="normal" font-weight="bold" text-decoration="none" x="357.5" y="35.5">mobile-frontend</text></g></g><g transform="translate(10,-6) scale(1,1)"><rect fill="#C0C0C0" stroke="none" x="17" y="63" width="98" height="44" opacity="0.2"/></g><g transform="translate(10,-6) scale(1,1)"><rect fill="#ffffff" stroke="none" x="10" y="56" width="98" height="44"/></g><g transform="translate(10,-6) scale(1,1)"><path fill="none" stroke="#000000" d="M 10 56 L 108 56 L 108 100 L 10 100 L 10 56 Z Z" stroke-miterlimit="10"/></g><g transform="translate(10,-6) scale(1,1)"><rect fill="#ffffff" stroke="none" x="0" y="63" width="20" height="10"/></g><g transform="translate(10,-6) scale(1,1)"><path fill="none" stroke="#000000" d="M 0 63 L 20 63 L 20 73 L 0 73 L 0 63 Z Z" stroke-miterlimit="10"/></g><g transform="translate(10,-6) scale(1,1)"><rect fill="#ffffff" stroke="none" x="0" y="83" width="20" height="10"/></g><g transform="translate(10,-6) scale(1,1)"><path fill="none" stroke="#000000" d="M 0 83 L 20 83 L 20 93 L 0 93 L 0 83 Z Z" stroke-miterlimit="10"/></g><g transform="translate(10,-6) scale(1,1)"><g><path fill="none" stroke="none"/><text fill="#000000" stroke="none" font-family="Arial" font-size="13px" font-style="normal" font-weight="bold" text-decoration="none" x="43" y="75.5">android</text></g></g><g transform="translate(10,-6) scale(1,1)"><rect fill="#C0C0C0" stroke="none" x="265" y="215" width="154" height="44" opacity="0.2"/></g><g transform="translate(10,-6) scale(1,1)"><rect fill="#ffffff" stroke="none" x="258" y="208" width="154" height="44"/></g><g transform="translate(10,-6) scale(1,1)"><path fill="none" stroke="#000000" d="M 258 208 L 412 208 L 412 252 L 258 252 L 258 208 Z Z" stroke-miterlimit="10"/></g><g transform="translate(10,-6) scale(1,1)"><rect fill="#ffffff" stroke="none" x="248" y="215" width="20" height="10"/></g><g transform="translate(10,-6) scale(1,1)"><path fill="none" stroke="#000000" d="M 248 215 L 268 215 L 268 225 L 248 225 L 248 215 Z Z" stroke-miterlimit="10"/></g><g transform="translate(10,-6) scale(1,1)"><rect fill="#ffffff" stroke="none" x="248" y="235" width="20" height="10"/></g><g transform="translate(10,-6) scale(1,1)"><path fill="none" stroke="#000000" d="M 248 235 L 268 235 L 268 245 L 248 245 L 248 235 Z Z" stroke-miterlimit="10"/></g><g transform="translate(10,-6) scale(1,1)"><g><path fill="none" stroke="none"/><text fill="#000000" stroke="none" font-family="Arial" font-size="13px" font-style="normal" font-weight="bold" text-decoration="none" x="281" y="227.5">baacst-service-1.0.0</text></g></g><g transform="translate(10,-6) scale(1,1)"><rect fill="#C0C0C0" stroke="none" x="577" y="215" width="148" height="44" opacity="0.2"/></g><g transform="translate(10,-6) scale(1,1)"><rect fill="#ffffff" stroke="none" x="570" y="208" width="148" height="44"/></g><g transform="translate(10,-6) scale(1,1)"><path fill="none" stroke="#000000" d="M 570 208 L 718 208 L 718 252 L 570 252 L 570 208 Z Z" stroke-miterlimit="10"/></g><g transform="translate(10,-6) scale(1,1)"><rect fill="#ffffff" stroke="none" x="560" y="215" width="20" height="10"/></g><g transform="translate(10,-6) scale(1,1)"><path fill="none" stroke="#000000" d="M 560 215 L 580 215 L 580 225 L 560 225 L 560 215 Z Z" stroke-miterlimit="10"/></g><g transform="translate(10,-6) scale(1,1)"><rect fill="#ffffff" stroke="none" x="560" y="235" width="20" height="10"/></g><g transform="translate(10,-6) scale(1,1)"><path fill="none" stroke="#000000" d="M 560 235 L 580 235 L 580 245 L 560 245 L 560 235 Z Z" stroke-miterlimit="10"/></g><g transform="translate(10,-6) scale(1,1)"><g><path fill="none" stroke="none"/><text fill="#000000" stroke="none" font-family="Arial" font-size="13px" font-style="normal" font-weight="normal" text-decoration="none" x="593" y="225.5">«Executable, JRE»</text></g></g><g transform="translate(10,-6) scale(1,1)"><g><path fill="none" stroke="none"/><text fill="#000000" stroke="none" font-family="Arial" font-size="13px" font-style="normal" font-weight="bold" text-decoration="none" x="587" y="240.5">JRE-8u151-Linux-x64</text></g></g><g transform="translate(10,-6) scale(1,1)"><rect fill="#C0C0C0" stroke="none" x="89" y="423" width="99" height="44" opacity="0.2"/></g><g transform="translate(10,-6) scale(1,1)"><rect fill="#ffffff" stroke="none" x="82" y="416" width="99" height="44"/></g><g transform="translate(10,-6) scale(1,1)"><path fill="none" stroke="#000000" d="M 82 416 L 181 416 L 181 460 L 82 460 L 82 416 Z Z" stroke-miterlimit="10"/></g><g transform="translate(10,-6) scale(1,1)"><rect fill="#ffffff" stroke="none" x="72" y="423" width="20" height="10"/></g><g transform="translate(10,-6) scale(1,1)"><path fill="none" stroke="#000000" d="M 72 423 L 92 423 L 92 433 L 72 433 L 72 423 Z Z" stroke-miterlimit="10"/></g><g transform="translate(10,-6) scale(1,1)"><rect fill="#ffffff" stroke="none" x="72" y="443" width="20" height="10"/></g><g transform="translate(10,-6) scale(1,1)"><path fill="none" stroke="#000000" d="M 72 443 L 92 443 L 92 453 L 72 453 L 72 443 Z Z" stroke-miterlimit="10"/></g><g transform="translate(10,-6) scale(1,1)"><g><path fill="none" stroke="none"/><text fill="#000000" stroke="none" font-family="Arial" font-size="13px" font-style="normal" font-weight="bold" text-decoration="none" x="99" y="435.5">hadoop-2.8.2</text></g></g><g transform="translate(10,-6) scale(1,1)"><rect fill="#C0C0C0" stroke="none" x="89" y="535" width="173" height="44" opacity="0.2"/></g><g transform="translate(10,-6) scale(1,1)"><rect fill="#ffffff" stroke="none" x="82" y="528" width="173" height="44"/></g><g transform="translate(10,-6) scale(1,1)"><path fill="none" stroke="#000000" d="M 82 528 L 255 528 L 255 572 L 82 572 L 82 528 Z Z" stroke-miterlimit="10"/></g><g transform="translate(10,-6) scale(1,1)"><rect fill="#ffffff" stroke="none" x="72" y="535" width="20" height="10"/></g><g transform="translate(10,-6) scale(1,1)"><path fill="none" stroke="#000000" d="M 72 535 L 92 535 L 92 545 L 72 545 L 72 535 Z Z" stroke-miterlimit="10"/></g><g transform="translate(10,-6) scale(1,1)"><rect fill="#ffffff" stroke="none" x="72" y="555" width="20" height="10"/></g><g transform="translate(10,-6) scale(1,1)"><path fill="none" stroke="#000000" d="M 72 555 L 92 555 L 92 565 L 72 565 L 72 555 Z Z" stroke-miterlimit="10"/></g><g transform="translate(10,-6) scale(1,1)"><g><path fill="none" stroke="none"/><text fill="#000000" stroke="none" font-family="Arial" font-size="13px" font-style="normal" font-weight="bold" text-decoration="none" x="99.5" y="547.5">ambari-server-2.6.0.0-267</text></g></g><g transform="translate(10,-6) scale(1,1)"><rect fill="#C0C0C0" stroke="none" x="297" y="535" width="169" height="44" opacity="0.2"/></g><g transform="translate(10,-6) scale(1,1)"><rect fill="#ffffff" stroke="none" x="290" y="528" width="169" height="44"/></g><g transform="translate(10,-6) scale(1,1)"><path fill="none" stroke="#000000" d="M 290 528 L 459 528 L 459 572 L 290 572 L 290 528 Z Z" stroke-miterlimit="10"/></g><g transform="translate(10,-6) scale(1,1)"><rect fill="#ffffff" stroke="none" x="280" y="535" width="20" height="10"/></g><g transform="translate(10,-6) scale(1,1)"><path fill="none" stroke="#000000" d="M 280 535 L 300 535 L 300 545 L 280 545 L 280 535 Z Z" stroke-miterlimit="10"/></g><g transform="translate(10,-6) scale(1,1)"><rect fill="#ffffff" stroke="none" x="280" y="555" width="20" height="10"/></g><g transform="translate(10,-6) scale(1,1)"><path fill="none" stroke="#000000" d="M 280 555 L 300 555 L 300 565 L 280 565 L 280 555 Z Z" stroke-miterlimit="10"/></g><g transform="translate(10,-6) scale(1,1)"><g><path fill="none" stroke="none"/><text fill="#000000" stroke="none" font-family="Arial" font-size="13px" font-style="normal" font-weight="bold" text-decoration="none" x="307.5" y="547.5">ambari-agent-2.6.0.0-267</text></g></g><g transform="translate(10,-6) scale(1,1)"><rect fill="#C0C0C0" stroke="none" x="305" y="423" width="125" height="44" opacity="0.2"/></g><g transform="translate(10,-6) scale(1,1)"><rect fill="#ffffff" stroke="none" x="298" y="416" width="125" height="44"/></g><g transform="translate(10,-6) scale(1,1)"><path fill="none" stroke="#000000" d="M 298 416 L 423 416 L 423 460 L 298 460 L 298 416 Z Z" stroke-miterlimit="10"/></g><g transform="translate(10,-6) scale(1,1)"><rect fill="#ffffff" stroke="none" x="288" y="423" width="20" height="10"/></g><g transform="translate(10,-6) scale(1,1)"><path fill="none" stroke="#000000" d="M 288 423 L 308 423 L 308 433 L 288 433 L 288 423 Z Z" stroke-miterlimit="10"/></g><g transform="translate(10,-6) scale(1,1)"><rect fill="#ffffff" stroke="none" x="288" y="443" width="20" height="10"/></g><g transform="translate(10,-6) scale(1,1)"><path fill="none" stroke="#000000" d="M 288 443 L 308 443 L 308 453 L 288 453 L 288 443 Z Z" stroke-miterlimit="10"/></g><g transform="translate(10,-6) scale(1,1)"><g><path fill="none" stroke="none"/><text fill="#000000" stroke="none" font-family="Arial" font-size="13px" font-style="normal" font-weight="bold" text-decoration="none" x="316" y="435.5">web-hdfs-rest-api</text></g></g><g transform="translate(10,-6) scale(1,1)"><rect fill="#ffffff" stroke="none" x="360" y="409" width="14" height="14"/></g><g transform="translate(10,-6) scale(1,1)"><path fill="none" stroke="#000000" d="M 360 409 L 374 409 L 374 423 L 360 423 L 360 409 Z Z" stroke-miterlimit="10"/></g><g transform="translate(10,-6) scale(1,1)"><g><path fill="none" stroke="none"/><text fill="#000000" stroke="none" font-family="Arial" font-size="13px" font-style="normal" font-weight="normal" text-decoration="none" x="315" y="411">50070</text></g></g><g transform="translate(10,-6) scale(1,1)"><path fill="#C0C0C0" stroke="none" d="M 366 346.5 C 366 340.1487248 371.1487248 335 377.5 335 C 383.8512752 335 389 340.1487248 389 346.5 C 389 352.8512752 383.8512752 358 377.5 358 C 371.1487248 358 366 352.8512752 366 346.5 Z" opacity="0.2"/></g><g transform="translate(10,-6) scale(1,1)"><path fill="none" stroke="#000000" d="M 358.68549603385105 341.0571825392998 A 11.5 11.5 0 0 1 381.31450396614895 336.9428174607002" stroke-miterlimit="10"/></g><g transform="translate(10,-6) scale(1,1)"><path fill="#ffffff" stroke="none" d="M 362 339.5 C 362 334.8055792 365.8055792 331 370.5 331 C 375.1944208 331 379 334.8055792 379 339.5 C 379 344.1944208 375.1944208 348 370.5 348 C 365.8055792 348 362 344.1944208 362 339.5 Z"/></g><g transform="translate(10,-6) scale(1,1)"><path fill="none" stroke="#000000" d="M 362 339.5 C 362 334.8055792 365.8055792 331 370.5 331 C 375.1944208 331 379 334.8055792 379 339.5 C 379 344.1944208 375.1944208 348 370.5 348 C 365.8055792 348 362 344.1944208 362 339.5 Z" stroke-miterlimit="10"/></g><g transform="translate(10,-6) scale(1,1)"><g><path fill="none" stroke="none"/><text fill="#000000" stroke="none" font-family="Arial" font-size="13px" font-style="normal" font-weight="bold" text-decoration="none" x="353" y="370.5">REST</text></g></g><g transform="translate(10,-6) scale(1,1)"><path fill="none" stroke="#000000" d="M 370 409 L 370 351" stroke-miterlimit="10"/></g><g transform="translate(10,-6) scale(1,1)"><path fill="none" stroke="#000000" d="M 368 252 L 368 328" stroke-miterlimit="10"/></g><g transform="translate(10,-6) scale(1,1)"><path fill="none" stroke="#000000" d="M 412 232 L 560 232" stroke-miterlimit="10" stroke-dasharray="3"/></g><g transform="translate(10,-6) scale(1,1)"><path fill="none" stroke="#000000" d="M 549.8373251423759 236.209517756016 L 560 232 L 549.8373251423758 227.790482243984" stroke-miterlimit="10"/></g><g transform="translate(10,-6) scale(1,1)"><path fill="none" stroke="#000000" d="M 287 438 L 182 438" stroke-miterlimit="10" stroke-dasharray="3"/></g><g transform="translate(10,-6) scale(1,1)"><path fill="none" stroke="#000000" d="M 192.16267485762415 433.790482243984 L 182 438 L 192.16267485762415 442.209517756016" stroke-miterlimit="10"/></g><g transform="translate(10,-6) scale(1,1)"><rect fill="#ffffff" stroke="none" x="384" y="201" width="14" height="14"/></g><g transform="translate(10,-6) scale(1,1)"><path fill="none" stroke="#000000" d="M 384 201 L 398 201 L 398 215 L 384 215 L 384 201 Z Z" stroke-miterlimit="10"/></g><g transform="translate(10,-6) scale(1,1)"><g><path fill="none" stroke="none"/><text fill="#000000" stroke="none" font-family="Arial" font-size="13px" font-style="normal" font-weight="normal" text-decoration="none" x="399" y="198">25100</text></g></g><g transform="translate(10,-6) scale(1,1)"><path fill="#C0C0C0" stroke="none" d="M 390 122.5 C 390 116.1487248 395.1487248 111 401.5 111 C 407.8512752 111 413 116.1487248 413 122.5 C 413 128.8512752 407.8512752 134 401.5 134 C 395.1487248 134 390 128.8512752 390 122.5 Z" opacity="0.2"/></g><g transform="translate(10,-6) scale(1,1)"><path fill="none" stroke="#000000" d="M 382.68549603385105 117.0571825392998 A 11.5 11.5 0 0 1 405.31450396614895 112.9428174607002" stroke-miterlimit="10"/></g><g transform="translate(10,-6) scale(1,1)"><path fill="#ffffff" stroke="none" d="M 386 115.5 C 386 110.8055792 389.8055792 107 394.5 107 C 399.1944208 107 403 110.8055792 403 115.5 C 403 120.1944208 399.1944208 124 394.5 124 C 389.8055792 124 386 120.1944208 386 115.5 Z"/></g><g transform="translate(10,-6) scale(1,1)"><path fill="none" stroke="#000000" d="M 386 115.5 C 386 110.8055792 389.8055792 107 394.5 107 C 399.1944208 107 403 110.8055792 403 115.5 C 403 120.1944208 399.1944208 124 394.5 124 C 389.8055792 124 386 120.1944208 386 115.5 Z" stroke-miterlimit="10"/></g><g transform="translate(10,-6) scale(1,1)"><g><path fill="none" stroke="none"/><text fill="#000000" stroke="none" font-family="Arial" font-size="13px" font-style="normal" font-weight="bold" text-decoration="none" x="377" y="146.5">REST</text></g></g><g transform="translate(10,-6) scale(1,1)"><path fill="none" stroke="#000000" d="M 394 201 L 394 127" stroke-miterlimit="10"/></g><g transform="translate(10,-6) scale(1,1)"><path fill="none" stroke="#000000" d="M 392 80 L 392 104" stroke-miterlimit="10"/></g><g transform="translate(10,-6) scale(1,1)"><rect fill="#ffffff" stroke="none" x="326" y="73" width="14" height="14"/></g><g transform="translate(10,-6) scale(1,1)"><path fill="none" stroke="#000000" d="M 326 73 L 340 73 L 340 87 L 326 87 L 326 73 Z Z" stroke-miterlimit="10"/></g><g transform="translate(10,-6) scale(1,1)"><g><path fill="none" stroke="none"/><text fill="#000000" stroke="none" font-family="Arial" font-size="13px" font-style="normal" font-weight="normal" text-decoration="none" x="317" y="107">25200</text></g></g><g transform="translate(10,-6) scale(1,1)"><path fill="#C0C0C0" stroke="none" d="M 222 82.5 C 222 76.1487248 227.1487248 71 233.5 71 C 239.8512752 71 245 76.1487248 245 82.5 C 245 88.8512752 239.8512752 94 233.5 94 C 227.1487248 94 222 88.8512752 222 82.5 Z" opacity="0.2"/></g><g transform="translate(10,-6) scale(1,1)"><path fill="none" stroke="#000000" d="M 226 86.5 A 11.5 11.5 0 0 1 226 63.5" stroke-miterlimit="10"/></g><g transform="translate(10,-6) scale(1,1)"><path fill="#ffffff" stroke="none" d="M 218 75.5 C 218 70.8055792 221.8055792 67 226.5 67 C 231.1944208 67 235 70.8055792 235 75.5 C 235 80.1944208 231.1944208 84 226.5 84 C 221.8055792 84 218 80.1944208 218 75.5 Z"/></g><g transform="translate(10,-6) scale(1,1)"><path fill="none" stroke="#000000" d="M 218 75.5 C 218 70.8055792 221.8055792 67 226.5 67 C 231.1944208 67 235 70.8055792 235 75.5 C 235 80.1944208 231.1944208 84 226.5 84 C 221.8055792 84 218 80.1944208 218 75.5 Z" stroke-miterlimit="10"/></g><g transform="translate(10,-6) scale(1,1)"><g><path fill="none" stroke="none"/><text fill="#000000" stroke="none" font-family="Arial" font-size="13px" font-style="normal" font-weight="bold" text-decoration="none" x="209" y="106.5">REST</text></g></g><g transform="translate(10,-6) scale(1,1)"><path fill="none" stroke="#000000" d="M 326 75 L 238 75" stroke-miterlimit="10"/></g><g transform="translate(10,-6) scale(1,1)"><path fill="none" stroke="#000000" d="M 108 75 L 215 75" stroke-miterlimit="10"/></g><g transform="translate(10,-6) scale(1,1)"><rect fill="#C0C0C0" stroke="none" x="77" y="327" width="148" height="44" opacity="0.2"/></g><g transform="translate(10,-6) scale(1,1)"><rect fill="#ffffff" stroke="none" x="70" y="320" width="148" height="44"/></g><g transform="translate(10,-6) scale(1,1)"><path fill="none" stroke="#000000" d="M 70 320 L 218 320 L 218 364 L 70 364 L 70 320 Z Z" stroke-miterlimit="10"/></g><g transform="translate(10,-6) scale(1,1)"><rect fill="#ffffff" stroke="none" x="60" y="327" width="20" height="10"/></g><g transform="translate(10,-6) scale(1,1)"><path fill="none" stroke="#000000" d="M 60 327 L 80 327 L 80 337 L 60 337 L 60 327 Z Z" stroke-miterlimit="10"/></g><g transform="translate(10,-6) scale(1,1)"><rect fill="#ffffff" stroke="none" x="60" y="347" width="20" height="10"/></g><g transform="translate(10,-6) scale(1,1)"><path fill="none" stroke="#000000" d="M 60 347 L 80 347 L 80 357 L 60 357 L 60 347 Z Z" stroke-miterlimit="10"/></g><g transform="translate(10,-6) scale(1,1)"><g><path fill="none" stroke="none"/><text fill="#000000" stroke="none" font-family="Arial" font-size="13px" font-style="normal" font-weight="normal" text-decoration="none" x="93" y="337.5">«Executable, JRE»</text></g></g><g transform="translate(10,-6) scale(1,1)"><g><path fill="none" stroke="none"/><text fill="#000000" stroke="none" font-family="Arial" font-size="13px" font-style="normal" font-weight="bold" text-decoration="none" x="87" y="352.5">JRE-8u151-Linux-x64</text></g></g><g transform="translate(10,-6) scale(1,1)"><path fill="none" stroke="#000000" d="M 136 416 L 136 364" stroke-miterlimit="10" stroke-dasharray="3"/></g><g transform="translate(10,-6) scale(1,1)"><path fill="none" stroke="#000000" d="M 140.209517756016 374.16267485762415 L 136 364 L 131.790482243984 374.16267485762415" stroke-miterlimit="10"/></g><g transform="translate(10,-6) scale(1,1)"><rect fill="#C0C0C0" stroke="none" x="577" y="319" width="181" height="56" opacity="0.2"/></g><g transform="translate(10,-6) scale(1,1)"><rect fill="#ffffff" stroke="none" x="570" y="312" width="181" height="56"/></g><g transform="translate(10,-6) scale(1,1)"><path fill="none" stroke="#000000" d="M 570 312 L 751 312 L 751 368 L 570 368 L 570 312 Z Z" stroke-miterlimit="10"/></g><g transform="translate(10,-6) scale(1,1)"><rect fill="#ffffff" stroke="none" x="560" y="319" width="20" height="10"/></g><g transform="translate(10,-6) scale(1,1)"><path fill="none" stroke="#000000" d="M 560 319 L 580 319 L 580 329 L 560 329 L 560 319 Z Z" stroke-miterlimit="10"/></g><g transform="translate(10,-6) scale(1,1)"><rect fill="#ffffff" stroke="none" x="560" y="339" width="20" height="10"/></g><g transform="translate(10,-6) scale(1,1)"><path fill="none" stroke="#000000" d="M 560 339 L 580 339 L 580 349 L 560 349 L 560 339 Z Z" stroke-miterlimit="10"/></g><g transform="translate(10,-6) scale(1,1)"><g><path fill="none" stroke="none"/><text fill="#000000" stroke="none" font-family="Arial" font-size="13px" font-style="normal" font-weight="bold" text-decoration="none" x="590.5" y="331.5">data-access-service-1.0.0</text></g></g><g transform="translate(10,-6) scale(1,1)"><path fill="none" stroke="#000000" d="M 642 312 L 642 252" stroke-miterlimit="10" stroke-dasharray="3"/></g><g transform="translate(10,-6) scale(1,1)"><path fill="none" stroke="#000000" d="M 646.209517756016 262.16267485762415 L 642 252 L 637.790482243984 262.16267485762415" stroke-miterlimit="10"/></g><g transform="translate(10,-6) scale(1,1)"><rect fill="#C0C0C0" stroke="none" x="1038" y="327" width="182" height="44" opacity="0.2"/></g><g transform="translate(10,-6) scale(1,1)"><rect fill="#ffffff" stroke="none" x="1031" y="320" width="182" height="44"/></g><g transform="translate(10,-6) scale(1,1)"><path fill="none" stroke="#000000" d="M 1031 320 L 1213 320 L 1213 364 L 1031 364 L 1031 320 Z Z" stroke-miterlimit="10"/></g><g transform="translate(10,-6) scale(1,1)"><rect fill="#ffffff" stroke="none" x="1021" y="327" width="20" height="10"/></g><g transform="translate(10,-6) scale(1,1)"><path fill="none" stroke="#000000" d="M 1021 327 L 1041 327 L 1041 337 L 1021 337 L 1021 327 Z Z" stroke-miterlimit="10"/></g><g transform="translate(10,-6) scale(1,1)"><rect fill="#ffffff" stroke="none" x="1021" y="347" width="20" height="10"/></g><g transform="translate(10,-6) scale(1,1)"><path fill="none" stroke="#000000" d="M 1021 347 L 1041 347 L 1041 357 L 1021 357 L 1021 347 Z Z" stroke-miterlimit="10"/></g><g transform="translate(10,-6) scale(1,1)"><g><path fill="none" stroke="none"/><text fill="#000000" stroke="none" font-family="Arial" font-size="13px" font-style="normal" font-weight="normal" text-decoration="none" x="1113" y="337.5">«jar»</text></g></g><g transform="translate(10,-6) scale(1,1)"><g><path fill="none" stroke="none"/><text fill="#000000" stroke="none" font-family="Arial" font-size="13px" font-style="normal" font-weight="bold" text-decoration="none" x="1049.5" y="352.5">Postgresql-9.1-901-1.jdbc4</text></g></g><g transform="translate(10,-6) scale(1,1)"><rect fill="#ffffff" stroke="none" x="1027" y="357" width="14" height="14"/></g><g transform="translate(10,-6) scale(1,1)"><path fill="none" stroke="#000000" d="M 1027 357 L 1041 357 L 1041 371 L 1027 371 L 1027 357 Z Z" stroke-miterlimit="10"/></g><g transform="translate(10,-6) scale(1,1)"><g><path fill="none" stroke="none"/><text fill="#000000" stroke="none" font-family="Arial" font-size="13px" font-style="normal" font-weight="normal" text-decoration="none" x="1024.5" y="387">5432</text></g></g><g transform="translate(10,-6) scale(1,1)"><path fill="#C0C0C0" stroke="none" d="M 950 370.5 C 950 364.1487248 955.1487248 359 961.5 359 C 967.8512752 359 973 364.1487248 973 370.5 C 973 376.8512752 967.8512752 382 961.5 382 C 955.1487248 382 950 376.8512752 950 370.5 Z" opacity="0.2"/></g><g transform="translate(10,-6) scale(1,1)"><path fill="none" stroke="#000000" d="M 954 374.5 A 11.5 11.5 0 0 1 954 351.5" stroke-miterlimit="10"/></g><g transform="translate(10,-6) scale(1,1)"><path fill="#ffffff" stroke="none" d="M 946 363.5 C 946 358.8055792 949.8055792 355 954.5 355 C 959.1944208 355 963 358.8055792 963 363.5 C 963 368.1944208 959.1944208 372 954.5 372 C 949.8055792 372 946 368.1944208 946 363.5 Z"/></g><g transform="translate(10,-6) scale(1,1)"><path fill="none" stroke="#000000" d="M 946 363.5 C 946 358.8055792 949.8055792 355 954.5 355 C 959.1944208 355 963 358.8055792 963 363.5 C 963 368.1944208 959.1944208 372 954.5 372 C 949.8055792 372 946 368.1944208 946 363.5 Z" stroke-miterlimit="10"/></g><g transform="translate(10,-6) scale(1,1)"><g><path fill="none" stroke="none"/><text fill="#000000" stroke="none" font-family="Arial" font-size="13px" font-style="normal" font-weight="bold" text-decoration="none" x="938.5" y="394.5">tcp/ip</text></g></g><g transform="translate(10,-6) scale(1,1)"><path fill="none" stroke="#000000" d="M 1027 363 L 966 363" stroke-miterlimit="10"/></g><g transform="translate(10,-6) scale(1,1)"><path fill="none" stroke="#000000" d="M 751 363 L 943 363" stroke-miterlimit="10"/></g><g transform="translate(10,-6) scale(1,1)"><rect fill="#ffffff" stroke="none" x="579" y="305" width="14" height="14"/></g><g transform="translate(10,-6) scale(1,1)"><path fill="none" stroke="#000000" d="M 579 305 L 593 305 L 593 319 L 579 319 L 579 305 Z Z" stroke-miterlimit="10"/></g><g transform="translate(10,-6) scale(1,1)"><g><path fill="none" stroke="none"/><text fill="#000000" stroke="none" font-family="Arial" font-size="13px" font-style="normal" font-weight="normal" text-decoration="none" x="591" y="300">25002</text></g></g><g transform="translate(10,-6) scale(1,1)"><path fill="#C0C0C0" stroke="none" d="M 486 282.5 C 486 276.1487248 491.1487248 271 497.5 271 C 503.8512752 271 509 276.1487248 509 282.5 C 509 288.8512752 503.8512752 294 497.5 294 C 491.1487248 294 486 288.8512752 486 282.5 Z" opacity="0.2"/></g><g transform="translate(10,-6) scale(1,1)"><path fill="none" stroke="#000000" d="M 490 286.5 A 11.5 11.5 0 0 1 490 263.5" stroke-miterlimit="10"/></g><g transform="translate(10,-6) scale(1,1)"><path fill="#ffffff" stroke="none" d="M 482 275.5 C 482 270.8055792 485.8055792 267 490.5 267 C 495.1944208 267 499 270.8055792 499 275.5 C 499 280.1944208 495.1944208 284 490.5 284 C 485.8055792 284 482 280.1944208 482 275.5 Z"/></g><g transform="translate(10,-6) scale(1,1)"><path fill="none" stroke="#000000" d="M 482 275.5 C 482 270.8055792 485.8055792 267 490.5 267 C 495.1944208 267 499 270.8055792 499 275.5 C 499 280.1944208 495.1944208 284 490.5 284 C 485.8055792 284 482 280.1944208 482 275.5 Z" stroke-miterlimit="10"/></g><g transform="translate(10,-6) scale(1,1)"><g><path fill="none" stroke="none"/><text fill="#000000" stroke="none" font-family="Arial" font-size="13px" font-style="normal" font-weight="bold" text-decoration="none" x="473" y="306.5">REST</text></g></g><g transform="translate(10,-6) scale(1,1)"><path fill="none" stroke="#000000" d="M 579 305 L 579 275 L 502 275" stroke-miterlimit="10"/></g><g transform="translate(10,-6) scale(1,1)"><path fill="none" stroke="#000000" d="M 393 252 L 393 275 L 479 275" stroke-miterlimit="10"/></g></g></svg>