<svg version="1.1" xmlns="http://www.w3.org/2000/svg" xmlns:xlink="http://www.w3.org/1999/xlink" width="692" height="468"><defs/><g><g transform="translate(-46,-86) scale(1,1)"><rect fill="#C0C0C0" stroke="none" x="207" y="103" width="528" height="448" opacity="0.2"/></g><g transform="translate(-46,-86) scale(1,1)"><rect fill="#ffffff" stroke="none" x="200" y="96" width="528" height="448"/></g><g transform="translate(-46,-86) scale(1,1)"><path fill="none" stroke="#000000" d="M 200 96 L 728 96 L 728 544 L 200 544 L 200 96 Z Z" stroke-miterlimit="10"/></g><g transform="translate(-46,-86) scale(1,1)"><g><path fill="none" stroke="none"/><text fill="#000000" stroke="none" font-family="Arial" font-size="13px" font-style="normal" font-weight="bold" text-decoration="none" x="372.5" y="115.5">Consulter l'état de ses comptes</text></g></g><g transform="translate(-46,-86) scale(1,1)"><path fill="#ffffff" stroke="none" d="M 71.82072727272727 273.68 C 71.82072727272727 268.886167936 75.70656959767273 265 80.5 265 C 85.29343040232727 265 89.17927272727273 268.886167936 89.17927272727273 273.68 C 89.17927272727273 278.473832064 85.29343040232727 282.36 80.5 282.36 C 75.70656959767273 282.36 71.82072727272727 278.473832064 71.82072727272727 273.68 Z"/></g><g transform="translate(-46,-86) scale(1,1)"><path fill="none" stroke="#000000" d="M 71.82072727272727 273.68 C 71.82072727272727 268.886167936 75.70656959767273 265 80.5 265 C 85.29343040232727 265 89.17927272727273 268.886167936 89.17927272727273 273.68 C 89.17927272727273 278.473832064 85.29343040232727 282.36 80.5 282.36 C 75.70656959767273 282.36 71.82072727272727 278.473832064 71.82072727272727 273.68 Z" stroke-miterlimit="10"/></g><g transform="translate(-46,-86) scale(1,1)"><path fill="none" stroke="#000000" d="M 80.5 282.36 L 80.5 299.64" stroke-miterlimit="10"/></g><g transform="translate(-46,-86) scale(1,1)"><path fill="none" stroke="#000000" d="M 71.31018181818182 288.84 L 89.68981818181818 288.84" stroke-miterlimit="10"/></g><g transform="translate(-46,-86) scale(1,1)"><path fill="none" stroke="#000000" d="M 80.5 299.64 L 67.73636363636363 317" stroke-miterlimit="10"/></g><g transform="translate(-46,-86) scale(1,1)"><path fill="none" stroke="#000000" d="M 80.5 299.64 L 93.26363636363637 317" stroke-miterlimit="10"/></g><g transform="translate(-46,-86) scale(1,1)"><g><path fill="none" stroke="none"/><text fill="#000000" stroke="none" font-family="Arial" font-size="13px" font-style="normal" font-weight="bold" text-decoration="none" x="64" y="337.5">Client</text></g></g><g transform="translate(-46,-86) scale(1,1)"><path fill="#C0C0C0" stroke="none" d="M 271 272 C 271 262.6111584 358.9760368 255 467.5 255 C 576.0239632 255 664 262.6111584 664 272 C 664 281.3888416 576.0239632 289 467.5 289 C 358.9760368 289 271 281.3888416 271 272 Z" opacity="0.2"/></g><g transform="translate(-46,-86) scale(1,1)"><path fill="#ffffff" stroke="none" d="M 264 265 C 264 255.6111584 351.9760368 248 460.5 248 C 569.0239632 248 657 255.6111584 657 265 C 657 274.3888416 569.0239632 282 460.5 282 C 351.9760368 282 264 274.3888416 264 265 Z"/></g><g transform="translate(-46,-86) scale(1,1)"><path fill="none" stroke="#000000" d="M 264 265 C 264 255.6111584 351.9760368 248 460.5 248 C 569.0239632 248 657 255.6111584 657 265 C 657 274.3888416 569.0239632 282 460.5 282 C 351.9760368 282 264 274.3888416 264 265 Z" stroke-miterlimit="10"/></g><g transform="translate(-46,-86) scale(1,1)"><g><path fill="none" stroke="none"/><text fill="#000000" stroke="none" font-family="Arial" font-size="13px" font-style="normal" font-weight="bold" text-decoration="none" x="335.5" y="272">Consulter la liste des transactions du client</text></g></g><g transform="translate(-46,-86) scale(1,1)"><path fill="#C0C0C0" stroke="none" d="M 279 344 C 279 334.6111584 366.9760368 327 475.5 327 C 584.0239632 327 672 334.6111584 672 344 C 672 353.3888416 584.0239632 361 475.5 361 C 366.9760368 361 279 353.3888416 279 344 Z" opacity="0.2"/></g><g transform="translate(-46,-86) scale(1,1)"><path fill="#ffffff" stroke="none" d="M 272 337 C 272 327.6111584 359.9760368 320 468.5 320 C 577.0239632 320 665 327.6111584 665 337 C 665 346.3888416 577.0239632 354 468.5 354 C 359.9760368 354 272 346.3888416 272 337 Z"/></g><g transform="translate(-46,-86) scale(1,1)"><path fill="none" stroke="#000000" d="M 272 337 C 272 327.6111584 359.9760368 320 468.5 320 C 577.0239632 320 665 327.6111584 665 337 C 665 346.3888416 577.0239632 354 468.5 354 C 359.9760368 354 272 346.3888416 272 337 Z" stroke-miterlimit="10"/></g><g transform="translate(-46,-86) scale(1,1)"><g><path fill="none" stroke="none"/><text fill="#000000" stroke="none" font-family="Arial" font-size="13px" font-style="normal" font-weight="bold" text-decoration="none" x="343.5" y="344">Consulter la liste des transactions du client</text></g></g><g transform="translate(-46,-86) scale(1,1)"><path fill="none" stroke="#000000" d="M 280 283 L 106 300" stroke-miterlimit="10"/></g><g transform="translate(-46,-86) scale(1,1)"><path fill="none" stroke="#000000" d="M 271 320 L 106 305" stroke-miterlimit="10"/></g></g></svg>