<svg version="1.1" xmlns="http://www.w3.org/2000/svg" xmlns:xlink="http://www.w3.org/1999/xlink" width="810.00146484375" height="433"><defs/><g><g transform="translate(-13,-14) scale(1,1)"><rect fill="#C0C0C0" stroke="none" x="30" y="31" width="412.56494140625" height="57" opacity="0.2"/></g><g transform="translate(-13,-14) scale(1,1)"><rect fill="#ffffff" stroke="none" x="23" y="24" width="412.56494140625" height="57"/></g><g transform="translate(-13,-14) scale(1,1)"><path fill="none" stroke="#000000" d="M 23 24 L 435.56494140625 24 L 435.56494140625 81 L 23 81 L 23 24 Z Z" stroke-miterlimit="10"/></g><g transform="translate(-13,-14) scale(1,1)"><path fill="none" stroke="#000000" d="M 23 49 L 435.56494140625 49" stroke-miterlimit="10"/></g><g transform="translate(-13,-14) scale(1,1)"><path fill="none" stroke="#000000" d="M 23 59 L 435.56494140625 59" stroke-miterlimit="10"/></g><g transform="translate(-13,-14) scale(1,1)"><g><path fill="none" stroke="none"/><text fill="#000000" stroke="none" font-family="Arial" font-size="13px" font-style="normal" font-weight="bold" text-decoration="none" x="168.951171875" y="43.5">NotificationController</text></g></g><g transform="translate(-13,-14) scale(1,1)"><g><path fill="none" stroke="none"/><text fill="#000000" stroke="none" font-family="Arial" font-size="13px" font-style="normal" font-weight="normal" text-decoration="none" x="28" y="76.5">+getClientNotifications(long): ResponseEntity&lt;List&lt;NotificationDTO&gt;&gt;</text></g></g><g transform="translate(-13,-14) scale(1,1)"><rect fill="#C0C0C0" stroke="none" x="83" y="199" width="306.33056640625" height="57" opacity="0.2"/></g><g transform="translate(-13,-14) scale(1,1)"><rect fill="#ffffff" stroke="none" x="76" y="192" width="306.33056640625" height="57"/></g><g transform="translate(-13,-14) scale(1,1)"><path fill="none" stroke="#000000" d="M 76 192 L 382.33056640625 192 L 382.33056640625 249 L 76 249 L 76 192 Z Z" stroke-miterlimit="10"/></g><g transform="translate(-13,-14) scale(1,1)"><path fill="none" stroke="#000000" d="M 76 217 L 382.33056640625 217" stroke-miterlimit="10"/></g><g transform="translate(-13,-14) scale(1,1)"><path fill="none" stroke="#000000" d="M 76 227 L 382.33056640625 227" stroke-miterlimit="10"/></g><g transform="translate(-13,-14) scale(1,1)"><g><path fill="none" stroke="none"/><text fill="#000000" stroke="none" font-family="Arial" font-size="13px" font-style="normal" font-weight="bold" text-decoration="none" x="175.337158203125" y="211.5">NotificationService</text></g></g><g transform="translate(-13,-14) scale(1,1)"><g><path fill="none" stroke="none"/><text fill="#000000" stroke="none" font-family="Arial" font-size="13px" font-style="normal" font-weight="normal" text-decoration="none" x="81" y="244.5">+getClientNotifications(long): List&lt;NotificationDTO&gt;</text></g></g><g transform="translate(-13,-14) scale(1,1)"><rect fill="#C0C0C0" stroke="none" x="576" y="199" width="186.75341796875" height="57" opacity="0.2"/></g><g transform="translate(-13,-14) scale(1,1)"><rect fill="#ffffff" stroke="none" x="569" y="192" width="186.75341796875" height="57"/></g><g transform="translate(-13,-14) scale(1,1)"><path fill="none" stroke="#000000" d="M 569 192 L 755.75341796875 192 L 755.75341796875 249 L 569 249 L 569 192 Z Z" stroke-miterlimit="10"/></g><g transform="translate(-13,-14) scale(1,1)"><path fill="none" stroke="#000000" d="M 569 217 L 755.75341796875 217" stroke-miterlimit="10"/></g><g transform="translate(-13,-14) scale(1,1)"><path fill="none" stroke="#000000" d="M 569 240 L 755.75341796875 240" stroke-miterlimit="10"/></g><g transform="translate(-13,-14) scale(1,1)"><g><path fill="none" stroke="none"/><text fill="#000000" stroke="none" font-family="Arial" font-size="13px" font-style="normal" font-weight="bold" text-decoration="none" x="599.154052734375" y="211.5">NotificationRepository</text></g></g><g transform="translate(-13,-14) scale(1,1)"><g><path fill="none" stroke="none"/><text fill="#000000" stroke="none" font-family="Arial" font-size="13px" font-style="normal" font-weight="normal" text-decoration="none" x="574" y="234.5">-entityManager: EntityManager</text></g></g><g transform="translate(-13,-14) scale(1,1)"><rect fill="#C0C0C0" stroke="none" x="610" y="343" width="119.55712890625" height="72" opacity="0.2"/></g><g transform="translate(-13,-14) scale(1,1)"><rect fill="#ffffff" stroke="none" x="603" y="336" width="119.55712890625" height="72"/></g><g transform="translate(-13,-14) scale(1,1)"><path fill="none" stroke="#000000" d="M 603 336 L 722.55712890625 336 L 722.55712890625 408 L 603 408 L 603 336 Z Z" stroke-miterlimit="10"/></g><g transform="translate(-13,-14) scale(1,1)"><path fill="none" stroke="#000000" d="M 603 361 L 722.55712890625 361" stroke-miterlimit="10"/></g><g transform="translate(-13,-14) scale(1,1)"><path fill="none" stroke="#000000" d="M 603 399 L 722.55712890625 399" stroke-miterlimit="10"/></g><g transform="translate(-13,-14) scale(1,1)"><g><path fill="none" stroke="none"/><text fill="#000000" stroke="none" font-family="Arial" font-size="13px" font-style="normal" font-weight="bold" text-decoration="none" x="630.62451171875" y="355.5">Notification</text></g></g><g transform="translate(-13,-14) scale(1,1)"><g><path fill="none" stroke="none"/><text fill="#000000" stroke="none" font-family="Arial" font-size="13px" font-style="normal" font-weight="normal" text-decoration="none" x="608" y="378.5">-idNotification: long</text></g></g><g transform="translate(-13,-14) scale(1,1)"><g><path fill="none" stroke="none"/><text fill="#000000" stroke="none" font-family="Arial" font-size="13px" font-style="normal" font-weight="normal" text-decoration="none" x="608" y="393.5">-read: boolean</text></g></g><g transform="translate(-13,-14) scale(1,1)"><rect fill="#C0C0C0" stroke="none" x="518" y="39" width="302.00146484375" height="70" opacity="0.2"/></g><g transform="translate(-13,-14) scale(1,1)"><rect fill="#ffffff" stroke="none" x="511" y="32" width="302.00146484375" height="70"/></g><g transform="translate(-13,-14) scale(1,1)"><path fill="none" stroke="#000000" d="M 511 32 L 813.00146484375 32 L 813.00146484375 102 L 511 102 L 511 32 Z Z" stroke-miterlimit="10"/></g><g transform="translate(-13,-14) scale(1,1)"><path fill="none" stroke="#000000" d="M 511 70 L 813.00146484375 70" stroke-miterlimit="10"/></g><g transform="translate(-13,-14) scale(1,1)"><path fill="none" stroke="#000000" d="M 511 80 L 813.00146484375 80" stroke-miterlimit="10"/></g><g transform="translate(-13,-14) scale(1,1)"><g><path fill="none" stroke="none"/><text fill="#000000" stroke="none" font-family="Arial" font-size="13px" font-style="normal" font-weight="normal" text-decoration="none" x="629.84033203125" y="49.5">«interface»</text></g></g><g transform="translate(-13,-14) scale(1,1)"><g><path fill="none" stroke="none"/><text fill="#000000" stroke="none" font-family="Arial" font-size="13px" font-style="normal" font-weight="bold" text-decoration="none" x="596.97216796875" y="64.5">INotificationRepository</text></g></g><g transform="translate(-13,-14) scale(1,1)"><g><path fill="none" stroke="none"/><text fill="#000000" stroke="none" font-family="Arial" font-size="13px" font-style="normal" font-weight="normal" text-decoration="none" x="516" y="97.5">+getCustomerNotifications(long): List&lt;Notification&gt;</text></g></g><g transform="translate(-13,-14) scale(1,1)"><path fill="none" stroke="#000000" d="M 229 82 L 229 191" stroke-miterlimit="10"/></g><g transform="translate(-13,-14) scale(1,1)"><path fill="none" stroke="#000000" d="M 224.790482243984 180.83732514237585 L 229 191 L 233.209517756016 180.83732514237585" stroke-miterlimit="10"/></g><g transform="translate(-13,-14) scale(1,1)"><path fill="none" stroke="#000000" d="M 383 220 L 568 220" stroke-miterlimit="10"/></g><g transform="translate(-13,-14) scale(1,1)"><path fill="none" stroke="#000000" d="M 557.8373251423759 224.209517756016 L 568 220 L 557.8373251423758 215.790482243984" stroke-miterlimit="10"/></g><g transform="translate(-13,-14) scale(1,1)"><path fill="none" stroke="#000000" d="M 662 250 L 662 335" stroke-miterlimit="10"/></g><g transform="translate(-13,-14) scale(1,1)"><path fill="none" stroke="#000000" d="M 657.790482243984 324.83732514237585 L 662 335 L 666.209517756016 324.83732514237585" stroke-miterlimit="10"/></g><g transform="translate(-13,-14) scale(1,1)"><rect fill="#C0C0C0" stroke="none" x="163" y="327" width="147.00439453125" height="117" opacity="0.2"/></g><g transform="translate(-13,-14) scale(1,1)"><rect fill="#ffffff" stroke="none" x="156" y="320" width="147.00439453125" height="117"/></g><g transform="translate(-13,-14) scale(1,1)"><path fill="none" stroke="#000000" d="M 156 320 L 303.00439453125 320 L 303.00439453125 437 L 156 437 L 156 320 Z Z" stroke-miterlimit="10"/></g><g transform="translate(-13,-14) scale(1,1)"><path fill="none" stroke="#000000" d="M 156 345 L 303.00439453125 345" stroke-miterlimit="10"/></g><g transform="translate(-13,-14) scale(1,1)"><path fill="none" stroke="#000000" d="M 156 428 L 303.00439453125 428" stroke-miterlimit="10"/></g><g transform="translate(-13,-14) scale(1,1)"><g><path fill="none" stroke="none"/><text fill="#000000" stroke="none" font-family="Arial" font-size="13px" font-style="normal" font-weight="bold" text-decoration="none" x="183.627685546875" y="339.5">NotificationDTO</text></g></g><g transform="translate(-13,-14) scale(1,1)"><g><path fill="none" stroke="none"/><text fill="#000000" stroke="none" font-family="Arial" font-size="13px" font-style="normal" font-weight="normal" text-decoration="none" x="161" y="362.5">-idAccount: String</text></g></g><g transform="translate(-13,-14) scale(1,1)"><g><path fill="none" stroke="none"/><text fill="#000000" stroke="none" font-family="Arial" font-size="13px" font-style="normal" font-weight="normal" text-decoration="none" x="161" y="377.5">-amount: BigDecimal</text></g></g><g transform="translate(-13,-14) scale(1,1)"><g><path fill="none" stroke="none"/><text fill="#000000" stroke="none" font-family="Arial" font-size="13px" font-style="normal" font-weight="normal" text-decoration="none" x="161" y="392.5">-date: String</text></g></g><g transform="translate(-13,-14) scale(1,1)"><g><path fill="none" stroke="none"/><text fill="#000000" stroke="none" font-family="Arial" font-size="13px" font-style="normal" font-weight="normal" text-decoration="none" x="161" y="407.5">-transactionType: String</text></g></g><g transform="translate(-13,-14) scale(1,1)"><g><path fill="none" stroke="none"/><text fill="#000000" stroke="none" font-family="Arial" font-size="13px" font-style="normal" font-weight="normal" text-decoration="none" x="161" y="422.5">-read: boolean</text></g></g><g transform="translate(-13,-14) scale(1,1)"><path fill="none" stroke="#000000" d="M 662 191 L 662 103" stroke-miterlimit="10" stroke-dasharray="3"/></g><g transform="translate(-13,-14) scale(1,1)"><path fill="none" stroke="#000000" d="M 666.209517756016 113.16267485762415 L 662 103 L 657.790482243984 113.16267485762415" stroke-miterlimit="10"/></g><g transform="translate(-13,-14) scale(1,1)"><path fill="none" stroke="#000000" d="M 229 250 L 229 319" stroke-miterlimit="10"/></g><g transform="translate(-13,-14) scale(1,1)"><path fill="none" stroke="#000000" d="M 224.790482243984 308.83732514237585 L 229 319 L 233.209517756016 308.83732514237585" stroke-miterlimit="10"/></g></g></svg>