<svg version="1.1" xmlns="http://www.w3.org/2000/svg" xmlns:xlink="http://www.w3.org/1999/xlink" width="590.81982421875" height="436"><defs/><g><g transform="translate(-150,-118) scale(1,1)"><rect fill="#C0C0C0" stroke="none" x="167" y="135" width="117.7734375" height="147" opacity="0.2"/></g><g transform="translate(-150,-118) scale(1,1)"><rect fill="#ffffff" stroke="none" x="160" y="128" width="117.7734375" height="147"/></g><g transform="translate(-150,-118) scale(1,1)"><path fill="none" stroke="#000000" d="M 160 128 L 277.7734375 128 L 277.7734375 275 L 160 275 L 160 128 Z Z" stroke-miterlimit="10"/></g><g transform="translate(-150,-118) scale(1,1)"><path fill="none" stroke="#000000" d="M 160 153 L 277.7734375 153" stroke-miterlimit="10"/></g><g transform="translate(-150,-118) scale(1,1)"><path fill="none" stroke="#000000" d="M 160 266 L 277.7734375 266" stroke-miterlimit="10"/></g><g transform="translate(-150,-118) scale(1,1)"><g><path fill="none" stroke="none"/><text fill="#000000" stroke="none" font-family="Arial" font-size="13px" font-style="normal" font-weight="bold" text-decoration="none" x="190.712646484375" y="147.5">Customer</text></g></g><g transform="translate(-150,-118) scale(1,1)"><g><path fill="none" stroke="none"/><text fill="#000000" stroke="none" font-family="Arial" font-size="13px" font-style="normal" font-weight="normal" text-decoration="none" x="165" y="170.5">+idCustomer: int</text></g></g><g transform="translate(-150,-118) scale(1,1)"><g><path fill="none" stroke="none"/><text fill="#000000" stroke="none" font-family="Arial" font-size="13px" font-style="normal" font-weight="normal" text-decoration="none" x="165" y="185.5">+lastname: string</text></g></g><g transform="translate(-150,-118) scale(1,1)"><g><path fill="none" stroke="none"/><text fill="#000000" stroke="none" font-family="Arial" font-size="13px" font-style="normal" font-weight="normal" text-decoration="none" x="165" y="200.5">+firstname: string</text></g></g><g transform="translate(-150,-118) scale(1,1)"><g><path fill="none" stroke="none"/><text fill="#000000" stroke="none" font-family="Arial" font-size="13px" font-style="normal" font-weight="normal" text-decoration="none" x="165" y="215.5">+birthdayDate: int</text></g></g><g transform="translate(-150,-118) scale(1,1)"><g><path fill="none" stroke="none"/><text fill="#000000" stroke="none" font-family="Arial" font-size="13px" font-style="normal" font-weight="normal" text-decoration="none" x="165" y="230.5">+email: string</text></g></g><g transform="translate(-150,-118) scale(1,1)"><g><path fill="none" stroke="none"/><text fill="#000000" stroke="none" font-family="Arial" font-size="13px" font-style="normal" font-weight="normal" text-decoration="none" x="165" y="245.5">+phonenumber: int</text></g></g><g transform="translate(-150,-118) scale(1,1)"><g><path fill="none" stroke="none"/><text fill="#000000" stroke="none" font-family="Arial" font-size="13px" font-style="normal" font-weight="normal" text-decoration="none" x="165" y="260.5">+address: string</text></g></g><g transform="translate(-150,-118) scale(1,1)"><rect fill="#C0C0C0" stroke="none" x="399" y="135" width="130.037109375" height="102" opacity="0.2"/></g><g transform="translate(-150,-118) scale(1,1)"><rect fill="#ffffff" stroke="none" x="392" y="128" width="130.037109375" height="102"/></g><g transform="translate(-150,-118) scale(1,1)"><path fill="none" stroke="#000000" d="M 392 128 L 522.037109375 128 L 522.037109375 230 L 392 230 L 392 128 Z Z" stroke-miterlimit="10"/></g><g transform="translate(-150,-118) scale(1,1)"><path fill="none" stroke="#000000" d="M 392 153 L 522.037109375 153" stroke-miterlimit="10"/></g><g transform="translate(-150,-118) scale(1,1)"><path fill="none" stroke="#000000" d="M 392 221 L 522.037109375 221" stroke-miterlimit="10"/></g><g transform="translate(-150,-118) scale(1,1)"><g><path fill="none" stroke="none"/><text fill="#000000" stroke="none" font-family="Arial" font-size="13px" font-style="normal" font-weight="bold" text-decoration="none" x="433.5322265625" y="147.5">Account</text></g></g><g transform="translate(-150,-118) scale(1,1)"><g><path fill="none" stroke="none"/><text fill="#000000" stroke="none" font-family="Arial" font-size="13px" font-style="normal" font-weight="normal" text-decoration="none" x="397" y="170.5">+idAccount: int</text></g></g><g transform="translate(-150,-118) scale(1,1)"><g><path fill="none" stroke="none"/><text fill="#000000" stroke="none" font-family="Arial" font-size="13px" font-style="normal" font-weight="normal" text-decoration="none" x="397" y="185.5">+accountNumber: int</text></g></g><g transform="translate(-150,-118) scale(1,1)"><g><path fill="none" stroke="none"/><text fill="#000000" stroke="none" font-family="Arial" font-size="13px" font-style="normal" font-weight="normal" text-decoration="none" x="397" y="200.5">+accountType: string</text></g></g><g transform="translate(-150,-118) scale(1,1)"><g><path fill="none" stroke="none"/><text fill="#000000" stroke="none" font-family="Arial" font-size="13px" font-style="normal" font-weight="normal" text-decoration="none" x="397" y="215.5">+creationDate: date</text></g></g><g transform="translate(-150,-118) scale(1,1)"><rect fill="#C0C0C0" stroke="none" x="527" y="479" width="114.853515625" height="72" opacity="0.2"/></g><g transform="translate(-150,-118) scale(1,1)"><rect fill="#ffffff" stroke="none" x="520" y="472" width="114.853515625" height="72"/></g><g transform="translate(-150,-118) scale(1,1)"><path fill="none" stroke="#000000" d="M 520 472 L 634.853515625 472 L 634.853515625 544 L 520 544 L 520 472 Z Z" stroke-miterlimit="10"/></g><g transform="translate(-150,-118) scale(1,1)"><path fill="none" stroke="#000000" d="M 520 497 L 634.853515625 497" stroke-miterlimit="10"/></g><g transform="translate(-150,-118) scale(1,1)"><path fill="none" stroke="#000000" d="M 520 535 L 634.853515625 535" stroke-miterlimit="10"/></g><g transform="translate(-150,-118) scale(1,1)"><g><path fill="none" stroke="none"/><text fill="#000000" stroke="none" font-family="Arial" font-size="13px" font-style="normal" font-weight="bold" text-decoration="none" x="529.016357421875" y="491.5">TransactionType</text></g></g><g transform="translate(-150,-118) scale(1,1)"><g><path fill="none" stroke="none"/><text fill="#000000" stroke="none" font-family="Arial" font-size="13px" font-style="normal" font-weight="normal" text-decoration="none" x="525" y="514.5">+idType: int</text></g></g><g transform="translate(-150,-118) scale(1,1)"><g><path fill="none" stroke="none"/><text fill="#000000" stroke="none" font-family="Arial" font-size="13px" font-style="normal" font-weight="normal" text-decoration="none" x="525" y="529.5">+typeName: string</text></g></g><g transform="translate(-150,-118) scale(1,1)"><rect fill="#C0C0C0" stroke="none" x="399" y="319" width="148.09619140625" height="102" opacity="0.2"/></g><g transform="translate(-150,-118) scale(1,1)"><rect fill="#ffffff" stroke="none" x="392" y="312" width="148.09619140625" height="102"/></g><g transform="translate(-150,-118) scale(1,1)"><path fill="none" stroke="#000000" d="M 392 312 L 540.09619140625 312 L 540.09619140625 414 L 392 414 L 392 312 Z Z" stroke-miterlimit="10"/></g><g transform="translate(-150,-118) scale(1,1)"><path fill="none" stroke="#000000" d="M 392 337 L 540.09619140625 337" stroke-miterlimit="10"/></g><g transform="translate(-150,-118) scale(1,1)"><path fill="none" stroke="#000000" d="M 392 405 L 540.09619140625 405" stroke-miterlimit="10"/></g><g transform="translate(-150,-118) scale(1,1)"><g><path fill="none" stroke="none"/><text fill="#000000" stroke="none" font-family="Arial" font-size="13px" font-style="normal" font-weight="bold" text-decoration="none" x="432.088134765625" y="331.5">Transaction</text></g></g><g transform="translate(-150,-118) scale(1,1)"><g><path fill="none" stroke="none"/><text fill="#000000" stroke="none" font-family="Arial" font-size="13px" font-style="normal" font-weight="normal" text-decoration="none" x="397" y="354.5">+idTransaction: int</text></g></g><g transform="translate(-150,-118) scale(1,1)"><g><path fill="none" stroke="none"/><text fill="#000000" stroke="none" font-family="Arial" font-size="13px" font-style="normal" font-weight="normal" text-decoration="none" x="397" y="369.5">+transactionType: string</text></g></g><g transform="translate(-150,-118) scale(1,1)"><g><path fill="none" stroke="none"/><text fill="#000000" stroke="none" font-family="Arial" font-size="13px" font-style="normal" font-weight="normal" text-decoration="none" x="397" y="384.5">+transactionAmount: int</text></g></g><g transform="translate(-150,-118) scale(1,1)"><g><path fill="none" stroke="none"/><text fill="#000000" stroke="none" font-family="Arial" font-size="13px" font-style="normal" font-weight="normal" text-decoration="none" x="397" y="399.5">+transactionDate: date</text></g></g><g transform="translate(-150,-118) scale(1,1)"><rect fill="#C0C0C0" stroke="none" x="615" y="135" width="122.81982421875" height="72" opacity="0.2"/></g><g transform="translate(-150,-118) scale(1,1)"><rect fill="#ffffff" stroke="none" x="608" y="128" width="122.81982421875" height="72"/></g><g transform="translate(-150,-118) scale(1,1)"><path fill="none" stroke="#000000" d="M 608 128 L 730.81982421875 128 L 730.81982421875 200 L 608 200 L 608 128 Z Z" stroke-miterlimit="10"/></g><g transform="translate(-150,-118) scale(1,1)"><path fill="none" stroke="#000000" d="M 608 153 L 730.81982421875 153" stroke-miterlimit="10"/></g><g transform="translate(-150,-118) scale(1,1)"><path fill="none" stroke="#000000" d="M 608 191 L 730.81982421875 191" stroke-miterlimit="10"/></g><g transform="translate(-150,-118) scale(1,1)"><g><path fill="none" stroke="none"/><text fill="#000000" stroke="none" font-family="Arial" font-size="13px" font-style="normal" font-weight="bold" text-decoration="none" x="637.255859375" y="147.5">Notification</text></g></g><g transform="translate(-150,-118) scale(1,1)"><g><path fill="none" stroke="none"/><text fill="#000000" stroke="none" font-family="Arial" font-size="13px" font-style="normal" font-weight="normal" text-decoration="none" x="613" y="170.5">+idNotification: long</text></g></g><g transform="translate(-150,-118) scale(1,1)"><g><path fill="none" stroke="none"/><text fill="#000000" stroke="none" font-family="Arial" font-size="13px" font-style="normal" font-weight="normal" text-decoration="none" x="613" y="185.5">+read: boolean</text></g></g><g transform="translate(-150,-118) scale(1,1)"><path fill="none" stroke="#000000" d="M 279 195 L 391 185" stroke-miterlimit="10"/></g><g transform="translate(-150,-118) scale(1,1)"><path fill="none" stroke="#000000" d="M 523 174 L 607 168" stroke-miterlimit="10"/></g><g transform="translate(-150,-118) scale(1,1)"><path fill="none" stroke="#000000" d="M 460 231 L 463 311" stroke-miterlimit="10"/></g><g transform="translate(-150,-118) scale(1,1)"><path fill="none" stroke="#000000" d="M 506 415 L 549 471" stroke-miterlimit="10"/></g><g transform="translate(-150,-118) scale(1,1)"><g><path fill="none" stroke="none"/><text fill="#000000" stroke="none" font-family="Arial" font-size="13px" font-style="normal" font-weight="normal" text-decoration="none" x="285" y="186">1</text></g></g><g transform="translate(-150,-118) scale(1,1)"><g><path fill="none" stroke="none"/><text fill="#000000" stroke="none" font-family="Arial" font-size="13px" font-style="normal" font-weight="normal" text-decoration="none" x="469" y="250">1</text></g></g><g transform="translate(-150,-118) scale(1,1)"><g><path fill="none" stroke="none"/><text fill="#000000" stroke="none" font-family="Arial" font-size="13px" font-style="normal" font-weight="normal" text-decoration="none" x="525" y="170">1</text></g></g><g transform="translate(-150,-118) scale(1,1)"><g><path fill="none" stroke="none"/><text fill="#000000" stroke="none" font-family="Arial" font-size="13px" font-style="normal" font-weight="normal" text-decoration="none" x="549" y="466">1</text></g></g><g transform="translate(-150,-118) scale(1,1)"><g><path fill="none" stroke="none"/><text fill="#000000" stroke="none" font-family="Arial" font-size="13px" font-style="normal" font-weight="normal" text-decoration="none" x="581" y="170">1..*</text></g></g><g transform="translate(-150,-118) scale(1,1)"><g><path fill="none" stroke="none"/><text fill="#000000" stroke="none" font-family="Arial" font-size="13px" font-style="normal" font-weight="normal" text-decoration="none" x="525" y="434">1..*</text></g></g><g transform="translate(-150,-118) scale(1,1)"><g><path fill="none" stroke="none"/><text fill="#000000" stroke="none" font-family="Arial" font-size="13px" font-style="normal" font-weight="normal" text-decoration="none" x="469" y="306">0..*</text></g></g><g transform="translate(-150,-118) scale(1,1)"><g><path fill="none" stroke="none"/><text fill="#000000" stroke="none" font-family="Arial" font-size="13px" font-style="normal" font-weight="normal" text-decoration="none" x="365" y="178">1..*</text></g></g></g></svg>