<svg version="1.1" xmlns="http://www.w3.org/2000/svg" xmlns:xlink="http://www.w3.org/1999/xlink" width="1074.26708984375" height="620"><defs/><g><g transform="translate(-14,-30) scale(1,1)"><rect fill="#C0C0C0" stroke="none" x="799" y="439" width="135.08349609375" height="72" opacity="0.2"/></g><g transform="translate(-14,-30) scale(1,1)"><rect fill="#ffffff" stroke="none" x="792" y="432" width="135.08349609375" height="72"/></g><g transform="translate(-14,-30) scale(1,1)"><path fill="none" stroke="#000000" d="M 792 432 L 927.08349609375 432 L 927.08349609375 504 L 792 504 L 792 432 Z Z" stroke-miterlimit="10"/></g><g transform="translate(-14,-30) scale(1,1)"><path fill="none" stroke="#000000" d="M 792 457 L 927.08349609375 457" stroke-miterlimit="10"/></g><g transform="translate(-14,-30) scale(1,1)"><path fill="none" stroke="#000000" d="M 792 495 L 927.08349609375 495" stroke-miterlimit="10"/></g><g transform="translate(-14,-30) scale(1,1)"><g><path fill="none" stroke="none"/><text fill="#000000" stroke="none" font-family="Arial" font-size="13px" font-style="normal" font-weight="bold" text-decoration="none" x="827.3876953125" y="451.5">Notification</text></g></g><g transform="translate(-14,-30) scale(1,1)"><g><path fill="none" stroke="none"/><text fill="#000000" stroke="none" font-family="Arial" font-size="13px" font-style="normal" font-weight="normal" text-decoration="none" x="797" y="474.5">+idNotification: long</text></g></g><g transform="translate(-14,-30) scale(1,1)"><g><path fill="none" stroke="none"/><text fill="#000000" stroke="none" font-family="Arial" font-size="13px" font-style="normal" font-weight="normal" text-decoration="none" x="797" y="489.5">+read: boolean</text></g></g><g transform="translate(-14,-30) scale(1,1)"><rect fill="#C0C0C0" stroke="none" x="535" y="271" width="306.33056640625" height="72" opacity="0.2"/></g><g transform="translate(-14,-30) scale(1,1)"><rect fill="#ffffff" stroke="none" x="528" y="264" width="306.33056640625" height="72"/></g><g transform="translate(-14,-30) scale(1,1)"><path fill="none" stroke="#000000" d="M 528 264 L 834.33056640625 264 L 834.33056640625 336 L 528 336 L 528 264 Z Z" stroke-miterlimit="10"/></g><g transform="translate(-14,-30) scale(1,1)"><path fill="none" stroke="#000000" d="M 528 289 L 834.33056640625 289" stroke-miterlimit="10"/></g><g transform="translate(-14,-30) scale(1,1)"><path fill="none" stroke="#000000" d="M 528 299 L 834.33056640625 299" stroke-miterlimit="10"/></g><g transform="translate(-14,-30) scale(1,1)"><g><path fill="none" stroke="none"/><text fill="#000000" stroke="none" font-family="Arial" font-size="13px" font-style="normal" font-weight="bold" text-decoration="none" x="627.337158203125" y="283.5">NotificationService</text></g></g><g transform="translate(-14,-30) scale(1,1)"><g><path fill="none" stroke="none"/><text fill="#000000" stroke="none" font-family="Arial" font-size="13px" font-style="normal" font-weight="normal" text-decoration="none" x="533" y="316.5">+getClientNotifications(long): List&lt;NotificationDTO&gt;</text></g></g><g transform="translate(-14,-30) scale(1,1)"><g><path fill="none" stroke="none"/><text fill="#000000" stroke="none" font-family="Arial" font-size="13px" font-style="normal" font-weight="normal" text-decoration="none" x="533" y="331.5">+GetAll(): List</text></g></g><g transform="translate(-14,-30) scale(1,1)"><rect fill="#C0C0C0" stroke="none" x="503" y="159" width="412.56494140625" height="72" opacity="0.2"/></g><g transform="translate(-14,-30) scale(1,1)"><rect fill="#ffffff" stroke="none" x="496" y="152" width="412.56494140625" height="72"/></g><g transform="translate(-14,-30) scale(1,1)"><path fill="none" stroke="#000000" d="M 496 152 L 908.56494140625 152 L 908.56494140625 224 L 496 224 L 496 152 Z Z" stroke-miterlimit="10"/></g><g transform="translate(-14,-30) scale(1,1)"><path fill="none" stroke="#000000" d="M 496 177 L 908.56494140625 177" stroke-miterlimit="10"/></g><g transform="translate(-14,-30) scale(1,1)"><path fill="none" stroke="#000000" d="M 496 187 L 908.56494140625 187" stroke-miterlimit="10"/></g><g transform="translate(-14,-30) scale(1,1)"><g><path fill="none" stroke="none"/><text fill="#000000" stroke="none" font-family="Arial" font-size="13px" font-style="normal" font-weight="bold" text-decoration="none" x="643.395263671875" y="171.5">NotficationController</text></g></g><g transform="translate(-14,-30) scale(1,1)"><g><path fill="none" stroke="none"/><text fill="#000000" stroke="none" font-family="Arial" font-size="13px" font-style="normal" font-weight="normal" text-decoration="none" x="501" y="204.5">+getClientNotifications(long): ResponseEntity&lt;List&lt;NotificationDTO&gt;&gt;</text></g></g><g transform="translate(-14,-30) scale(1,1)"><rect fill="#C0C0C0" stroke="none" x="551" y="391" width="198.67431640625" height="57" opacity="0.2"/></g><g transform="translate(-14,-30) scale(1,1)"><rect fill="#ffffff" stroke="none" x="544" y="384" width="198.67431640625" height="57"/></g><g transform="translate(-14,-30) scale(1,1)"><path fill="none" stroke="#000000" d="M 544 384 L 742.67431640625 384 L 742.67431640625 441 L 544 441 L 544 384 Z Z" stroke-miterlimit="10"/></g><g transform="translate(-14,-30) scale(1,1)"><path fill="none" stroke="#000000" d="M 544 409 L 742.67431640625 409" stroke-miterlimit="10"/></g><g transform="translate(-14,-30) scale(1,1)"><path fill="none" stroke="#000000" d="M 544 419 L 742.67431640625 419" stroke-miterlimit="10"/></g><g transform="translate(-14,-30) scale(1,1)"><g><path fill="none" stroke="none"/><text fill="#000000" stroke="none" font-family="Arial" font-size="13px" font-style="normal" font-weight="bold" text-decoration="none" x="580.114501953125" y="403.5">NotificationRepository</text></g></g><g transform="translate(-14,-30) scale(1,1)"><g><path fill="none" stroke="none"/><text fill="#000000" stroke="none" font-family="Arial" font-size="13px" font-style="normal" font-weight="normal" text-decoration="none" x="549" y="436.5">+entityManager(): EntityManager</text></g></g><g transform="translate(-14,-30) scale(1,1)"><rect fill="#C0C0C0" stroke="none" x="487" y="47" width="187.115234375" height="57" opacity="0.2"/></g><g transform="translate(-14,-30) scale(1,1)"><rect fill="#ffffff" stroke="none" x="480" y="40" width="187.115234375" height="57"/></g><g transform="translate(-14,-30) scale(1,1)"><path fill="none" stroke="#000000" d="M 480 40 L 667.115234375 40 L 667.115234375 97 L 480 97 L 480 40 Z Z" stroke-miterlimit="10"/></g><g transform="translate(-14,-30) scale(1,1)"><path fill="none" stroke="#000000" d="M 480 65 L 667.115234375 65" stroke-miterlimit="10"/></g><g transform="translate(-14,-30) scale(1,1)"><path fill="none" stroke="#000000" d="M 480 75 L 667.115234375 75" stroke-miterlimit="10"/></g><g transform="translate(-14,-30) scale(1,1)"><g><path fill="none" stroke="none"/><text fill="#000000" stroke="none" font-family="Arial" font-size="13px" font-style="normal" font-weight="bold" text-decoration="none" x="495.15771484375" y="59.5">AccountController WebApp</text></g></g><g transform="translate(-14,-30) scale(1,1)"><g><path fill="none" stroke="none"/><text fill="#000000" stroke="none" font-family="Arial" font-size="13px" font-style="normal" font-weight="normal" text-decoration="none" x="485" y="92.5">+GetAccount(): ModelAndView</text></g></g><g transform="translate(-14,-30) scale(1,1)"><path fill="none" stroke="#000000" d="M 662 151 L 605 98" stroke-miterlimit="10"/></g><g transform="translate(-14,-30) scale(1,1)"><path fill="#FFFFFF" stroke="none" d="M 615.3089346576799 101.83742963762049 L 605 98 L 609.5760450841667 108.00299012234208 L 621.111385974085 112.98076239695622"/></g><g transform="translate(-14,-30) scale(1,1)"><path fill="none" stroke="#000000" d="M 615.3089346576799 101.83742963762049 L 605 98 L 609.5760450841667 108.00299012234208 L 621.111385974085 112.98076239695622 L 615.3089346576799 101.83742963762049" stroke-miterlimit="10"/></g><g transform="translate(-14,-30) scale(1,1)"><path fill="none" stroke="#000000" d="M 791 450 L 744 438" stroke-miterlimit="10"/></g><g transform="translate(-14,-30) scale(1,1)"><path fill="none" stroke="#000000" d="M 653 383 L 668 337" stroke-miterlimit="10"/></g><g transform="translate(-14,-30) scale(1,1)"><path fill="#FFFFFF" stroke="none" d="M 668.8514755852243 347.96699545581043 L 668 337 L 660.8472473042813 345.3569210163725 L 661.1795468037199 357.91605646859256"/></g><g transform="translate(-14,-30) scale(1,1)"><path fill="none" stroke="#000000" d="M 668.8514755852243 347.96699545581043 L 668 337 L 660.8472473042813 345.3569210163725 L 661.1795468037199 357.91605646859256 L 668.8514755852243 347.96699545581043" stroke-miterlimit="10"/></g><g transform="translate(-14,-30) scale(1,1)"><path fill="none" stroke="#000000" d="M 688 263 L 695 225" stroke-miterlimit="10"/></g><g transform="translate(-14,-30) scale(1,1)"><path fill="#FFFFFF" stroke="none" d="M 697.2987687923849 235.75712145693063 L 695 225 L 689.0190414732324 234.23190852971834 L 691.0144265515074 246.63597014895961"/></g><g transform="translate(-14,-30) scale(1,1)"><path fill="none" stroke="#000000" d="M 697.2987687923849 235.75712145693063 L 695 225 L 689.0190414732324 234.23190852971834 L 691.0144265515074 246.63597014895961 L 697.2987687923849 235.75712145693063" stroke-miterlimit="10"/></g><g transform="translate(-14,-30) scale(1,1)"><g><path fill="none" stroke="none"/><text fill="#000000" stroke="none" font-family="Arial" font-size="13px" font-style="normal" font-weight="normal" text-decoration="none" x="693" y="426">1..*</text></g></g><g transform="translate(-14,-30) scale(1,1)"><path fill="#ffffff" stroke="none" d="M 84.11613742897727 281.68 C 84.11613742897727 276.886167936 88.00197975392273 273 92.79541015625 273 C 97.58884055857727 273 101.47468288352273 276.886167936 101.47468288352273 281.68 C 101.47468288352273 286.473832064 97.58884055857727 290.36 92.79541015625 290.36 C 88.00197975392273 290.36 84.11613742897727 286.473832064 84.11613742897727 281.68 Z"/></g><g transform="translate(-14,-30) scale(1,1)"><path fill="none" stroke="#000000" d="M 84.11613742897727 281.68 C 84.11613742897727 276.886167936 88.00197975392273 273 92.79541015625 273 C 97.58884055857727 273 101.47468288352273 276.886167936 101.47468288352273 281.68 C 101.47468288352273 286.473832064 97.58884055857727 290.36 92.79541015625 290.36 C 88.00197975392273 290.36 84.11613742897727 286.473832064 84.11613742897727 281.68 Z" stroke-miterlimit="10"/></g><g transform="translate(-14,-30) scale(1,1)"><path fill="none" stroke="#000000" d="M 92.79541015625 290.36 L 92.79541015625 307.64" stroke-miterlimit="10"/></g><g transform="translate(-14,-30) scale(1,1)"><path fill="none" stroke="#000000" d="M 83.60559197443182 296.84 L 101.98522833806818 296.84" stroke-miterlimit="10"/></g><g transform="translate(-14,-30) scale(1,1)"><path fill="none" stroke="#000000" d="M 92.79541015625 307.64 L 80.03177379261363 325" stroke-miterlimit="10"/></g><g transform="translate(-14,-30) scale(1,1)"><path fill="none" stroke="#000000" d="M 92.79541015625 307.64 L 105.55904651988637 325" stroke-miterlimit="10"/></g><g transform="translate(-14,-30) scale(1,1)"><g><path fill="none" stroke="none"/><text fill="#000000" stroke="none" font-family="Arial" font-size="13px" font-style="normal" font-weight="bold" text-decoration="none" x="79.07177734375" y="345.5">User</text></g></g><g transform="translate(-14,-30) scale(1,1)"><g><path fill="none" stroke="none"/><text fill="#000000" stroke="none" font-family="Arial" font-size="13px" font-style="normal" font-weight="normal" text-decoration="none" x="52.341796875" y="360.5">(from Model1)</text></g></g><g transform="translate(-14,-30) scale(1,1)"><rect fill="#C0C0C0" stroke="none" x="215" y="191" width="115.18359375" height="57" opacity="0.2"/></g><g transform="translate(-14,-30) scale(1,1)"><rect fill="#8282ff" stroke="none" x="208" y="184" width="115.18359375" height="57"/></g><g transform="translate(-14,-30) scale(1,1)"><path fill="none" stroke="#000000" d="M 208 184 L 323.18359375 184 L 323.18359375 241 L 208 241 L 208 184 Z Z" stroke-miterlimit="10"/></g><g transform="translate(-14,-30) scale(1,1)"><path fill="none" stroke="#000000" d="M 208 209 L 323.18359375 209" stroke-miterlimit="10"/></g><g transform="translate(-14,-30) scale(1,1)"><path fill="none" stroke="#000000" d="M 208 232 L 323.18359375 232" stroke-miterlimit="10"/></g><g transform="translate(-14,-30) scale(1,1)"><g><path fill="none" stroke="none"/><text fill="#000000" stroke="none" font-family="Arial" font-size="13px" font-style="normal" font-weight="bold" text-decoration="none" x="217.171875" y="203.5">personalAccount</text></g></g><g transform="translate(-14,-30) scale(1,1)"><g><path fill="none" stroke="none"/><text fill="#000000" stroke="none" font-family="Arial" font-size="13px" font-style="normal" font-weight="normal" text-decoration="none" x="213" y="226.5">+getAccount()</text></g></g><g transform="translate(-14,-30) scale(1,1)"><path fill="#ffffff" stroke="none" d="M 144 104 L 202 104 L 212 114 L 212 142 L 144 142 L 144 104"/></g><g transform="translate(-14,-30) scale(1,1)"><path fill="none" stroke="#000000" d="M 144 104 L 202 104 L 212 114 L 212 142 L 144 142 L 144 104 L 144 104" stroke-miterlimit="10"/></g><g transform="translate(-14,-30) scale(1,1)"><path fill="none" stroke="#000000" d="M 202 104 L 202 114 L 212 114 L 202 104" stroke-miterlimit="10"/></g><g transform="translate(-14,-30) scale(1,1)"><g><path fill="none" stroke="none"/><text fill="#000000" stroke="none" font-family="Arial" font-size="13px" font-style="normal" font-weight="normal" text-decoration="none" x="149" y="122">JSP</text></g></g><g transform="translate(-14,-30) scale(1,1)"><path fill="none" stroke="#000000" d="M 199 144 L 237 183" stroke-miterlimit="10" stroke-dasharray="3"/></g><g transform="translate(-14,-30) scale(1,1)"><path fill="none" stroke="#000000" d="M 163 275 L 216 242" stroke-miterlimit="10"/></g><g transform="translate(-14,-30) scale(1,1)"><path fill="none" stroke="#000000" d="M 209.59791291857982 250.94501430976567 L 216 242 L 205.14796053473498 243.798121087227" stroke-miterlimit="10"/></g><g transform="translate(-14,-30) scale(1,1)"><path fill="none" stroke="#000000" d="M 324 184 L 509 98" stroke-miterlimit="10"/></g><g transform="translate(-14,-30) scale(1,1)"><path fill="none" stroke="#000000" d="M 501.5588964000644 106.10123306756604 L 509 98 L 498.0099083469253 98.46678202302255" stroke-miterlimit="10"/></g><g transform="translate(-14,-30) scale(1,1)"><rect fill="#C0C0C0" stroke="none" x="239" y="343" width="108.35986328125" height="102" opacity="0.2"/></g><g transform="translate(-14,-30) scale(1,1)"><rect fill="#8282ff" stroke="none" x="232" y="336" width="108.35986328125" height="102"/></g><g transform="translate(-14,-30) scale(1,1)"><path fill="none" stroke="#000000" d="M 232 336 L 340.35986328125 336 L 340.35986328125 438 L 232 438 L 232 336 Z Z" stroke-miterlimit="10"/></g><g transform="translate(-14,-30) scale(1,1)"><path fill="none" stroke="#000000" d="M 232 361 L 340.35986328125 361" stroke-miterlimit="10"/></g><g transform="translate(-14,-30) scale(1,1)"><path fill="none" stroke="#000000" d="M 232 429 L 340.35986328125 429" stroke-miterlimit="10"/></g><g transform="translate(-14,-30) scale(1,1)"><g><path fill="none" stroke="none"/><text fill="#000000" stroke="none" font-family="Arial" font-size="13px" font-style="normal" font-weight="bold" text-decoration="none" x="250.40771484375" y="355.5">accountById</text></g></g><g transform="translate(-14,-30) scale(1,1)"><g><path fill="none" stroke="none"/><text fill="#000000" stroke="none" font-family="Arial" font-size="13px" font-style="normal" font-weight="normal" text-decoration="none" x="237" y="378.5">+firstname</text></g></g><g transform="translate(-14,-30) scale(1,1)"><g><path fill="none" stroke="none"/><text fill="#000000" stroke="none" font-family="Arial" font-size="13px" font-style="normal" font-weight="normal" text-decoration="none" x="237" y="393.5">+lastname</text></g></g><g transform="translate(-14,-30) scale(1,1)"><g><path fill="none" stroke="none"/><text fill="#000000" stroke="none" font-family="Arial" font-size="13px" font-style="normal" font-weight="normal" text-decoration="none" x="237" y="408.5">+balance</text></g></g><g transform="translate(-14,-30) scale(1,1)"><g><path fill="none" stroke="none"/><text fill="#000000" stroke="none" font-family="Arial" font-size="13px" font-style="normal" font-weight="normal" text-decoration="none" x="237" y="423.5">+notifications</text></g></g><g transform="translate(-14,-30) scale(1,1)"><path fill="none" stroke="#000000" d="M 546 98 L 333 335" stroke-miterlimit="10"/></g><g transform="translate(-14,-30) scale(1,1)"><path fill="none" stroke="#000000" d="M 336.66230351946774 324.62755896949545 L 333 335 L 342.92406304350635 330.25521626325167" stroke-miterlimit="10"/></g><g transform="translate(-14,-30) scale(1,1)"><path fill="none" stroke="#000000" d="M 231 368 L 163 344" stroke-miterlimit="10"/></g><g transform="translate(-14,-30) scale(1,1)"><path fill="none" stroke="#000000" d="M 173.98431634925083 343.4128080896498 L 163 344 L 171.18229195892005 351.351877195587" stroke-miterlimit="10"/></g><g transform="translate(-14,-30) scale(1,1)"><path fill="#ffffff" stroke="none" d="M 192 488 L 250 488 L 260 498 L 260 526 L 192 526 L 192 488"/></g><g transform="translate(-14,-30) scale(1,1)"><path fill="none" stroke="#000000" d="M 192 488 L 250 488 L 260 498 L 260 526 L 192 526 L 192 488 L 192 488" stroke-miterlimit="10"/></g><g transform="translate(-14,-30) scale(1,1)"><path fill="none" stroke="#000000" d="M 250 488 L 250 498 L 260 498 L 250 488" stroke-miterlimit="10"/></g><g transform="translate(-14,-30) scale(1,1)"><g><path fill="none" stroke="none"/><text fill="#000000" stroke="none" font-family="Arial" font-size="13px" font-style="normal" font-weight="normal" text-decoration="none" x="197" y="506">JSP</text></g></g><g transform="translate(-14,-30) scale(1,1)"><path fill="none" stroke="#000000" d="M 260 439 L 236 487" stroke-miterlimit="10" stroke-dasharray="3"/></g><g transform="translate(-14,-30) scale(1,1)"><rect fill="#C0C0C0" stroke="none" x="935" y="279" width="150.26708984375" height="117" opacity="0.2"/></g><g transform="translate(-14,-30) scale(1,1)"><rect fill="#ffffff" stroke="none" x="928" y="272" width="150.26708984375" height="117"/></g><g transform="translate(-14,-30) scale(1,1)"><path fill="none" stroke="#000000" d="M 928 272 L 1078.26708984375 272 L 1078.26708984375 389 L 928 389 L 928 272 Z Z" stroke-miterlimit="10"/></g><g transform="translate(-14,-30) scale(1,1)"><path fill="none" stroke="#000000" d="M 928 297 L 1078.26708984375 297" stroke-miterlimit="10"/></g><g transform="translate(-14,-30) scale(1,1)"><path fill="none" stroke="#000000" d="M 928 380 L 1078.26708984375 380" stroke-miterlimit="10"/></g><g transform="translate(-14,-30) scale(1,1)"><g><path fill="none" stroke="none"/><text fill="#000000" stroke="none" font-family="Arial" font-size="13px" font-style="normal" font-weight="bold" text-decoration="none" x="957.259033203125" y="291.5">NotificationDTO</text></g></g><g transform="translate(-14,-30) scale(1,1)"><g><path fill="none" stroke="none"/><text fill="#000000" stroke="none" font-family="Arial" font-size="13px" font-style="normal" font-weight="normal" text-decoration="none" x="933" y="314.5">+idAccount: String</text></g></g><g transform="translate(-14,-30) scale(1,1)"><g><path fill="none" stroke="none"/><text fill="#000000" stroke="none" font-family="Arial" font-size="13px" font-style="normal" font-weight="normal" text-decoration="none" x="933" y="329.5">+amount: BigDecima</text></g></g><g transform="translate(-14,-30) scale(1,1)"><g><path fill="none" stroke="none"/><text fill="#000000" stroke="none" font-family="Arial" font-size="13px" font-style="normal" font-weight="normal" text-decoration="none" x="933" y="344.5">+date: String</text></g></g><g transform="translate(-14,-30) scale(1,1)"><g><path fill="none" stroke="none"/><text fill="#000000" stroke="none" font-family="Arial" font-size="13px" font-style="normal" font-weight="normal" text-decoration="none" x="933" y="359.5">+transactionType: String</text></g></g><g transform="translate(-14,-30) scale(1,1)"><g><path fill="none" stroke="none"/><text fill="#000000" stroke="none" font-family="Arial" font-size="13px" font-style="normal" font-weight="normal" text-decoration="none" x="933" y="374.5">+read: boolean</text></g></g><g transform="translate(-14,-30) scale(1,1)"><path fill="none" stroke="#000000" d="M 835 314 L 927 323" stroke-miterlimit="10"/></g><g transform="translate(-14,-30) scale(1,1)"><path fill="none" stroke="#000000" d="M 916.4757627609508 326.200067270576 L 927 323 L 917.2954512141749 317.8210297487298" stroke-miterlimit="10"/></g><g transform="translate(-14,-30) scale(1,1)"><rect fill="#C0C0C0" stroke="none" x="503" y="567" width="302.00146484375" height="80" opacity="0.2"/></g><g transform="translate(-14,-30) scale(1,1)"><rect fill="#ffffff" stroke="none" x="496" y="560" width="302.00146484375" height="80"/></g><g transform="translate(-14,-30) scale(1,1)"><path fill="none" stroke="#000000" d="M 496 560 L 798.00146484375 560 L 798.00146484375 640 L 496 640 L 496 560 Z Z" stroke-miterlimit="10"/></g><g transform="translate(-14,-30) scale(1,1)"><path fill="none" stroke="#000000" d="M 496 598 L 798.00146484375 598" stroke-miterlimit="10"/></g><g transform="translate(-14,-30) scale(1,1)"><path fill="none" stroke="#000000" d="M 496 621 L 798.00146484375 621" stroke-miterlimit="10"/></g><g transform="translate(-14,-30) scale(1,1)"><g><path fill="none" stroke="none"/><text fill="#000000" stroke="none" font-family="Arial" font-size="13px" font-style="normal" font-weight="normal" text-decoration="none" x="614.84033203125" y="577.5">«interface»</text></g></g><g transform="translate(-14,-30) scale(1,1)"><g><path fill="none" stroke="none"/><text fill="#000000" stroke="none" font-family="Arial" font-size="13px" font-style="normal" font-weight="bold" text-decoration="none" x="581.97216796875" y="592.5">INotificationRepository</text></g></g><g transform="translate(-14,-30) scale(1,1)"><g><path fill="none" stroke="none"/><text fill="#000000" stroke="none" font-family="Arial" font-size="13px" font-style="normal" font-weight="normal" text-decoration="none" x="501" y="615.5">+getCustomerNotifications(long): List&lt;Notification&gt;</text></g></g><g transform="translate(-14,-30) scale(1,1)"><path fill="none" stroke="#000000" d="M 644 442 L 646 559" stroke-miterlimit="10" stroke-dasharray="3"/></g><g transform="translate(-14,-30) scale(1,1)"><path fill="none" stroke="#000000" d="M 641.6174015689867 548.9107566689826 L 646 559 L 650.0352073066166 548.7668625538095" stroke-miterlimit="10"/></g></g></svg>