<svg version="1.1" xmlns="http://www.w3.org/2000/svg" xmlns:xlink="http://www.w3.org/1999/xlink" width="600.56494140625" height="461"><defs/><g><g transform="translate(-398,-54) scale(1,1)"><rect fill="#C0C0C0" stroke="none" x="415" y="415" width="130.037109375" height="72" opacity="0.2"/></g><g transform="translate(-398,-54) scale(1,1)"><rect fill="#ffffff" stroke="none" x="408" y="408" width="130.037109375" height="72"/></g><g transform="translate(-398,-54) scale(1,1)"><path fill="none" stroke="#000000" d="M 408 408 L 538.037109375 408 L 538.037109375 480 L 408 480 L 408 408 Z Z" stroke-miterlimit="10"/></g><g transform="translate(-398,-54) scale(1,1)"><path fill="none" stroke="#000000" d="M 408 433 L 538.037109375 433" stroke-miterlimit="10"/></g><g transform="translate(-398,-54) scale(1,1)"><path fill="none" stroke="#000000" d="M 408 471 L 538.037109375 471" stroke-miterlimit="10"/></g><g transform="translate(-398,-54) scale(1,1)"><g><path fill="none" stroke="none"/><text fill="#000000" stroke="none" font-family="Arial" font-size="13px" font-style="normal" font-weight="bold" text-decoration="none" x="440.864501953125" y="427.5">Notification</text></g></g><g transform="translate(-398,-54) scale(1,1)"><g><path fill="none" stroke="none"/><text fill="#000000" stroke="none" font-family="Arial" font-size="13px" font-style="normal" font-weight="normal" text-decoration="none" x="413" y="450.5">+idNotification: long</text></g></g><g transform="translate(-398,-54) scale(1,1)"><g><path fill="none" stroke="none"/><text fill="#000000" stroke="none" font-family="Arial" font-size="13px" font-style="normal" font-weight="normal" text-decoration="none" x="413" y="465.5">+read: boolean</text></g></g><g transform="translate(-398,-54) scale(1,1)"><rect fill="#C0C0C0" stroke="none" x="655" y="319" width="306.33056640625" height="72" opacity="0.2"/></g><g transform="translate(-398,-54) scale(1,1)"><rect fill="#ffffff" stroke="none" x="648" y="312" width="306.33056640625" height="72"/></g><g transform="translate(-398,-54) scale(1,1)"><path fill="none" stroke="#000000" d="M 648 312 L 954.33056640625 312 L 954.33056640625 384 L 648 384 L 648 312 Z Z" stroke-miterlimit="10"/></g><g transform="translate(-398,-54) scale(1,1)"><path fill="none" stroke="#000000" d="M 648 337 L 954.33056640625 337" stroke-miterlimit="10"/></g><g transform="translate(-398,-54) scale(1,1)"><path fill="none" stroke="#000000" d="M 648 347 L 954.33056640625 347" stroke-miterlimit="10"/></g><g transform="translate(-398,-54) scale(1,1)"><g><path fill="none" stroke="none"/><text fill="#000000" stroke="none" font-family="Arial" font-size="13px" font-style="normal" font-weight="bold" text-decoration="none" x="747.337158203125" y="331.5">NotificationService</text></g></g><g transform="translate(-398,-54) scale(1,1)"><g><path fill="none" stroke="none"/><text fill="#000000" stroke="none" font-family="Arial" font-size="13px" font-style="normal" font-weight="normal" text-decoration="none" x="653" y="364.5">+getClientNotifications(long): List&lt;NotificationDTO&gt;</text></g></g><g transform="translate(-398,-54) scale(1,1)"><rect fill="#C0C0C0" stroke="none" x="583" y="191" width="412.56494140625" height="72" opacity="0.2"/></g><g transform="translate(-398,-54) scale(1,1)"><rect fill="#ffffff" stroke="none" x="576" y="184" width="412.56494140625" height="72"/></g><g transform="translate(-398,-54) scale(1,1)"><path fill="none" stroke="#000000" d="M 576 184 L 988.56494140625 184 L 988.56494140625 256 L 576 256 L 576 184 Z Z" stroke-miterlimit="10"/></g><g transform="translate(-398,-54) scale(1,1)"><path fill="none" stroke="#000000" d="M 576 209 L 988.56494140625 209" stroke-miterlimit="10"/></g><g transform="translate(-398,-54) scale(1,1)"><path fill="none" stroke="#000000" d="M 576 219 L 988.56494140625 219" stroke-miterlimit="10"/></g><g transform="translate(-398,-54) scale(1,1)"><g><path fill="none" stroke="none"/><text fill="#000000" stroke="none" font-family="Arial" font-size="13px" font-style="normal" font-weight="bold" text-decoration="none" x="721.951171875" y="203.5">NotificationController</text></g></g><g transform="translate(-398,-54) scale(1,1)"><g><path fill="none" stroke="none"/><text fill="#000000" stroke="none" font-family="Arial" font-size="13px" font-style="normal" font-weight="normal" text-decoration="none" x="581" y="236.5">+getClientNotifications(long): ResponseEntity&lt;List&lt;NotificationDTO&gt;&gt;</text></g></g><g transform="translate(-398,-54) scale(1,1)"><rect fill="#C0C0C0" stroke="none" x="647" y="455" width="198.67431640625" height="57" opacity="0.2"/></g><g transform="translate(-398,-54) scale(1,1)"><rect fill="#ffffff" stroke="none" x="640" y="448" width="198.67431640625" height="57"/></g><g transform="translate(-398,-54) scale(1,1)"><path fill="none" stroke="#000000" d="M 640 448 L 838.67431640625 448 L 838.67431640625 505 L 640 505 L 640 448 Z Z" stroke-miterlimit="10"/></g><g transform="translate(-398,-54) scale(1,1)"><path fill="none" stroke="#000000" d="M 640 473 L 838.67431640625 473" stroke-miterlimit="10"/></g><g transform="translate(-398,-54) scale(1,1)"><path fill="none" stroke="#000000" d="M 640 483 L 838.67431640625 483" stroke-miterlimit="10"/></g><g transform="translate(-398,-54) scale(1,1)"><g><path fill="none" stroke="none"/><text fill="#000000" stroke="none" font-family="Arial" font-size="13px" font-style="normal" font-weight="bold" text-decoration="none" x="676.114501953125" y="467.5">NotificationRepository</text></g></g><g transform="translate(-398,-54) scale(1,1)"><g><path fill="none" stroke="none"/><text fill="#000000" stroke="none" font-family="Arial" font-size="13px" font-style="normal" font-weight="normal" text-decoration="none" x="645" y="500.5">+entityManager(): EntityManager</text></g></g><g transform="translate(-398,-54) scale(1,1)"><rect fill="#C0C0C0" stroke="none" x="631" y="71" width="187.115234375" height="57" opacity="0.2"/></g><g transform="translate(-398,-54) scale(1,1)"><rect fill="#ffffff" stroke="none" x="624" y="64" width="187.115234375" height="57"/></g><g transform="translate(-398,-54) scale(1,1)"><path fill="none" stroke="#000000" d="M 624 64 L 811.115234375 64 L 811.115234375 121 L 624 121 L 624 64 Z Z" stroke-miterlimit="10"/></g><g transform="translate(-398,-54) scale(1,1)"><path fill="none" stroke="#000000" d="M 624 89 L 811.115234375 89" stroke-miterlimit="10"/></g><g transform="translate(-398,-54) scale(1,1)"><path fill="none" stroke="#000000" d="M 624 99 L 811.115234375 99" stroke-miterlimit="10"/></g><g transform="translate(-398,-54) scale(1,1)"><g><path fill="none" stroke="none"/><text fill="#000000" stroke="none" font-family="Arial" font-size="13px" font-style="normal" font-weight="bold" text-decoration="none" x="639.15771484375" y="83.5">AccountController WebApp</text></g></g><g transform="translate(-398,-54) scale(1,1)"><g><path fill="none" stroke="none"/><text fill="#000000" stroke="none" font-family="Arial" font-size="13px" font-style="normal" font-weight="normal" text-decoration="none" x="629" y="116.5">+GetAccount(): ModelAndView</text></g></g><g transform="translate(-398,-54) scale(1,1)"><path fill="none" stroke="#000000" d="M 763 183 L 732 122" stroke-miterlimit="10"/></g><g transform="translate(-398,-54) scale(1,1)"><path fill="#FFFFFF" stroke="none" d="M 740.3569210163726 129.15275269571873 L 732 122 L 732.8514755852243 132.96699545581043 L 741.9670966587673 141.6126740704777"/></g><g transform="translate(-398,-54) scale(1,1)"><path fill="none" stroke="#000000" d="M 740.3569210163726 129.15275269571873 L 732 122 L 732.8514755852243 132.96699545581043 L 741.9670966587673 141.6126740704777 L 740.3569210163726 129.15275269571873" stroke-miterlimit="10"/></g><g transform="translate(-398,-54) scale(1,1)"><path fill="none" stroke="#000000" d="M 539 452 L 639 464" stroke-miterlimit="10"/></g><g transform="translate(-398,-54) scale(1,1)"><path fill="none" stroke="#000000" d="M 753 447 L 783 385" stroke-miterlimit="10"/></g><g transform="translate(-398,-54) scale(1,1)"><path fill="#FFFFFF" stroke="none" d="M 782.3627722590669 395.9815272529 L 783 385 L 774.7842995549155 392.31452433153646 L 773.4176595817058 404.8035035311413"/></g><g transform="translate(-398,-54) scale(1,1)"><path fill="none" stroke="#000000" d="M 782.3627722590669 395.9815272529 L 783 385 L 774.7842995549155 392.31452433153646 L 773.4176595817058 404.8035035311413 L 782.3627722590669 395.9815272529" stroke-miterlimit="10"/></g><g transform="translate(-398,-54) scale(1,1)"><path fill="none" stroke="#000000" d="M 796 311 L 787 257" stroke-miterlimit="10"/></g><g transform="translate(-398,-54) scale(1,1)"><path fill="#FFFFFF" stroke="none" d="M 792.8229761917047 266.33236027330923 L 787 257 L 784.5184907181093 267.7164411855751 L 790.6167777207179 278.7006663243072"/></g><g transform="translate(-398,-54) scale(1,1)"><path fill="none" stroke="#000000" d="M 792.8229761917047 266.33236027330923 L 787 257 L 784.5184907181093 267.7164411855751 L 790.6167777207179 278.7006663243072 L 792.8229761917047 266.33236027330923" stroke-miterlimit="10"/></g></g></svg>