<svg version="1.1" xmlns="http://www.w3.org/2000/svg" xmlns:xlink="http://www.w3.org/1999/xlink" width="1317.83984375" height="607"><defs/><g><g transform="translate(5,5) scale(1,1)"><path fill="none" stroke="#000000" d="M 5 5 L 1296 5 L 1296 592 L 5 592 L 5 5" stroke-miterlimit="10"/></g><g transform="translate(5,5) scale(1,1)"><path fill="#ffffff" stroke="none" d="M 5 5 L 5 27 L 293.4033203125 27 L 304.4033203125 16 L 304.4033203125 5 L 5 5"/></g><g transform="translate(5,5) scale(1,1)"><path fill="none" stroke="#000000" d="M 5 5 L 5 27 L 293.4033203125 27 L 304.4033203125 16 L 304.4033203125 5 L 5 5 L 5 5" stroke-miterlimit="10"/></g><g transform="translate(5,5) scale(1,1)"><g><path fill="none" stroke="none"/><text fill="#000000" stroke="none" font-family="Arial" font-size="13px" font-style="normal" font-weight="normal" text-decoration="none" x="75.97900390625" y="22.5">Notifier un mouvement sur le compte</text></g></g><g transform="translate(5,5) scale(1,1)"><g><path fill="none" stroke="none"/><text fill="#000000" stroke="none" font-family="Arial" font-size="13px" font-style="normal" font-weight="bold" text-decoration="none" x="10" y="22.5">interaction</text></g></g><g transform="translate(5,5) scale(1,1)"><path fill="#ffffff" stroke="none" d="M 88.9981551846591 47.3 C 88.9981551846591 43.82060576 91.87655690684092 41 95.42724609375 41 C 98.97793528065908 41 101.8563370028409 43.82060576 101.8563370028409 47.3 C 101.8563370028409 50.779394239999995 98.97793528065908 53.6 95.42724609375 53.6 C 91.87655690684092 53.6 88.9981551846591 50.779394239999995 88.9981551846591 47.3 Z"/></g><g transform="translate(5,5) scale(1,1)"><path fill="none" stroke="#000000" d="M 88.9981551846591 47.3 C 88.9981551846591 43.82060576 91.87655690684092 41 95.42724609375 41 C 98.97793528065908 41 101.8563370028409 43.82060576 101.8563370028409 47.3 C 101.8563370028409 50.779394239999995 98.97793528065908 53.6 95.42724609375 53.6 C 91.87655690684092 53.6 88.9981551846591 50.779394239999995 88.9981551846591 47.3 Z" stroke-miterlimit="10"/></g><g transform="translate(5,5) scale(1,1)"><path fill="none" stroke="#000000" d="M 95.42724609375 53.6 L 95.42724609375 66.4" stroke-miterlimit="10"/></g><g transform="translate(5,5) scale(1,1)"><path fill="none" stroke="#000000" d="M 88.61997336647727 58.4 L 102.23451882102273 58.4" stroke-miterlimit="10"/></g><g transform="translate(5,5) scale(1,1)"><path fill="none" stroke="#000000" d="M 95.42724609375 66.4 L 85.97270063920455 79" stroke-miterlimit="10"/></g><g transform="translate(5,5) scale(1,1)"><path fill="none" stroke="#000000" d="M 95.42724609375 66.4 L 104.88179154829545 79" stroke-miterlimit="10"/></g><g transform="translate(5,5) scale(1,1)"><g><path fill="none" stroke="none"/><text fill="#000000" stroke="none" font-family="Arial" font-size="13px" font-style="normal" font-weight="bold" text-decoration="none" x="48.81640625" y="99.5">Lifeline1: Actor1</text></g></g><g transform="translate(5,5) scale(1,1)"><path fill="none" stroke="#000000" d="M 96.5 105 L 96.5 504" stroke-miterlimit="10" stroke-dasharray="3"/></g><g transform="translate(5,5) scale(1,1)"><rect fill="#C0C0C0" stroke="none" x="239" y="47" width="123.736328125" height="39" opacity="0.2"/></g><g transform="translate(5,5) scale(1,1)"><rect fill="#ffffff" stroke="none" x="232" y="40" width="123.736328125" height="39"/></g><g transform="translate(5,5) scale(1,1)"><path fill="none" stroke="#000000" d="M 232 40 L 355.736328125 40 L 355.736328125 79 L 232 79 L 232 40 Z Z" stroke-miterlimit="10"/></g><g transform="translate(5,5) scale(1,1)"><g><path fill="none" stroke="none"/><text fill="#000000" stroke="none" font-family="Arial" font-size="13px" font-style="normal" font-weight="bold" text-decoration="none" x="246.175048828125" y="59.5">:accountById.jsp</text></g></g><g transform="translate(5,5) scale(1,1)"><path fill="none" stroke="#000000" d="M 294.5 80 L 294.5 504" stroke-miterlimit="10" stroke-dasharray="3"/></g><g transform="translate(5,5) scale(1,1)"><rect fill="#C0C0C0" stroke="none" x="423" y="47" width="194.49365234375" height="39" opacity="0.2"/></g><g transform="translate(5,5) scale(1,1)"><rect fill="#ffffff" stroke="none" x="416" y="40" width="194.49365234375" height="39"/></g><g transform="translate(5,5) scale(1,1)"><path fill="none" stroke="#000000" d="M 416 40 L 610.49365234375 40 L 610.49365234375 79 L 416 79 L 416 40 Z Z" stroke-miterlimit="10"/></g><g transform="translate(5,5) scale(1,1)"><g><path fill="none" stroke="none"/><text fill="#000000" stroke="none" font-family="Arial" font-size="13px" font-style="normal" font-weight="bold" text-decoration="none" x="432.67919921875" y="59.5">:AccountController(webapp)</text></g></g><g transform="translate(5,5) scale(1,1)"><path fill="none" stroke="#000000" d="M 514.5 80 L 514.5 504" stroke-miterlimit="10" stroke-dasharray="3"/></g><g transform="translate(5,5) scale(1,1)"><rect fill="#C0C0C0" stroke="none" x="655" y="47" width="173.54638671875" height="39" opacity="0.2"/></g><g transform="translate(5,5) scale(1,1)"><rect fill="#ffffff" stroke="none" x="648" y="40" width="173.54638671875" height="39"/></g><g transform="translate(5,5) scale(1,1)"><path fill="none" stroke="#000000" d="M 648 40 L 821.54638671875 40 L 821.54638671875 79 L 648 79 L 648 40 Z Z" stroke-miterlimit="10"/></g><g transform="translate(5,5) scale(1,1)"><g><path fill="none" stroke="none"/><text fill="#000000" stroke="none" font-family="Arial" font-size="13px" font-style="normal" font-weight="bold" text-decoration="none" x="663.609619140625" y="59.5">:AccountController(DAS)</text></g></g><g transform="translate(5,5) scale(1,1)"><path fill="none" stroke="#000000" d="M 735.5 80 L 735.5 504" stroke-miterlimit="10" stroke-dasharray="3"/></g><g transform="translate(5,5) scale(1,1)"><rect fill="#C0C0C0" stroke="none" x="911" y="47" width="121.5908203125" height="39" opacity="0.2"/></g><g transform="translate(5,5) scale(1,1)"><rect fill="#ffffff" stroke="none" x="904" y="40" width="121.5908203125" height="39"/></g><g transform="translate(5,5) scale(1,1)"><path fill="none" stroke="#000000" d="M 904 40 L 1025.5908203125 40 L 1025.5908203125 79 L 904 79 L 904 40 Z Z" stroke-miterlimit="10"/></g><g transform="translate(5,5) scale(1,1)"><g><path fill="none" stroke="none"/><text fill="#000000" stroke="none" font-family="Arial" font-size="13px" font-style="normal" font-weight="bold" text-decoration="none" x="917.8291015625" y="59.5">:AccountService</text></g></g><g transform="translate(5,5) scale(1,1)"><path fill="none" stroke="#000000" d="M 965.5 80 L 965.5 496" stroke-miterlimit="10" stroke-dasharray="3"/></g><g transform="translate(5,5) scale(1,1)"><rect fill="#C0C0C0" stroke="none" x="1095" y="47" width="143.22998046875" height="39" opacity="0.2"/></g><g transform="translate(5,5) scale(1,1)"><rect fill="#ffffff" stroke="none" x="1088" y="40" width="143.22998046875" height="39"/></g><g transform="translate(5,5) scale(1,1)"><path fill="none" stroke="#000000" d="M 1088 40 L 1231.22998046875 40 L 1231.22998046875 79 L 1088 79 L 1088 40 Z Z" stroke-miterlimit="10"/></g><g transform="translate(5,5) scale(1,1)"><g><path fill="none" stroke="none"/><text fill="#000000" stroke="none" font-family="Arial" font-size="13px" font-style="normal" font-weight="bold" text-decoration="none" x="1103.254150390625" y="59.5">:AccountRepository</text></g></g><g transform="translate(5,5) scale(1,1)"><path fill="none" stroke="#000000" d="M 1160.5 80 L 1160.5 504" stroke-miterlimit="10" stroke-dasharray="3"/></g><g transform="translate(5,5) scale(1,1)"><path fill="none" stroke="#000000" d="M 96 121 L 287 121" stroke-miterlimit="10"/></g><g transform="translate(5,5) scale(1,1)"><path fill="#000000" stroke="none" d="M 276.83732514237585 125.20951775601598 L 287 121 L 276.83732514237585 116.79048224398402"/></g><g transform="translate(5,5) scale(1,1)"><path fill="none" stroke="#000000" d="M 276.83732514237585 125.20951775601598 L 287 121 L 276.83732514237585 116.79048224398402 L 276.83732514237585 125.20951775601598" stroke-miterlimit="10"/></g><g transform="translate(5,5) scale(1,1)"><g><path fill="none" stroke="none"/><text fill="#000000" stroke="none" font-family="Arial" font-size="13px" font-style="normal" font-weight="normal" text-decoration="none" x="64" y="118">1 : Click on the button "Simuler mouvement"</text></g></g><g transform="translate(5,5) scale(1,1)"><rect fill="#ffffff" stroke="none" x="287" y="121" width="13" height="28"/></g><g transform="translate(5,5) scale(1,1)"><path fill="none" stroke="#000000" d="M 287 121 L 300 121 L 300 149 L 287 149 L 287 121 Z Z" stroke-miterlimit="10"/></g><g transform="translate(5,5) scale(1,1)"><path fill="none" stroke="#000000" d="M 96 192 L 507 192" stroke-miterlimit="10"/></g><g transform="translate(5,5) scale(1,1)"><path fill="#000000" stroke="none" d="M 496.83732514237585 196.209517756016 L 507 192 L 496.83732514237585 187.790482243984"/></g><g transform="translate(5,5) scale(1,1)"><path fill="none" stroke="#000000" d="M 496.83732514237585 196.209517756016 L 507 192 L 496.83732514237585 187.790482243984 L 496.83732514237585 196.209517756016" stroke-miterlimit="10"/></g><g transform="translate(5,5) scale(1,1)"><g><path fill="none" stroke="none"/><text fill="#000000" stroke="none" font-family="Arial" font-size="13px" font-style="normal" font-weight="normal" text-decoration="none" x="256" y="189">2 : getAccount()</text></g></g><g transform="translate(5,5) scale(1,1)"><rect fill="#ffffff" stroke="none" x="507" y="192" width="13" height="28"/></g><g transform="translate(5,5) scale(1,1)"><path fill="none" stroke="#000000" d="M 507 192 L 520 192 L 520 220 L 507 220 L 507 192 Z Z" stroke-miterlimit="10"/></g><g transform="translate(5,5) scale(1,1)"><path fill="none" stroke="#000000" d="M 514 240 L 728 240" stroke-miterlimit="10"/></g><g transform="translate(5,5) scale(1,1)"><path fill="#000000" stroke="none" d="M 717.8373251423759 244.209517756016 L 728 240 L 717.8373251423758 235.790482243984"/></g><g transform="translate(5,5) scale(1,1)"><path fill="none" stroke="#000000" d="M 717.8373251423759 244.209517756016 L 728 240 L 717.8373251423758 235.790482243984 L 717.8373251423759 244.209517756016" stroke-miterlimit="10"/></g><g transform="translate(5,5) scale(1,1)"><g><path fill="none" stroke="none"/><text fill="#000000" stroke="none" font-family="Arial" font-size="13px" font-style="normal" font-weight="normal" text-decoration="none" x="470" y="237">3 : restTemplate.getForObject(url, AccountDto.class)</text></g></g><g transform="translate(5,5) scale(1,1)"><rect fill="#ffffff" stroke="none" x="728" y="240" width="13" height="28"/></g><g transform="translate(5,5) scale(1,1)"><path fill="none" stroke="#000000" d="M 728 240 L 741 240 L 741 268 L 728 268 L 728 240 Z Z" stroke-miterlimit="10"/></g><g transform="translate(5,5) scale(1,1)"><path fill="none" stroke="#000000" d="M 735 281 L 958 281" stroke-miterlimit="10"/></g><g transform="translate(5,5) scale(1,1)"><path fill="#000000" stroke="none" d="M 947.8373251423759 285.209517756016 L 958 281 L 947.8373251423758 276.790482243984"/></g><g transform="translate(5,5) scale(1,1)"><path fill="none" stroke="#000000" d="M 947.8373251423759 285.209517756016 L 958 281 L 947.8373251423758 276.790482243984 L 947.8373251423759 285.209517756016" stroke-miterlimit="10"/></g><g transform="translate(5,5) scale(1,1)"><g><path fill="none" stroke="none"/><text fill="#000000" stroke="none" font-family="Arial" font-size="13px" font-style="normal" font-weight="normal" text-decoration="none" x="742" y="278">4 : accountService : getAccountById</text></g></g><g transform="translate(5,5) scale(1,1)"><rect fill="#ffffff" stroke="none" x="958" y="281" width="13" height="28"/></g><g transform="translate(5,5) scale(1,1)"><path fill="none" stroke="#000000" d="M 958 281 L 971 281 L 971 309 L 958 309 L 958 281 Z Z" stroke-miterlimit="10"/></g><g transform="translate(5,5) scale(1,1)"><path fill="none" stroke="#000000" d="M 965 320 L 1153 320" stroke-miterlimit="10"/></g><g transform="translate(5,5) scale(1,1)"><path fill="#000000" stroke="none" d="M 1142.837325142376 324.209517756016 L 1153 320 L 1142.837325142376 315.790482243984"/></g><g transform="translate(5,5) scale(1,1)"><path fill="none" stroke="#000000" d="M 1142.837325142376 324.209517756016 L 1153 320 L 1142.837325142376 315.790482243984 L 1142.837325142376 324.209517756016" stroke-miterlimit="10"/></g><g transform="translate(5,5) scale(1,1)"><g><path fill="none" stroke="none"/><text fill="#000000" stroke="none" font-family="Arial" font-size="13px" font-style="normal" font-weight="normal" text-decoration="none" x="964" y="317">5 : accountRepository : findOne()</text></g></g><g transform="translate(5,5) scale(1,1)"><rect fill="#ffffff" stroke="none" x="1153" y="320" width="13" height="54"/></g><g transform="translate(5,5) scale(1,1)"><path fill="none" stroke="#000000" d="M 1153 320 L 1166 320 L 1166 374 L 1153 374 L 1153 320 Z Z" stroke-miterlimit="10"/></g><g transform="translate(5,5) scale(1,1)"><path fill="none" stroke="#000000" d="M 1166 320 L 1196 320 L 1196 340 L 1173 340" stroke-miterlimit="10"/></g><g transform="translate(5,5) scale(1,1)"><path fill="#000000" stroke="none" d="M 1183.162674857624 335.790482243984 L 1173 340 L 1183.162674857624 344.209517756016"/></g><g transform="translate(5,5) scale(1,1)"><path fill="none" stroke="#000000" d="M 1183.162674857624 335.790482243984 L 1173 340 L 1183.162674857624 344.209517756016 L 1183.162674857624 335.790482243984" stroke-miterlimit="10"/></g><g transform="translate(5,5) scale(1,1)"><g><path fill="none" stroke="none"/><text fill="#000000" stroke="none" font-family="Arial" font-size="13px" font-style="normal" font-weight="normal" text-decoration="none" x="1168" y="336">6 : Create Select Query</text></g></g><g transform="translate(5,5) scale(1,1)"><rect fill="#ffffff" stroke="none" x="1160" y="340" width="13" height="31"/></g><g transform="translate(5,5) scale(1,1)"><path fill="none" stroke="#000000" d="M 1160 340 L 1173 340 L 1173 371 L 1160 371 L 1160 340 Z Z" stroke-miterlimit="10"/></g><g transform="translate(5,5) scale(1,1)"><path fill="none" stroke="#000000" d="M 1160 368 L 735 368" stroke-miterlimit="10" stroke-dasharray="3"/></g><g transform="translate(5,5) scale(1,1)"><path fill="none" stroke="#000000" d="M 745.1626748576241 363.790482243984 L 735 368 L 745.1626748576241 372.209517756016" stroke-miterlimit="10"/></g><g transform="translate(5,5) scale(1,1)"><g><path fill="none" stroke="none"/><text fill="#000000" stroke="none" font-family="Arial" font-size="13px" font-style="normal" font-weight="normal" text-decoration="none" x="885" y="385">7 : return AccountDto</text></g></g><g transform="translate(5,5) scale(1,1)"><path fill="none" stroke="#000000" d="M 735 392 L 514 392" stroke-miterlimit="10" stroke-dasharray="3"/></g><g transform="translate(5,5) scale(1,1)"><path fill="none" stroke="#000000" d="M 524.1626748576241 387.790482243984 L 514 392 L 524.1626748576241 396.209517756016" stroke-miterlimit="10"/></g><g transform="translate(5,5) scale(1,1)"><g><path fill="none" stroke="none"/><text fill="#000000" stroke="none" font-family="Arial" font-size="13px" font-style="normal" font-weight="normal" text-decoration="none" x="562" y="409">8 : return AccountDto</text></g></g><g transform="translate(5,5) scale(1,1)"><path fill="none" stroke="#000000" d="M 514 424 L 294 424" stroke-miterlimit="10" stroke-dasharray="3"/></g><g transform="translate(5,5) scale(1,1)"><path fill="none" stroke="#000000" d="M 304.16267485762415 419.790482243984 L 294 424 L 304.16267485762415 428.209517756016" stroke-miterlimit="10"/></g><g transform="translate(5,5) scale(1,1)"><g><path fill="none" stroke="none"/><text fill="#000000" stroke="none" font-family="Arial" font-size="13px" font-style="normal" font-weight="normal" text-decoration="none" x="332" y="441">9 : return ModelAndView</text></g></g></g></svg>